<svg width="42" height="42" viewBox="0 0 42 42" fill="none" xmlns="http://www.w3.org/2000/svg"><path d="M37.8 0H4.2A4.2 4.2 0 000 4.2v33.6A4.2 4.2 0 004.2 42h33.6a4.2 4.2 0 004.2-4.2V4.2A4.2 4.2 0 0037.8 0z" fill="url(#paint0_linear)"/><path d="M5.667 19.403a.92.92 0 001.29.14l.85-.682v14.262a1.669 1.669 0 001.663 1.664h23.654a1.67 1.67 0 001.665-1.664V18.89l.824.662c.163.13.365.2.573.2a.905.905 0 00.714-.35.924.924 0 00-.141-1.29L22.283 6.472l-.332-.165a1.638 1.638 0 00-1.316.004l-.349.161L5.809 18.114a.92.92 0 00-.141 1.289" fill="#fff"/><path d="M27.1 27.824c.463-.186.88-.47 1.224-.832.337-.361.6-.785.773-1.248.192-.482.288-.996.282-1.515a3.905 3.905 0 00-.282-1.53 3.716 3.716 0 00-.773-1.232 3.65 3.65 0 00-1.224-.84 4.216 4.216 0 00-1.589-.3h-2.238v7.839h2.238a4.256 4.256 0 001.589-.342zm-1.589-9.86a6.732 6.732 0 012.52.474c.76.315 1.455.77 2.048 1.341a6.181 6.181 0 011.373 1.996c.336.774.503 1.61.49 2.454a6.069 6.069 0 01-.49 2.454 6.7 6.7 0 01-1.373 1.998 5.98 5.98 0 01-2.048 1.315 6.271 6.271 0 01-2.52.491h-4.8V17.964h4.8zm-11.034 5.183a1.571 1.571 0 11.001-3.143 1.571 1.571 0 010 3.143zm0-5.4a3.828 3.828 0 100 7.657 3.828 3.828 0 000-7.656z" fill="#231F20"/><defs><linearGradient id="paint0_linear" x1="21" y1="0" x2="21" y2="42" gradientUnits="userSpaceOnUse"><stop stop-color="#7FB0F8"/><stop offset="1" stop-color="#D5D3FF"/></linearGradient></defs></svg>