<svg xmlns="http://www.w3.org/2000/svg" width="120" height="120" viewBox="0 0 120 120" fill="none"><path d="M95.51 0H24.49C10.965 0 0 10.964 0 24.49v71.02C0 109.036 10.964 120 24.49 120h71.02c13.526 0 24.49-10.964 24.49-24.49V24.49C120 10.965 109.036 0 95.51 0z" fill="url(#paint0_linear)"/><path d="M24.006 56.581a2.084 2.084 0 002.916.319l1.923-1.546V87.63a3.776 3.776 0 003.764 3.77H86.14a3.78 3.78 0 003.77-3.77V55.42l1.863 1.5c.37.291.826.451 1.298.452a2.047 2.047 0 001.618-.79 2.087 2.087 0 00-.318-2.922L61.607 27.316l-.752-.375a3.703 3.703 0 00-2.978 0l-.788.365-32.763 26.346a2.084 2.084 0 00-.318 2.917" fill="#fff"/><path d="M72.51 75.637a7.838 7.838 0 002.77-1.883 8.54 8.54 0 001.75-2.824 9.02 9.02 0 00.64-3.429 8.837 8.837 0 00-.64-3.465 8.402 8.402 0 00-1.75-2.787 8.26 8.26 0 00-2.77-1.9 9.553 9.553 0 00-3.596-.679H63.85v17.738h5.065a9.63 9.63 0 003.594-.771zm-3.596-22.313a15.235 15.235 0 015.704 1.073 14.882 14.882 0 014.633 3.034 13.988 13.988 0 013.106 4.519 13.425 13.425 0 011.112 5.554 13.75 13.75 0 01-1.112 5.554 15.164 15.164 0 01-3.106 4.52 13.532 13.532 0 01-4.633 2.976 14.189 14.189 0 01-5.703 1.112H58.05V53.324h10.864zM43.95 65.057a3.556 3.556 0 11.007-7.112 3.556 3.556 0 01-.007 7.112zm0-12.22a8.662 8.662 0 10-.005 17.324 8.662 8.662 0 00.005-17.324" fill="#231F20"/><defs><linearGradient id="paint0_linear" x1="60" y1="0" x2="60" y2="120" gradientUnits="userSpaceOnUse"><stop stop-color="#7FB0F8"/><stop offset="1" stop-color="#D5D3FF"/></linearGradient></defs></svg>