<svg width="174" height="64" viewBox="0 0 174 64" fill="none" xmlns="http://www.w3.org/2000/svg"><rect width="174" height="64" rx="8" fill="#000"/><path d="M39.485 29.201a4.938 4.938 0 00-.646 2.38c0 .938.279 1.856.8 2.638a4.792 4.792 0 002.127 1.76 10.948 10.948 0 01-1.522 3.093c-.897 1.338-1.838 2.645-3.33 2.67-.71.016-1.19-.188-1.689-.4-.52-.221-1.063-.452-1.912-.452-.901 0-1.468.238-2.015.468-.472.198-.93.39-1.575.417-1.421.052-2.508-1.428-3.437-2.754-1.858-2.706-3.305-7.627-1.365-10.976a5.34 5.34 0 014.485-2.728c.807-.016 1.58.294 2.258.565.52.208.982.393 1.361.393.333 0 .783-.178 1.308-.385.826-.327 1.837-.727 2.867-.62a5.09 5.09 0 014.002 2.158 4.955 4.955 0 00-1.717 1.773zM37.217 20a4.863 4.863 0 01-1.117 3.49 4.11 4.11 0 01-3.246 1.531A4.624 4.624 0 0134 21.66 4.976 4.976 0 0137.217 20zm23.755 7.144c-1.344 0-2.512-.452-3.504-1.356l.564-.66c.848.8 1.832 1.2 2.952 1.2.536 0 .996-.148 1.38-.444.384-.304.576-.696.576-1.176 0-.52-.208-.908-.624-1.164-.416-.256-.964-.384-1.644-.384h-.924v-.78h.924c.608 0 1.1-.14 1.476-.42a1.38 1.38 0 00.576-1.164c0-.432-.18-.788-.54-1.068-.352-.288-.804-.432-1.356-.432-.944 0-1.768.316-2.472.948l-.552-.66c.44-.376.896-.656 1.368-.84.48-.184 1.04-.276 1.68-.276.832 0 1.512.212 2.04.636.528.424.792.96.792 1.608 0 .952-.512 1.612-1.536 1.98.536.16.964.412 1.284.756.32.344.48.78.48 1.308 0 .68-.276 1.248-.828 1.704-.544.456-1.248.684-2.112.684zm6.537-.012c-.632 0-1.176-.172-1.632-.516-.456-.344-.684-.824-.684-1.44 0-.648.24-1.148.72-1.5.48-.352 1.124-.528 1.932-.528.64 0 1.272.088 1.896.264v-.192c0-.544-.16-.96-.48-1.248-.32-.288-.772-.432-1.356-.432-.608 0-1.236.148-1.884.444l-.276-.756c.768-.352 1.52-.528 2.256-.528.88 0 1.548.228 2.004.684.432.432.648 1.04.648 1.824V27h-.912v-.924c-.552.704-1.296 1.056-2.232 1.056zm.18-.744c.576 0 1.064-.156 1.464-.468.4-.312.6-.712.6-1.2v-.576a6.492 6.492 0 00-1.812-.264c-.568 0-1.012.116-1.332.348-.32.224-.48.532-.48.924 0 .376.148.676.444.9.304.224.676.336 1.116.336zM72.61 27v-6.204h4.212v.816h-3.288V27h-.924zm5.555 1.92v-8.124h.924v1.248c.624-.92 1.416-1.38 2.376-1.38.792 0 1.484.296 2.076.888.592.584.888 1.368.888 2.352 0 .968-.296 1.748-.888 2.34-.592.592-1.284.888-2.076.888-.976 0-1.768-.44-2.376-1.32v3.108h-.924zm3.132-2.616c.624 0 1.144-.216 1.56-.648.416-.44.624-1.028.624-1.764 0-.712-.212-1.288-.636-1.728a2.051 2.051 0 00-1.548-.672c-.6 0-1.124.228-1.572.684-.448.456-.672 1.032-.672 1.728s.224 1.272.672 1.728c.448.448.972.672 1.572.672zm5.797 2.652c-.448 0-.888-.104-1.32-.312l.312-.732c.296.152.62.228.972.228.28 0 .516-.088.708-.264.192-.168.38-.468.564-.9l-2.82-6.18h1.02l2.256 5.172 1.992-5.172h.984l-2.604 6.408c-.264.632-.556 1.08-.876 1.344-.32.272-.716.408-1.188.408zm8.097-1.812c-.952 0-1.808-.308-2.568-.924l.468-.684c.632.536 1.324.804 2.076.804.424 0 .784-.096 1.08-.288.304-.2.456-.472.456-.816a.838.838 0 00-.408-.744c-.272-.184-.656-.276-1.152-.276h-.828v-.756h.84c.408 0 .74-.096.996-.288.256-.2.384-.46.384-.78 0-.28-.128-.504-.384-.672-.248-.168-.568-.252-.96-.252-.736 0-1.364.208-1.884.624l-.456-.648c.672-.52 1.472-.78 2.4-.78.688 0 1.232.156 1.632.468.408.304.612.7.612 1.188 0 .68-.332 1.156-.996 1.428.768.272 1.152.78 1.152 1.524 0 .52-.224.964-.672 1.332-.448.36-1.044.54-1.788.54zM99.364 27v-6.204h.924v4.908l3.684-4.908h.9V27h-.924v-4.908L100.252 27h-.888zm9.07 0v-5.388h-2.22v-.816h5.376v.816h-2.22V27h-.936zm4.5 0v-6.204h.924v2.328h1.656c.72 0 1.308.156 1.764.468.456.304.684.768.684 1.392 0 .616-.212 1.108-.636 1.476-.424.36-.992.54-1.704.54h-2.688zm.924-.816h1.68c.472 0 .836-.1 1.092-.3.264-.2.396-.492.396-.876 0-.352-.136-.62-.408-.804-.264-.192-.636-.288-1.116-.288h-1.644v2.268zm9.131.816v-6.204h3c.616 0 1.108.14 1.476.42.368.28.552.656.552 1.128 0 .664-.344 1.14-1.032 1.428.912.248 1.368.76 1.368 1.536 0 .52-.204.932-.612 1.236-.408.304-.956.456-1.644.456h-3.108zm.924-.792h2.064c.44 0 .788-.092 1.044-.276a.893.893 0 00.384-.768c0-.304-.136-.54-.408-.708-.264-.168-.644-.252-1.14-.252h-1.944v2.004zm0-2.748h1.908c.384 0 .688-.084.912-.252.232-.176.348-.424.348-.744a.753.753 0 00-.324-.636c-.216-.16-.52-.24-.912-.24h-1.932v1.872zM57.447 43l4.621-10.576h1.714L68.397 43h-1.949l-1.062-2.534H60.42L59.336 43h-1.89zm3.647-4.167h3.618l-1.816-4.205-1.802 4.205zm8.9 6.57v-10.32h1.808V36.4c.703-.991 1.6-1.487 2.688-1.487.474 0 .93.093 1.37.278.44.186.832.45 1.18.791.346.342.622.78.827 1.311a4.75 4.75 0 01.315 1.758c0 .635-.105 1.216-.315 1.743-.205.528-.481.962-.828 1.304a3.653 3.653 0 01-1.172.791c-.44.186-.898.279-1.377.279-1.084 0-1.98-.467-2.688-1.4v3.633h-1.809zm1.764-6.35c0 .741.227 1.35.681 1.823.455.474.999.71 1.634.71a2.12 2.12 0 001.611-.695c.435-.47.652-1.092.652-1.868 0-.747-.22-1.355-.66-1.824-.439-.473-.973-.71-1.603-.71-.635 0-1.18.239-1.633.718-.455.478-.682 1.093-.682 1.845zm8.284 6.35v-10.32h1.81V36.4c.702-.991 1.598-1.487 2.687-1.487.474 0 .93.093 1.37.278.44.186.832.45 1.179.791.347.342.622.78.828 1.311a4.75 4.75 0 01.315 1.758c0 .635-.105 1.216-.316 1.743-.205.528-.48.962-.827 1.304a3.652 3.652 0 01-1.172.791c-.44.186-.898.279-1.377.279-1.084 0-1.98-.467-2.688-1.4v3.633h-1.809zm1.765-6.35c0 .741.227 1.35.681 1.823.454.474.999.71 1.634.71a2.12 2.12 0 001.61-.695c.436-.47.653-1.092.653-1.868 0-.747-.22-1.355-.66-1.824-.439-.473-.974-.71-1.603-.71-.635 0-1.18.239-1.634.718-.454.478-.68 1.093-.68 1.845zm12.283 2.416l1.113-1.318c.523.454 1.047.796 1.575 1.025a4.385 4.385 0 001.736.337c.571 0 1.023-.12 1.355-.359.337-.244.505-.573.505-.989 0-.263-.061-.48-.183-.651-.122-.176-.356-.342-.703-.498-.342-.161-.835-.318-1.48-.47a11.833 11.833 0 01-1.501-.439 4.68 4.68 0 01-1.077-.593 2.194 2.194 0 01-.703-.871c-.146-.347-.22-.762-.22-1.245 0-.899.335-1.631 1.004-2.198.674-.566 1.535-.85 2.585-.85 1.45 0 2.72.44 3.809 1.319l-.989 1.399c-.972-.723-1.921-1.084-2.85-1.084-.526 0-.944.12-1.252.359-.307.239-.461.544-.461.915 0 .279.068.508.205.689.142.18.388.346.74.498.351.151.867.307 1.545.469 1.167.283 2.022.659 2.564 1.127.542.464.813 1.121.813 1.97 0 .967-.347 1.732-1.04 2.293-.689.562-1.592.843-2.71.843-1.67 0-3.13-.56-4.38-1.678zm9.463-4.826v-1.56h1.003v-2.176h1.817v2.176h2.124v1.56h-2.124v3.881c0 .66.324.99.974.99.39 0 .764-.091 1.12-.272v1.487c-.468.269-1.013.403-1.633.403-1.519 0-2.278-.774-2.278-2.322v-4.167h-1.003zm6.108 2.41c0-.748.181-1.436.542-2.066a4.032 4.032 0 011.524-1.509 4.274 4.274 0 012.168-.564 4.25 4.25 0 012.16.557 3.94 3.94 0 011.509 1.501 4.11 4.11 0 01.542 2.08c0 .557-.107 1.09-.322 1.597a4.217 4.217 0 01-.879 1.318 4.126 4.126 0 01-1.348.886c-.527.22-1.091.33-1.692.33a4.235 4.235 0 01-2.153-.556 4.008 4.008 0 01-1.509-1.502 4.096 4.096 0 01-.542-2.073zm1.817 0c0 .702.229 1.305.688 1.808.459.498 1.035.747 1.729.747.717 0 1.296-.246 1.735-.74.44-.492.66-1.098.66-1.816 0-.708-.23-1.308-.689-1.801-.454-.499-1.033-.748-1.736-.748-.713 0-1.289.245-1.728.733-.44.488-.659 1.094-.659 1.816zM119.959 43v-7.917h1.809v1.78c.264-.626.63-1.111 1.099-1.458.434-.318.952-.476 1.552-.476h.154v1.919h-.102c-.821 0-1.477.268-1.971.805-.488.532-.732 1.309-.732 2.33V43h-1.809zm5.479-3.962c0-.752.163-1.44.49-2.066.327-.63.789-1.13 1.384-1.501a3.708 3.708 0 012-.557c.493 0 .947.076 1.362.227.415.147.769.352 1.062.615.298.264.55.577.755.938.21.356.363.744.461 1.164.103.42.154.86.154 1.319 0 .22-.01.388-.029.505h-5.823c.098.635.351 1.13.762 1.487.415.352.92.527 1.516.527a2.78 2.78 0 001.15-.227 3.59 3.59 0 00.996-.718l1.069.945c-.82.992-1.902 1.487-3.245 1.487-.761 0-1.45-.17-2.065-.513a3.772 3.772 0 01-1.465-1.464c-.356-.635-.534-1.358-.534-2.168zm1.801-.55h4.065c-.063-.615-.271-1.115-.622-1.501-.347-.39-.808-.586-1.385-.586-.547 0-1.005.193-1.377.578-.366.381-.593.884-.681 1.51z" fill="#fff"/></svg>