<svg width="82" height="32" viewBox="0 0 82 32" fill="none" xmlns="http://www.w3.org/2000/svg"><g clip-path="url(#clip0)"><path d="M8.755 8C3.925 8 0 11.944 0 16.798s3.925 8.798 8.755 8.798c4.831 0 8.756-3.944 8.756-8.798S13.586 8 8.755 8zm0 16.714c-4.348 0-7.878-3.556-7.878-7.916s3.53-7.916 7.878-7.916c4.35 0 7.878 3.556 7.878 7.916s-3.529 7.916-7.878 7.916z" fill="#000"/><path d="M11.88 11.158a.194.194 0 00-.107-.03.198.198 0 00-.202.204v2.752a.173.173 0 01-.174.174H6.094c-.096 0-.164-.077-.174-.174v-2.752a.221.221 0 00-.029-.106.203.203 0 00-.28-.068 6.59 6.59 0 00-3.143 5.639 6.566 6.566 0 003.163 5.639.19.19 0 00.106.03.198.198 0 00.203-.204V19.51c0-.097.077-.165.173-.175h5.304c.096 0 .173.078.173.175v2.752a.203.203 0 00.309.174 6.566 6.566 0 003.163-5.64c0-2.324-1.206-4.427-3.182-5.638zm-6.962 9.088l.029.33-.213-.262a5.686 5.686 0 010-7.044l.184-.232.029-.03-.03.34a7.909 7.909 0 00-.038.833v5.222c0 .281.02.562.039.843zm6.653-2.131a.173.173 0 01-.174.174H6.094c-.096 0-.164-.078-.174-.174v-2.636c0-.097.078-.174.174-.174h5.303c.097 0 .174.077.174.174v2.636zm1.196 2.2l-.213.26.03-.329c.028-.271.038-.552.038-.833v-5.232c0-.281-.01-.562-.039-.833l-.01-.146-.009-.155v-.039l.203.262a5.667 5.667 0 011.224 3.517c0 1.27-.434 2.539-1.224 3.527z" fill="#000"/><path d="M30.721 16.642c-.048-.02-.106-.039-.106-.097 0-.039.02-.068.058-.087.067-.03 1.736-.63 1.736-2.606 0-2.2-1.476-3.508-3.963-3.508h-6.027V23.27h6.576c1.919 0 3.982-1.367 3.982-3.566 0-2.103-1.58-2.84-2.256-3.062zm-5.265-3.653c0-.048.039-.087.087-.087h2.392c.79 0 1.33.533 1.33 1.328 0 .62-.482 1.288-1.388 1.288h-2.334a.087.087 0 01-.087-.087v-2.442zm2.479 7.732h-2.392a.087.087 0 01-.087-.087v-2.577c0-.049.039-.087.087-.087h2.334c1.147 0 1.803.494 1.803 1.366 0 .9-.608 1.385-1.745 1.385zm25.398-5.232l-.463-.097c-1.041-.223-2.054-.504-2.054-1.405 0-.9.84-1.308 1.668-1.308.974 0 1.938.436 2.671 1.192l1.91-1.9c-.82-.91-2.276-1.956-4.629-1.956-2.835 0-4.744 1.618-4.744 4.03 0 2.549 1.996 3.508 3.674 3.866l.453.097c1.63.35 2.401.61 2.401 1.54 0 .834-.742 1.386-1.842 1.386-1.292 0-2.44-.571-3.307-1.647l-1.958 1.928c1.042 1.24 2.42 2.364 5.304 2.364 2.459 0 4.956-1.434 4.956-4.185-.01-2.82-1.919-3.46-4.04-3.905zm25.408-5.145v4.728a.087.087 0 01-.087.088h-3.953a.087.087 0 01-.087-.088v-4.728h-3.24V23.27h3.24v-5.078c0-.048.038-.087.087-.087h3.953c.048 0 .087.039.087.087v5.078H82V10.344h-3.26zm-13.885 10.28c-1.456 0-3.028-1.22-3.028-3.904 0-2.452 1.475-3.73 2.931-3.73 1.06 0 1.803.445 2.392 1.433l2.487-1.657c-1.272-1.88-2.786-2.732-4.898-2.732-4.137 0-5.988 3.362-5.988 6.686 0 4.04 2.45 6.86 5.95 6.86 2.603 0 3.789-.96 5.033-2.733l-2.507-1.695c-.56.91-1.167 1.472-2.372 1.472zm-24.598-10.61c-3.54 0-5.911 2.723-5.911 6.783 0 4.06 2.372 6.782 5.91 6.782 3.54 0 5.912-2.722 5.912-6.782 0-4.06-2.373-6.782-5.911-6.782zm0 10.61c-1.736 0-2.855-1.502-2.855-3.827 0-2.316 1.119-3.808 2.855-3.808 1.745 0 2.873 1.492 2.873 3.808 0 2.325-1.128 3.827-2.873 3.827z" fill="#FD3C2F"/></g><defs><clipPath id="clip0"><path fill="#fff" d="M0 0h82v32H0z"/></clipPath></defs></svg>