<svg width="103" height="40" viewBox="0 0 103 40" fill="none" xmlns="http://www.w3.org/2000/svg"><path d="M10.998 14C4.93 14 0 18.93 0 24.997c0 6.068 4.93 10.998 10.998 10.998s10.997-4.93 10.997-10.998S17.065 14 10.998 14zm0 20.892c-5.463 0-9.896-4.445-9.896-9.895 0-5.45 4.433-9.895 9.896-9.895 5.462 0 9.895 4.445 9.895 9.895 0 5.45-4.433 9.895-9.895 9.895z" fill="#fff"/><path d="M14.922 17.947a.244.244 0 00-.133-.036.248.248 0 00-.255.254v3.44a.217.217 0 01-.218.218H7.655c-.121 0-.206-.097-.218-.218v-3.44a.276.276 0 00-.037-.133.255.255 0 00-.35-.085 8.23 8.23 0 00-3.95 7.05c0 2.906 1.49 5.534 3.973 7.048a.244.244 0 00.134.036.248.248 0 00.254-.254v-3.44c0-.12.097-.206.218-.218h6.662c.12 0 .218.097.218.218v3.44c0 .048.012.085.036.133.072.121.23.158.351.085 2.483-1.514 3.973-4.142 3.973-7.049s-1.514-5.535-3.997-7.049zm-8.745 11.36l.036.413-.266-.327a7.08 7.08 0 010-8.806l.23-.29.036-.037-.036.424a9.94 9.94 0 00-.048 1.042v6.528c0 .351.024.703.048 1.054zm8.357-2.664a.217.217 0 01-.218.218H7.655c-.121 0-.206-.097-.218-.218V23.35c0-.121.097-.218.218-.218h6.661c.121 0 .218.097.218.218v3.294zm1.502 2.75l-.266.327.036-.412c.036-.34.049-.69.049-1.042v-6.54c0-.351-.013-.703-.049-1.042l-.012-.181-.012-.194v-.049l.254.327a7.062 7.062 0 011.538 4.397 7.096 7.096 0 01-1.538 4.409zm22.553-4.591c-.06-.024-.134-.048-.134-.12 0-.05.025-.086.073-.11.085-.036 2.18-.787 2.18-3.258 0-2.75-1.853-4.384-4.978-4.384h-7.57v16.157h8.26c2.41 0 5.003-1.708 5.003-4.458 0-2.628-1.986-3.548-2.834-3.827zm-6.613-4.566c0-.06.048-.109.108-.109h3.004c.993 0 1.672.666 1.672 1.66 0 .775-.606 1.61-1.744 1.61h-2.931a.109.109 0 01-.11-.109v-3.052zm3.112 9.665h-3.004a.109.109 0 01-.109-.109v-3.221a.11.11 0 01.11-.11h2.93c1.442 0 2.266.618 2.266 1.708 0 1.127-.764 1.732-2.193 1.732zm31.903-6.54l-.581-.121c-1.308-.279-2.58-.63-2.58-1.756 0-1.127 1.054-1.635 2.095-1.635 1.224 0 2.435.545 3.355 1.49l2.398-2.374c-1.029-1.139-2.858-2.447-5.813-2.447-3.561 0-5.96 2.023-5.96 5.038 0 3.186 2.508 4.385 4.615 4.833l.57.121c2.046.436 3.016.763 3.016 1.926 0 1.041-.933 1.732-2.314 1.732-1.623 0-3.064-.715-4.154-2.06l-2.459 2.41c1.308 1.551 3.04 2.956 6.662 2.956 3.088 0 6.225-1.792 6.225-5.232-.012-3.524-2.41-4.324-5.075-4.881zm31.915-6.431v5.91a.11.11 0 01-.109.11h-4.966a.109.109 0 01-.109-.11v-5.91h-4.07v16.157h4.07V26.74a.11.11 0 01.11-.109h4.965c.06 0 .11.049.11.11v6.346H103V16.93h-4.094zM81.465 29.78c-1.829 0-3.803-1.526-3.803-4.88 0-3.065 1.853-4.664 3.682-4.664 1.332 0 2.265.557 3.004 1.793l3.124-2.071c-1.598-2.35-3.5-3.416-6.152-3.416-5.196 0-7.522 4.203-7.522 8.357 0 5.05 3.076 8.575 7.473 8.575 3.27 0 4.76-1.199 6.323-3.415l-3.15-2.12c-.702 1.139-1.465 1.841-2.979 1.841zM50.567 16.518c-4.445 0-7.424 3.403-7.424 8.478 0 5.075 2.98 8.478 7.424 8.478 4.446 0 7.425-3.403 7.425-8.478 0-5.075-2.98-8.478-7.425-8.478zm0 13.262c-2.18 0-3.585-1.877-3.585-4.784 0-2.895 1.405-4.76 3.585-4.76 2.193 0 3.61 1.865 3.61 4.76 0 2.907-1.417 4.784-3.61 4.784z" fill="#fff"/></svg>