<svg xmlns="http://www.w3.org/2000/svg" width="300" height="212" viewBox="0 0 300 212" fill="none"><g clip-path="url(#clip0)" fill="#231F20"><path d="M248.431 82.545c-1.035 0-2.088 0-3.132.097-2.21-26.209-24.442-46.676-50.814-46.676a51.336 51.336 0 00-20.371 4.245 63.614 63.614 0 00-23.35-29.23A63.242 63.242 0 00115.079 0c-34.98 0-63.44 28.445-63.44 63.408 0 .969 0 1.955.08 2.95a59.882 59.882 0 00-36.9 19.996A60.31 60.31 0 000 125.733a59.719 59.719 0 0010.195 33.591 59.376 59.376 0 0027.276 21.987c5.93 2.431 16.458 3.814 17.353 1.762.36-.819-.535-1.674-2.886-2.757a119.666 119.666 0 01-17.547-9.81c-11.194-7.926-17.099-16.09-20.073-21.524a50.414 50.414 0 01-5.544-23.249A51.43 51.43 0 0122.69 90.682a51.05 51.05 0 0134.03-16.028 4.375 4.375 0 003.09-1.573 4.407 4.407 0 00.989-3.332 55.597 55.597 0 01-.386-6.341c0-30.101 24.565-54.601 54.666-54.601a54.832 54.832 0 0132.506 10.81 55.176 55.176 0 0119.826 28.027 4.407 4.407 0 002.566 2.806 4.368 4.368 0 003.786-.252 42.132 42.132 0 0121.005-5.425 42.138 42.138 0 0120.919 5.75A42.338 42.338 0 01231.01 65.93a42.54 42.54 0 015.692 21.01v.519a4.418 4.418 0 001.513 3.38 4.382 4.382 0 003.549 1.023 43.528 43.528 0 016.676-.52 42.65 42.65 0 0130.228 12.478 42.975 42.975 0 0112.603 30.27c0 13.959-7.703 28.313-18.854 35.412-5.264 3.443-5.36 4.095-18.801 10.788-1.509.748-3.175 1.761-2.693 2.809.325.722 1.834 1.039 3.93 1.039 4.9-.14 9.742-1.098 14.327-2.835a51.393 51.393 0 0025.152-23.606 51.683 51.683 0 004.625-34.251 51.54 51.54 0 00-17.985-29.474 51.193 51.193 0 00-32.497-11.427h-.044zM62.125 199.911v6.79h-3.457v-15.544h3.457v6.041h1.92l4.388-6.041h3.947l-5.851 7.539 6.29 8.005h-3.948l-5.132-6.79h-1.614zm18.656 7.169c-3.772 0-7.633-2.519-7.633-8.12 0-5.601 3.86-8.155 7.633-8.155s7.633 2.545 7.633 8.155c0 5.61-3.86 8.12-7.633 8.12zm4.088-8.12c0-3.584-1.93-5.346-4.088-5.346-2.158 0-4.088 1.762-4.088 5.346s1.93 5.284 4.088 5.284c2.158 0 4.088-1.691 4.088-5.284zm16.904 1.127H94.86v6.614h-3.43v-15.544h3.43v6.209h6.913v-6.209h3.422v15.544h-3.422v-6.614zm20.174 10.286v-3.672h-11.318v3.672h-3.106v-6.358h.878c1.754 0 2.632-2.255 2.877-7.926l.228-4.941h11.292v12.858h2.307v6.359l-3.158.008zm-7.458-16.503l-.14 2.642c-.237 4.104-.807 6.323-2.018 7.512h7.019V193.87h-4.861zm23.955 12.831v-10.779l-7.369 10.779h-3.43v-15.544h3.43v10.832l7.369-10.832h3.431v15.544h-3.431zm22.78 3.672h-3.115v-3.672H145.73v-15.544h3.413v12.831h6.335v-12.831h3.43v12.831h2.307l.009 6.385zm13.361-3.672v-10.779l-7.37 10.779h-3.43v-15.544h3.43v10.832l7.37-10.832h3.43v15.544h-3.43zm13.763.379c-3.773 0-7.633-2.519-7.633-8.12 0-5.601 3.86-8.155 7.633-8.155 3.772 0 7.632 2.545 7.632 8.155 0 5.61-3.851 8.12-7.632 8.12zm4.088-8.12c0-3.584-1.93-5.346-4.088-5.346-2.159 0-4.089 1.762-4.089 5.346s1.93 5.284 4.089 5.284c2.158 0 4.088-1.691 4.088-5.284zm16.852 1.127h-6.905v6.614h-3.43v-15.544h3.43v6.209h6.905v-6.209h3.43v15.544h-3.43v-6.614zm14.085 4.13c1.754 0 3.193-.722 3.799-2.166h3.369a7.043 7.043 0 01-2.65 3.724 7 7 0 01-4.369 1.305c-4.983 0-7.834-3.814-7.834-8.27 0-4.676 3.202-8.005 7.606-8.005 4.746 0 7.711 3.875 7.431 9.106H219.17c.229 2.889 2.246 4.306 4.203 4.306zm3.86-6.816a3.916 3.916 0 00-1.162-2.781 3.882 3.882 0 00-2.786-1.129 4.016 4.016 0 00-2.858 1.106 4.05 4.05 0 00-1.257 2.804h8.063zm9.759-4.165a5.139 5.139 0 011.977-1.847 5.115 5.115 0 012.638-.584c3.772 0 6.65 3.153 6.65 8.12 0 4.967-2.878 8.155-6.65 8.155a5.125 5.125 0 01-4.615-2.431v7.116h-3.422v-20.608h3.422v2.079zm7.694 5.689c0-3.259-1.439-5.284-3.834-5.284-2.246 0-4.001 1.761-4.001 5.284 0 3.522 1.755 5.354 4.001 5.354 2.395.035 3.834-2.052 3.834-5.354z"/><path d="M63.221 149.836c5.922 0 10.967 3.919 10.967 11.722 0 7.803-5.045 11.686-10.967 11.686-5.921 0-10.975-3.883-10.975-11.686s5.045-11.722 10.975-11.722zm0 17.261c1.887 0 3.334-1.409 3.334-5.539s-1.447-5.575-3.334-5.575c-1.886 0-3.333 1.445-3.333 5.575s1.438 5.539 3.333 5.539zm12.787-7.89v-.687c.22-8.129 2.632-14.901 12.282-15.852l6.484-.617v6.781l-7.966.881c-2.93.37-5.264 1.488-5.528 5.663 1.264-2.528 4.045-3.347 6.528-3.347 4.851 0 9.22 3.523 9.22 10.278 0 7.274-5.483 10.902-10.703 10.902-5.606.035-10.317-4.121-10.317-14.002zm13.484 3.135c0-3.673-1.561-4.747-3.228-4.747-1.667 0-2.957 1.119-2.957 4.747 0 3.267 1.474 4.755 3.036 4.755 1.561 0 3.15-1.285 3.15-4.755zm8.774 4.342h.666c1.369 0 2.703-1.41 3.036-8.754l.377-7.433h17.854v22.21h-7.405v-16.186h-3.632l-.333 5.204c-.413 6.28-2.746 10.982-9.16 10.982h-1.403v-6.023zm35.533-11.608a3.052 3.052 0 00-2.288.709 3.07 3.07 0 00-1.081 2.145h-6.378c.333-4.219 3.676-8.226 10.265-8.226 5.711 0 9.782 2.396 9.712 9.828v4.254a77.699 77.699 0 00.368 8.921h-6.896v-2.888c-1.482 2.439-3.956 3.425-6.773 3.425-3.895 0-7.115-2.686-7.115-6.649 0-5.16 4.773-7.344 13.16-7.926v-.616c-.009-2.484-1.377-2.977-2.974-2.977zm-2.781 10.568c0 .951.711 2.026 2.448 2.026 1.93 0 3.562-.881 3.562-4.298v-.66c-3.931.29-6.01 1.039-6.01 2.976v-.044zm28.66-.246a21.29 21.29 0 01-4.965.581c-4.448 0-7.151-2.316-7.151-7.266v-8.216h7.414v6.931c0 2.518.772 2.932 2.886 2.932a6.37 6.37 0 001.816-.246v-9.617h7.414v22.21h-7.414v-7.309zm11.806-14.901h7.414v7.847h5.816v-7.847h7.423v22.21h-7.414v-8.34h-5.816v8.34h-7.414l-.009-22.21zm25.09 0h7.405v6.482h2.632c6.22 0 8.852 2.395 8.852 7.758 0 5.989-2.334 7.97-8.405 7.97h-10.484v-22.21zm9.817 16.636c1.518 0 2.483-.494 2.483-2.396 0-1.691-.965-2.184-2.447-2.184h-2.448v4.58h2.412zm11.563-16.636h7.405v22.21h-7.405v-22.21zm11.858 0h6.852v12.329l6.861-12.329h6.852v22.21h-6.852v-12.1l-6.861 12.1h-6.852v-22.21zm3.115-7.724h4.387c.184.987 1.114 1.489 2.781 1.489s2.632-.502 2.781-1.489h4.386c-.298 3.056-2.632 5.161-7.185 5.161-4.553 0-6.931-2.105-7.15-5.161z"/></g><defs><clipPath id="clip0"><path fill="#fff" d="M0 0h300v211.765H0z"/></clipPath></defs></svg>