<svg width="100" height="70" viewBox="0 0 100 70" fill="none" xmlns="http://www.w3.org/2000/svg"><g clip-path="url(#clip0)"><path fill-rule="evenodd" clip-rule="evenodd" d="M82.81 27.286h.015a17.154 17.154 0 0110.832 3.777 17.016 17.016 0 015.995 9.743 16.957 16.957 0 01-1.541 11.322 17.074 17.074 0 01-8.384 7.803 14.771 14.771 0 01-4.776.937c-.699 0-1.202-.105-1.31-.344-.16-.346.395-.68.898-.928 3.617-1.786 4.335-2.271 5.4-2.99.255-.172.529-.357.867-.576 3.717-2.347 6.284-7.092 6.284-11.706a14.147 14.147 0 00-4.2-10.006 14.278 14.278 0 00-10.077-4.124c-.745 0-1.489.058-2.225.172a1.469 1.469 0 01-1.559-.842 1.45 1.45 0 01-.129-.614v-.172a13.974 13.974 0 00-1.897-6.944 14.054 14.054 0 00-5.107-5.093 14.136 14.136 0 00-13.975-.108 1.468 1.468 0 01-1.796-.283 1.453 1.453 0 01-.321-.561 18.242 18.242 0 00-6.609-9.265A18.38 18.38 0 0038.36 2.911c-10.033 0-18.221 8.099-18.221 18.049.002.7.045 1.4.128 2.096a1.448 1.448 0 01-.79 1.467c-.178.09-.371.142-.57.154a17.076 17.076 0 00-11.343 5.298 16.924 16.924 0 00-4.638 11.587 16.552 16.552 0 001.848 7.685c.991 1.796 2.96 4.495 6.69 7.115a39.989 39.989 0 005.85 3.242c.783.359 1.082.641.962.912-.299.678-3.808.22-5.785-.582a19.761 19.761 0 01-9.092-7.269A19.624 19.624 0 010 41.562a19.839 19.839 0 014.94-13.017 20.009 20.009 0 0112.3-6.61c-.027-.329-.027-.655-.027-.975C17.213 9.403 26.7 0 38.36 0a21.206 21.206 0 0111.896 3.63 21.059 21.059 0 017.783 9.662 17.237 17.237 0 016.79-1.403c8.791 0 16.201 6.765 16.938 15.429.348-.032.7-.032 1.044-.032zm-62.103 41.04v-2.244h.538l1.71 2.244h1.317l-2.097-2.646 1.95-2.492H22.81l-1.462 1.997h-.64v-1.997h-1.152v5.138h1.152zm6.22.125c-1.257 0-2.543-.832-2.543-2.684 0-1.851 1.286-2.695 2.544-2.695 1.257 0 2.544.84 2.544 2.695s-1.287 2.684-2.544 2.684zm1.364-2.684c0-1.184-.644-1.767-1.363-1.767-.72 0-1.363.582-1.363 1.767s.643 1.747 1.363 1.747 1.363-.559 1.363-1.747zm3.327.373h2.305v2.186h1.14v-5.138h-1.14v2.052h-2.305v-2.052h-1.143v5.138h1.143V66.14zm9.033 3.4v-1.214h-3.773v1.214h-1.035v-2.102h.292c.585 0 .878-.745.96-2.62l.075-1.633h3.764v4.25h.77v2.102l-1.053.003zm-2.486-5.455l-.047.873c-.079 1.357-.27 2.09-.673 2.483h2.34v-3.356h-1.62zm7.981.678v3.563h1.143v-5.138h-1.143l-2.456 3.58v-3.58h-1.144v5.138h1.144l2.456-3.563zm7.596 4.777h-1.038v-1.214h-4.127v-5.138h1.138v4.241h2.111v-4.241h1.144v4.241h.769l.003 2.11zm4.454-4.777v3.563h1.143v-5.138h-1.143l-2.457 3.58v-3.58h-1.143v5.138h1.143l2.457-3.563zm4.588 3.688c-1.258 0-2.545-.832-2.545-2.684 0-1.851 1.287-2.695 2.545-2.695 1.257 0 2.544.84 2.544 2.695s-1.284 2.684-2.544 2.684zm1.362-2.684c0-1.184-.643-1.767-1.362-1.767-.72 0-1.363.582-1.363 1.767s.643 1.747 1.363 1.747c.719 0 1.362-.559 1.362-1.747zm3.315.373h2.301v2.186h1.144v-5.138h-1.144v2.052h-2.301v-2.052h-1.144v5.138h1.144V66.14zm6.996 1.365c.585 0 1.065-.239 1.266-.716h1.123a2.33 2.33 0 01-.883 1.231 2.346 2.346 0 01-1.456.431c-1.661 0-2.612-1.26-2.612-2.733 0-1.546 1.068-2.646 2.536-2.646 1.582 0 2.57 1.28 2.477 3.01h-3.852c.076.955.749 1.423 1.401 1.423zm1.287-2.253a1.29 1.29 0 00-.814-1.198 1.308 1.308 0 00-.502-.095 1.346 1.346 0 00-.953.366 1.334 1.334 0 00-.419.927h2.688zm3.912-1.987c-.27.14-.498.352-.659.61v-.687h-1.14V70h1.14v-2.352a1.708 1.708 0 001.539.803c1.257 0 2.216-1.053 2.216-2.695s-.959-2.684-2.216-2.684a1.717 1.717 0 00-.88.193zm.628.744c.798 0 1.278.67 1.278 1.747 0 1.091-.48 1.781-1.278 1.77-.749 0-1.334-.606-1.334-1.77 0-1.165.585-1.747 1.334-1.747zm-59.21-14.48c1.973 0 3.655 1.296 3.655 3.875 0 2.58-1.682 3.863-3.656 3.863-1.974 0-3.658-1.284-3.658-3.863 0-2.58 1.681-3.875 3.658-3.875zm0 5.706c.628 0 1.11-.466 1.11-1.831s-.482-1.843-1.11-1.843c-.63 0-1.112.478-1.112 1.843s.48 1.831 1.111 1.831zm4.261-2.835v.227c0 3.266 1.57 4.64 3.44 4.628 1.74 0 3.567-1.199 3.567-3.604 0-2.232-1.456-3.397-3.073-3.397-.828 0-1.755.27-2.176 1.106.087-1.38.865-1.75 1.842-1.871l2.655-.292v-2.241l-2.16.204c-3.217.314-4.022 2.553-4.095 5.24zm3.419-.306c.555 0 1.076.355 1.076 1.569 0 1.147-.53 1.572-1.05 1.572s-1.012-.492-1.012-1.572c0-1.2.43-1.569.986-1.569zm3.999 3.004h.222c.456 0 .9-.466 1.012-2.893l.126-2.457h5.95v7.341h-2.467v-5.35h-1.211l-.111 1.72c-.138 2.076-.916 3.63-3.053 3.63h-.468V55.1zm11.44-3.797c.132-.04.27-.054.406-.04.532 0 .988.163.991.984v.204c-2.796.192-4.386.914-4.386 2.62 0 1.31 1.073 2.198 2.371 2.198.94 0 1.764-.326 2.258-1.133v.955h2.299a25.493 25.493 0 01-.123-2.949v-1.406c.023-2.457-1.334-3.248-3.238-3.248-2.196 0-3.31 1.324-3.421 2.719h2.126a1.012 1.012 0 01.718-.904zm.295 4.123c-.575 0-.813-.35-.816-.663.006-.634.698-.88 2.003-.976v.219c0 1.13-.544 1.42-1.187 1.42zm8.736-.75a7.15 7.15 0 01-1.655.191c-1.483 0-2.384-.765-2.384-2.401v-2.716h2.471v2.29c0 .833.258.97.962.97a2.14 2.14 0 00.606-.082v-3.178h2.47v7.341h-2.47v-2.416zm6.407-4.926H57.16l.002 7.341h2.472v-2.756h1.938v2.756h2.472v-7.341H61.57v2.593h-1.94v-2.593zm5.893 0h2.469v2.142h.877c2.073 0 2.95.792 2.95 2.565 0 1.98-.777 2.634-2.8 2.634h-3.496v-7.341zm3.273 5.499c.506 0 .828-.163.828-.792 0-.56-.322-.722-.817-.722h-.815v1.514h.804zm3.854-5.5h2.468v7.342h-2.468v-7.341zm6.235 0h-2.284v7.342h2.284l2.287-4v4h2.284v-7.341h-2.284l-2.287 4.075v-4.075zm.216-2.553H77.64c.073 1.01.866 1.706 2.383 1.706 1.518 0 2.296-.695 2.395-1.706h-1.462c-.05.326-.371.492-.927.492-.555 0-.865-.166-.927-.492z" fill="#000"/></g><defs><clipPath id="clip0"><path fill="#000" d="M0 0h100v70H0z"/></clipPath></defs></svg>