<svg width="323" height="225" viewBox="0 0 323 225" fill="none" xmlns="http://www.w3.org/2000/svg"><g clip-path="url(#clip0)"><path fill-rule="evenodd" clip-rule="evenodd" d="M96 2h97c5.523 0 10 4.477 10 10v47H86V12c0-5.523 4.477-10 10-10zm29 59h39v32h-39V61zm41 0v32h37V61h-37zm-41 34h39v33h-39V95zm-2 33V95H86v33h37zm-37 2h37v34H96c-5.523 0-10-4.477-10-10v-24zm39 0h39v34h-39v-34zm41-35v69h27c5.523 0 10-4.477 10-10V95h-37zm-43-34H86v32h37V61zM84 12c0-6.627 5.373-12 12-12h97c6.627 0 12 5.373 12 12v142c0 6.627-5.373 12-12 12H96c-6.627 0-12-5.373-12-12V12z" fill="#000"/><path d="M0 16l55.5 77.5L180 33l128.5 191m0 0l2-19.5m-2 19.5l-20-4" stroke="#000" stroke-width="2" stroke-linecap="round" stroke-linejoin="round"/><path d="M0 16l55.5 77.5L180 33l128.5 191m0 0l2-19.5m-2 19.5l-20-4" stroke="url(#paint0_linear)" stroke-width="2" stroke-linecap="round" stroke-linejoin="round"/><circle cx="254" cy="100" r="69" fill="#fff"/><path fill-rule="evenodd" clip-rule="evenodd" d="M321 100c0 37.003-29.997 67-67 67s-67-29.997-67-67 29.997-67 67-67 67 29.997 67 67zm2 0c0 38.108-30.892 69-69 69-38.108 0-69-30.892-69-69 0-38.108 30.892-69 69-69 38.108 0 69 30.892 69 69zm-61.5-33H238v41h23.5c11.322 0 20.5-9.178 20.5-20.5S272.822 67 261.5 67zM238 65h-2v43h-11v2h11v8h-11v2h11v21.091h2V120h30v-2h-30v-8h23.5c12.426 0 22.5-10.074 22.5-22.5S273.926 65 261.5 65H238z" fill="#000"/></g><defs><linearGradient id="paint0_linear" x1="-2.05" y1="30.407" x2="191.268" y2="308.929" gradientUnits="userSpaceOnUse"><stop stop-color="#00ADEB"/><stop offset="1" stop-color="#DF61FE"/></linearGradient><clipPath id="clip0"><path fill="#fff" d="M0 0h323v225H0z"/></clipPath></defs></svg>