<svg width="91" height="40" viewBox="0 0 91 40" fill="none" xmlns="http://www.w3.org/2000/svg"><path d="M57.543 13.296c-1.312.404-2.16.948-3.183 1.975-1.04 1.073-1.647 2.224-1.983 3.717-.672 3.08.16 6.05 2.223 7.979 1.743 1.633 3.183 2.115 5.997 2.022 1.68-.062 1.968-.109 2.943-.544 1.216-.56 2.655-1.805 3.263-2.816.4-.653 1.007-2.333 1.007-2.768 0-.171-.352-.218-1.711-.218h-1.727l-.304.731c-.704 1.664-1.983 2.442-4.014 2.442-1.424 0-2.016-.218-2.927-1.058-.736-.668-1.12-1.43-1.344-2.721-.431-2.427.528-4.589 2.431-5.553.72-.373 2.863-.389 3.695-.031a4.035 4.035 0 012.079 2.069l.384.855h2.008c.837.002 1.228.003 1.354-.174.11-.156.017-.449-.16-.998l-.068-.212c-.415-1.291-.96-2.131-1.967-3.08-1.551-1.415-2.974-1.913-5.485-1.898-1.088 0-1.888.094-2.511.28z" fill="#A8B1BC"/><path fill-rule="evenodd" clip-rule="evenodd" d="M2.59 13.482C.849 14.322 0 15.706 0 17.744c0 1.462.4 2.488 1.343 3.39.896.887 1.76 1.245 3.151 1.322 1.743.094 2.687-.233 3.838-1.353 1.04-1.01 1.424-1.928 1.424-3.36 0-1.306-.368-2.254-1.248-3.203C7.468 13.404 6.51 13 4.862 13c-1.12 0-1.424.062-2.271.482zm3.695 3.095c.496.545.576 1.307.192 2.022-.336.638-.847.933-1.615.933-1.296 0-2.24-1.275-1.775-2.364.607-1.384 2.175-1.68 3.198-.59zm6.349 12.319V13.124l4.047.063c3.646.062 4.126.109 4.99.42 3.342 1.182 5.405 3.997 5.405 7.403 0 3.453-2.079 6.252-5.486 7.403-.943.327-1.39.358-4.99.42l-3.966.063zm10.716-9.597c-.48-1.26-1.712-2.442-2.895-2.784-.544-.155-1.471-.249-2.575-.249h-1.727v9.519l2.047-.062c1.823-.047 2.111-.094 2.847-.467 2.159-1.089 3.166-3.702 2.303-5.957zm9.612-5.801c-.688 1.866-5.294 15.056-5.294 15.196 0 .124.48.17 1.791.14l1.775-.047.56-1.602.544-1.587h6.62l1.088 3.267h1.808c.991 0 1.807-.032 1.807-.063 0-.077-5.182-14.947-5.358-15.382-.096-.233-.384-.264-2.655-.264-2.495 0-2.559 0-2.687.342zm3.95 5.988l1.12 3.313h-2.4c-1.855 0-2.383-.047-2.319-.203l1.168-3.406c.608-1.773 1.135-3.173 1.2-3.11.063.062.607 1.602 1.23 3.406z" fill="#A8B1BC"/><path d="M46.06 28.864V13.155h3.358v15.71H46.06zm24.31 0h3.517v-6.532h6.877v6.532h3.519V13.155h-3.519v6.377h-6.876v-6.377h-3.519v15.71zm17.271 0V13.155H91v15.71h-3.359z" fill="#A8B1BC"/></svg>