<svg width="72" height="32" viewBox="0 0 72 32" fill="none" xmlns="http://www.w3.org/2000/svg"><path d="M45.528 10.636c-1.037.324-1.708.76-2.518 1.58-.822.86-1.303 1.78-1.569 2.974-.531 2.464.127 4.84 1.759 6.383 1.38 1.307 2.518 1.693 4.745 1.618 1.329-.05 1.557-.087 2.328-.435.962-.448 2.101-1.444 2.582-2.253.316-.522.797-1.866.797-2.214 0-.137-.278-.175-1.354-.175h-1.367l-.24.585c-.557 1.332-1.569 1.954-3.176 1.954-1.126 0-1.594-.174-2.316-.846-.582-.535-.886-1.145-1.063-2.178-.341-1.94.418-3.67 1.924-4.442.57-.299 2.265-.311 2.923-.025a3.21 3.21 0 011.645 1.655l.303.684h1.589c.663.002.972.003 1.072-.139.087-.124.013-.359-.127-.798l-.053-.17c-.33-1.033-.76-1.705-1.557-2.464-1.227-1.132-2.353-1.53-4.34-1.518-.86 0-1.493.075-1.987.224z" fill="#000"/><path fill-rule="evenodd" clip-rule="evenodd" d="M2.05 10.786C.67 11.457 0 12.565 0 14.195c0 1.17.316 1.99 1.063 2.712.709.71 1.392.996 2.493 1.058 1.379.075 2.126-.186 3.037-1.082.822-.81 1.126-1.543 1.126-2.688 0-1.045-.291-1.804-.987-2.563-.823-.909-1.582-1.232-2.885-1.232-.886 0-1.126.05-1.797.386zm2.923 2.476c.392.435.455 1.045.152 1.617-.266.51-.67.747-1.278.747-1.025 0-1.772-1.02-1.405-1.891.481-1.108 1.721-1.344 2.53-.473zm5.023 9.854V10.5l3.202.05c2.885.05 3.265.087 3.948.336 2.645.946 4.277 3.198 4.277 5.923 0 2.762-1.645 5.002-4.34 5.923-.747.261-1.101.286-3.948.336l-3.139.05zm8.478-7.677c-.38-1.008-1.353-1.953-2.29-2.227-.43-.124-1.164-.2-2.037-.2H12.78v7.616l1.62-.05c1.442-.037 1.67-.075 2.252-.373 1.709-.871 2.506-2.962 1.822-4.766zm7.606-4.641c-.545 1.493-4.189 12.045-4.189 12.157 0 .1.38.137 1.417.112l1.405-.038.443-1.281.43-1.27h5.239l.86 2.613h1.43c.785 0 1.43-.024 1.43-.05 0-.061-4.1-11.957-4.24-12.305-.075-.187-.303-.212-2.1-.212-1.974 0-2.024 0-2.125.274zm3.125 4.79l.886 2.65h-1.898c-1.468 0-1.886-.037-1.835-.16l.924-2.726c.48-1.418.898-2.538.949-2.488.05.05.48 1.281.974 2.724z" fill="#000"/><path d="M36.443 23.091V10.524H39.1v12.568h-2.657zm19.234 0h2.784v-5.225h5.44v5.226h2.784V10.524h-2.783v5.102H58.46v-5.102h-2.784v12.568zm13.666 0V10.524H72v12.568h-2.657z" fill="#000"/></svg>