<svg width="109" height="40" viewBox="0 0 109 40" fill="none" xmlns="http://www.w3.org/2000/svg"><g clip-path="url(#clip0)" fill="#fff"><path fill-rule="evenodd" clip-rule="evenodd" d="M0 25.946v11.577L24.825 14.36H12.411L0 25.946z"/><path d="M11 14.359H0v10.095L11 14.36zm48.491 5.028l-3.24 13.104h5.725l3.238-13.104h-5.723zm-13.89-.002L38.236 32.49h3.786l1.222-2.185h5.257l.392 2.185h5.589l-2.376-13.104H45.6zm.813 7.596h-1.313l2.117-3.78.687 3.78h-1.49zm39.224-7.594l-3.232 13.104h5.724l3.234-13.104h-5.726zm-2.558 0h-5.867l-4.91 4.287 1.07-4.287h-5.487l-3.232 13.104h5.47l1.118-4.524 2.925 4.524h6.621l-4.904-6.863 7.196-6.24zm-49.627.006l-1.48-.005h-7.164l-3.232 13.099h7.113l2.815.004c3.962 0 7.862-2.982 7.862-7.552 0-5.377-5.914-5.546-5.914-5.546zm.29 5.949s-.371 4.256-3.957 4.256h-2.03l1.788-7.067h1.841c.659.005 2.566.177 2.359 2.81zm71.293-5.957l-1.91 7.716-2.543-7.716h-6.367l-3.234 13.106h3.959l1.928-7.784 2.552 7.784h6.339L109 19.385h-3.964z"/></g><defs><clipPath id="clip0"><path fill="#fff" d="M0 0h109v40H0z"/></clipPath></defs></svg>