<svg width="480" height="320" viewBox="0 0 480 320" fill="none" xmlns="http://www.w3.org/2000/svg"><path fill-rule="evenodd" clip-rule="evenodd" d="M180 216H24a6 6 0 00-6 6v54a6 6 0 006 6h156a6 6 0 006-6v-54a6 6 0 00-6-6zm-156-2a8 8 0 00-8 8v54a8 8 0 008 8h156a8 8 0 008-8v-54a8 8 0 00-8-8H24zm5 56a1 1 0 011-1h129a1 1 0 010 2H30a1 1 0 01-1-1zm139-1a1 1 0 000 2h6a1 1 0 000-2h-6z" fill="#000"/><mask id="a" fill="#fff"><path fill-rule="evenodd" clip-rule="evenodd" d="M261.042 18c17.087 0 31.289 12.343 34.165 28.593a20.834 20.834 0 015.929-.855c11.497 0 20.817 9.314 20.817 20.803 0 .797-.044 1.583-.132 2.356C333.087 69.623 342 78.984 342 90.426 342 102.34 332.334 112 320.411 112a22.19 22.19 0 01-1.554-.055l.012.055H209.383v-.009c-.256.006-.513.009-.771.009C191.153 112 177 97.857 177 80.41c0-15.137 10.654-27.787 24.877-30.872 1.535-11.71 11.56-20.751 23.698-20.751 3.115 0 6.091.595 8.82 1.679C240.759 22.847 250.334 18 261.042 18z"/></mask><path d="M295.207 46.593l-1.969.349a2 2 0 002.537 1.57l-.568-1.919zm26.614 22.304l-1.987-.224a2.002 2.002 0 001.859 2.22l.128-1.996zm-2.964 43.048l.142-1.995a1.998 1.998 0 00-2.095 2.429l1.953-.434zm.012.055v2c.607 0 1.181-.275 1.56-.749.38-.473.524-1.093.392-1.685l-1.952.434zm-109.486 0h-2a2 2 0 002 2v-2zm0-.009h2a2 2 0 00-2.048-2l.048 2zm-7.506-62.453l.424 1.955a2 2 0 001.559-1.695l-1.983-.26zm32.518-19.072l-.738 1.858a2 2 0 002.273-.576l-1.535-1.282zm62.781 15.779C294.134 29.055 279.115 16 261.042 16v4c16.101 0 29.486 11.631 32.196 26.942l3.938-.697zm3.96-2.507a22.83 22.83 0 00-6.497.938l1.136 3.835a18.837 18.837 0 015.361-.773v-4zm22.817 22.803c0-12.595-10.217-22.803-22.817-22.803v4c10.394 0 18.817 8.42 18.817 18.803h4zm-.144 2.58c.095-.847.144-1.708.144-2.58h-4c0 .722-.04 1.433-.119 2.132l3.975.449zm-2.116 1.772C331.914 71.552 340 80.047 340 90.426h4c0-12.504-9.74-22.731-22.05-23.524l-.257 3.991zM340 90.426c0 10.809-8.769 19.574-19.589 19.574v4C333.438 114 344 103.447 344 90.426h-4zM320.411 110c-.475 0-.946-.017-1.412-.05l-.284 3.99c.56.039 1.126.06 1.696.06v-4zm.41 1.566l-.012-.056-3.905.869.013.055 3.904-.868zM209.383 114h109.486v-4H209.383v4zm-2-2.009V112h4v-.009h-4zm1.229 2.009c.274 0 .547-.003.819-.01l-.096-3.999c-.24.006-.481.009-.723.009v4zM175 80.41c0 18.553 15.05 33.59 33.612 33.59v-4C192.256 110 179 96.75 179 80.41h-4zm26.453-32.826C186.33 50.864 175 64.31 175 80.41h4c0-14.175 9.977-26.028 23.301-28.917l-.848-3.91zm24.122-20.797c-13.154 0-24.017 9.797-25.681 22.491l3.966.52c1.406-10.727 10.593-19.011 21.715-19.011v-4zm9.558 1.82a25.853 25.853 0 00-9.558-1.82v4c2.858 0 5.584.546 8.082 1.538l1.476-3.718zM261.042 16c-11.325 0-21.454 5.13-28.182 13.183l3.07 2.565c6-7.183 15.022-11.748 25.112-11.748v-4z" fill="url(#paint0_linear)" mask="url(#a)"/><path d="M309 285h10m136 0h-15m-121 0v-14m0 14h18m-18-14c-3.796 0-10-1.349-10-14 0-13.916 6.204-19.735 10-21 3.796 1.265 10 7.717 10 21 0 12.651-6.204 14-10 14zm18 14v-96h22m-22 96h9m13-96v-9h59v9m-59 0h59m0 0h22v96m0 0h-9m-85 0v-14m0 14h17m68 0v-14m0 14h-17m-68-72v-15h17m-17 15h85m-85 0v14m85-14v-15h-17m17 15v14m-85 0h85m-85 0v14m85-14v14m-85 0h85m-85 0v15m85-15v15m-85 0h85m-85 0v15m85-15v15m-85 0h85m-68-73v87m0-87h17m-17 87h17m0-87v87m0-87h17m-17 87h17m0-87v87m0-87h17m-17 87h17m0-87v87" stroke="#000" stroke-width="2" stroke-linecap="round" stroke-linejoin="round"/><path fill-rule="evenodd" clip-rule="evenodd" d="M387.903 162.295C386.146 128.486 360.495 92 315 92v-1c46.161 0 72.139 37.05 73.904 71.283a3.796 3.796 0 11-1.001.012z" fill="url(#paint1_linear)"/><path fill-rule="evenodd" clip-rule="evenodd" d="M207.028 95.19a3.797 3.797 0 10-3.769-4.248c-37.599.971-62.731 16.489-78.551 37.39C108.381 149.904 102 177.169 102 200h1c0-22.669 6.34-49.707 22.505-71.064 15.63-20.65 40.472-36.027 77.767-36.994a3.796 3.796 0 003.756 3.248z" fill="url(#paint2_linear)"/><path d="M28.305 307.799a4.5 4.5 0 01.304-1.641 4.5 4.5 0 01.85-1.388 4 4 0 011.348-.956 4.206 4.206 0 011.728-.357 4.18 4.18 0 011.729.357 3.9 3.9 0 011.336.95c.359.394.64.855.843 1.382.204.524.305 1.075.305 1.653 0 .57-.103 1.119-.31 1.646a4.449 4.449 0 01-.85 1.389 3.997 3.997 0 01-1.348.955 4.205 4.205 0 01-1.728.357 4.24 4.24 0 01-1.729-.351 3.947 3.947 0 01-1.336-.955 4.57 4.57 0 01-1.143-3.041zm.644 0c0 .687.153 1.32.457 1.898a3.562 3.562 0 001.29 1.371c.55.34 1.163.51 1.84.51.675 0 1.286-.168 1.833-.504.55-.34.977-.797 1.278-1.371a3.998 3.998 0 00.456-1.904c0-.512-.091-1-.275-1.465a3.646 3.646 0 00-.744-1.201 3.402 3.402 0 00-1.143-.809 3.406 3.406 0 00-1.43-.304c-.675 0-1.286.169-1.833.509a3.492 3.492 0 00-1.278 1.366 4.04 4.04 0 00-.45 1.904zm9.51.984c0-.262.002-.486.006-.674.004-.187.013-.402.03-.644.015-.242.036-.451.064-.627.03-.176.074-.367.129-.574.054-.207.119-.385.193-.534a3.44 3.44 0 01.275-.462 1.83 1.83 0 01.375-.399 2.69 2.69 0 01.492-.31c.188-.094.395-.17.621-.229l3.481-.873.17.527-3.363.885c-.645.172-1.108.44-1.389.803-.277.363-.445.904-.504 1.623.578-.961 1.461-1.441 2.648-1.441a2.71 2.71 0 011.471.427c.453.285.81.668 1.072 1.149.266.48.399.996.399 1.547 0 .566-.133 1.091-.398 1.576-.262.48-.631.867-1.108 1.16a3.002 3.002 0 01-1.588.433c-.898 0-1.637-.308-2.215-.925-.574-.617-.861-1.43-.861-2.438zm1.33-1.617c-.46.5-.691 1.111-.691 1.834 0 .723.236 1.336.709 1.84.476.5 1.06.75 1.752.75.699 0 1.279-.25 1.74-.75.46-.504.691-1.117.691-1.84 0-.723-.236-1.334-.709-1.834a2.3 2.3 0 00-1.746-.756c-.7 0-1.281.252-1.746.756zM45.367 312l.111-.539c.192.055.346.082.463.082.133 0 .244-.01.334-.029a.823.823 0 00.3-.159.934.934 0 00.263-.345c.07-.149.139-.354.205-.615a6.28 6.28 0 00.164-.95c.043-.375.078-.834.105-1.377a39.87 39.87 0 00.047-1.863v-.322h4.166V312h-.591v-5.59h-3.012v.164c0 .715-.018 1.35-.053 1.905-.031.55-.074 1.019-.129 1.406-.05.386-.12.717-.21.99-.09.27-.182.484-.276.645a1.104 1.104 0 01-.352.369c-.14.086-.275.14-.404.164a2.546 2.546 0 01-1.13-.053zm7.887-1.799c0-.625.244-1.113.732-1.465.492-.351 1.141-.527 1.946-.527.699 0 1.375.088 2.027.264v-.264c0-.609-.178-1.074-.533-1.395-.352-.32-.846-.48-1.483-.48-.633 0-1.271.164-1.916.492l-.217-.515c.762-.352 1.485-.528 2.168-.528.84 0 1.485.225 1.934.674.418.418.627.994.627 1.729V312h-.58v-1.02a2.943 2.943 0 01-.95.838c-.39.219-.853.328-1.388.328-.43 0-.82-.07-1.172-.21a1.956 1.956 0 01-.861-.663 1.75 1.75 0 01-.334-1.072zm.639-.012c0 .438.16.782.48 1.032.32.246.748.369 1.283.369.637 0 1.182-.176 1.635-.528.453-.355.68-.806.68-1.353v-.697a8.171 8.171 0 00-2.074-.276c-.637 0-1.131.131-1.483.393a1.258 1.258 0 00-.521 1.06zm6.468-2.015v-2.291h.592v2.303c0 .375.123.673.37.896.245.219.581.328 1.007.328a4.06 4.06 0 001.172-.187 3.657 3.657 0 001.049-.487v-2.853h.586V312h-.586v-2.678c-.282.16-.627.305-1.037.434-.41.129-.797.193-1.16.193-.618 0-1.104-.152-1.46-.457-.355-.304-.533-.744-.533-1.318zM67.363 312v-6.117h.592v2.719h4.067v-2.719h.585V312h-.585v-2.865h-4.067V312h-.592zm7.477 0v-6.117h.592v2.349h1.822c.324 0 .625.036.902.106.278.07.524.178.738.322.22.141.39.328.51.563.125.234.188.504.188.808 0 .594-.203 1.071-.61 1.43-.406.359-.945.539-1.617.539H74.84zm.592-.527h1.834c.52 0 .931-.125 1.236-.375.305-.25.457-.598.457-1.043 0-.41-.156-.729-.469-.955-.308-.227-.732-.34-1.271-.34h-1.787v2.713zm5.384.527v-6.117h.592V312h-.592zm2.825 0v-6.117h.591v5.338l4.149-5.338h.592V312h-.592v-5.338L84.232 312h-.591zm1.048-8.496l.493-.106c.156.582.53.873 1.125.873.597 0 .974-.291 1.13-.873l.493.106c-.075.398-.26.728-.557.99a1.557 1.557 0 01-1.066.393c-.414 0-.77-.131-1.067-.393a1.711 1.711 0 01-.55-.99zM94.797 312v-6.117h.592v3.92l3.79-3.92h.78l-2.678 2.707 2.76 3.41h-.744l-2.42-2.988-1.488 1.5V312h-.592zm6.252-3.059c0-.425.08-.834.24-1.224.16-.391.377-.731.65-1.02a2.989 2.989 0 011.002-.697 3.06 3.06 0 011.26-.264c.59 0 1.125.147 1.606.44.484.289.859.679 1.125 1.172.269.488.404 1.019.404 1.593 0 .571-.135 1.1-.404 1.588-.27.489-.649.881-1.137 1.178a3.064 3.064 0 01-1.617.439c-.442 0-.858-.085-1.248-.257a3.03 3.03 0 01-.996-.692 3.267 3.267 0 01-.651-1.019 3.336 3.336 0 01-.234-1.237zm.633 0c0 .739.242 1.366.726 1.881a2.382 2.382 0 001.793.768c.445 0 .86-.117 1.242-.352.383-.238.688-.56.914-.967.227-.406.34-.849.34-1.33 0-.734-.246-1.359-.738-1.875-.492-.519-1.086-.779-1.781-.779-.453 0-.871.119-1.254.358a2.508 2.508 0 00-.908.966c-.223.407-.334.85-.334 1.33zm7.459 3.059v-6.117h.591v2.719h4.067v-2.719h.586V312h-.586v-2.865h-4.067V312h-.591zm6.533-.527h.803c.597-.989.896-2.42.896-4.295v-1.295h4.107v5.59h.985l-.123 2.256h-.481V312h-5.578l-.117 1.729h-.492v-2.256zm1.447 0h3.774v-5.063h-2.954v1.102c0 .8-.076 1.558-.228 2.273-.149.711-.346 1.274-.592 1.688zm6.82.527v-6.117h.592v5.338l4.149-5.338h.591V312h-.591v-5.338L124.533 312h-.592zm7.559 0v-6.117h.592v5.59H136v-5.59h.592v5.59h.984l-.123 2.256h-.48V312H131.5zm7.547 0v-6.117h.592v5.338l4.148-5.338h.592V312h-.592v-5.338L139.639 312h-.592zm7.142-3.059c0-.425.081-.834.241-1.224.16-.391.377-.731.65-1.02a2.989 2.989 0 011.002-.697 3.057 3.057 0 011.26-.264c.59 0 1.125.147 1.605.44.485.289.86.679 1.125 1.172.27.488.405 1.019.405 1.593 0 .571-.135 1.1-.405 1.588a3.123 3.123 0 01-1.136 1.178 3.067 3.067 0 01-1.618.439c-.441 0-.857-.085-1.248-.257a3.05 3.05 0 01-.996-.692 3.283 3.283 0 01-.65-1.019 3.337 3.337 0 01-.235-1.237zm.633 0c0 .739.242 1.366.727 1.881a2.382 2.382 0 001.793.768c.445 0 .859-.117 1.242-.352.383-.238.687-.56.914-.967.227-.406.34-.849.34-1.33 0-.734-.246-1.359-.738-1.875-.493-.519-1.086-.779-1.782-.779-.453 0-.871.119-1.254.358a2.522 2.522 0 00-.908.966c-.222.407-.334.85-.334 1.33zm7.459 3.059v-6.117h.592v2.719h4.066v-2.719h.586V312h-.586v-2.865h-4.066V312h-.592zm7.061-3.07c0-.438.074-.852.222-1.242.149-.395.35-.735.604-1.02.254-.285.561-.512.92-.68a2.716 2.716 0 011.154-.252c.559 0 1.053.143 1.483.428.433.281.763.664.99 1.148a3.811 3.811 0 01.328 1.87h-5.08c.051.734.307 1.32.767 1.757a2.32 2.32 0 001.635.651c.805 0 1.504-.319 2.098-.955l.41.357a3.928 3.928 0 01-1.113.856c-.395.199-.867.298-1.418.298-.399 0-.781-.078-1.149-.234a3.04 3.04 0 01-.955-.644 3.116 3.116 0 01-.656-1.02 3.565 3.565 0 01-.24-1.318zm.621-.276h4.453a3.136 3.136 0 00-.182-.89 2.64 2.64 0 00-.416-.756 1.799 1.799 0 00-.679-.533c-.274-.133-.58-.2-.92-.2-.602 0-1.115.227-1.541.68-.422.453-.66 1.02-.715 1.699zm6.803 5.268v-8.039h.591v1.365c.661-1.008 1.5-1.512 2.52-1.512.371 0 .732.075 1.084.223.355.148.674.355.955.621.281.266.508.604.68 1.014.172.41.258.859.258 1.347 0 .481-.086.926-.258 1.336-.172.411-.399.75-.68 1.02-.281.265-.6.474-.955.627a2.77 2.77 0 01-1.084.222c-1.039 0-1.879-.488-2.52-1.464v3.24h-.591zm.556-4.969c0 .504.119.961.358 1.371.242.406.552.717.931.932a2.41 2.41 0 001.207.322c.688 0 1.258-.236 1.711-.709.457-.473.686-1.115.686-1.928 0-.39-.065-.752-.194-1.084a2.379 2.379 0 00-.521-.837 2.322 2.322 0 00-.768-.528 2.262 2.262 0 00-1.839.006 2.649 2.649 0 00-.803.533 2.545 2.545 0 00-.557.844c-.14.336-.211.695-.211 1.078zM329.559 312v-8.402h.621v7.5l5.461-7.5h.615V312h-.627v-7.5l-5.449 7.5h-.621zm9.052 0v-6.117h.592v2.719h4.067v-2.719h.585V312h-.585v-2.865h-4.067V312h-.592zm6.674 0l2.596-3.469-2.438-2.648h.745l3.503 3.896v-3.896h.586v3.896l3.504-3.896h.744l-2.449 2.648 2.608 3.469h-.721l-2.256-3.047-1.43 1.547v1.5h-.586v-1.5l-1.429-1.559-2.256 3.059h-.721zm10.406-3.07c0-.438.075-.852.223-1.242.148-.395.35-.735.604-1.02.253-.285.56-.512.92-.68a2.716 2.716 0 011.154-.252c.558 0 1.053.143 1.482.428.434.281.764.664.99 1.148a3.796 3.796 0 01.329 1.87h-5.081c.051.734.307 1.32.768 1.757a2.32 2.32 0 001.635.651c.805 0 1.504-.319 2.097-.955l.411.357a3.918 3.918 0 01-1.114.856c-.394.199-.867.298-1.418.298-.398 0-.781-.078-1.148-.234a3.03 3.03 0 01-.955-.644 3.1 3.1 0 01-.656-1.02 3.545 3.545 0 01-.241-1.318zm.621-.276h4.454a3.136 3.136 0 00-.182-.89 2.664 2.664 0 00-.416-.756 1.802 1.802 0 00-.68-.533c-.273-.133-.58-.2-.92-.2-.601 0-1.115.227-1.541.68-.422.453-.66 1.02-.715 1.699zm6.803 3.346v-6.117h.592v2.719h4.066v-2.719h.586V312h-.586v-2.865h-4.066V312h-.592zm7.061-3.07c0-.438.074-.852.222-1.242.149-.395.35-.735.604-1.02.254-.285.56-.512.92-.68a2.716 2.716 0 011.154-.252c.559 0 1.053.143 1.483.428.433.281.763.664.99 1.148a3.811 3.811 0 01.328 1.87h-5.08c.051.734.307 1.32.767 1.757a2.32 2.32 0 001.635.651c.805 0 1.504-.319 2.098-.955l.41.357a3.928 3.928 0 01-1.113.856c-.395.199-.867.298-1.418.298-.399 0-.781-.078-1.149-.234a3.04 3.04 0 01-.955-.644 3.116 3.116 0 01-.656-1.02 3.565 3.565 0 01-.24-1.318zm.621-.276h4.453a3.136 3.136 0 00-.182-.89 2.64 2.64 0 00-.416-.756 1.799 1.799 0 00-.679-.533c-.274-.133-.58-.2-.92-.2-.602 0-1.115.227-1.541.68-.422.453-.66 1.02-.715 1.699zm6.803 5.268v-8.039h.591v1.365c.661-1.008 1.5-1.512 2.52-1.512.371 0 .732.075 1.084.223.355.148.674.355.955.621.281.266.508.604.68 1.014.172.41.258.859.258 1.347 0 .481-.086.926-.258 1.336-.172.411-.399.75-.68 1.02-.281.265-.6.474-.955.627a2.77 2.77 0 01-1.084.222c-1.039 0-1.879-.488-2.52-1.464v3.24h-.591zm.556-4.969c0 .504.119.961.358 1.371.242.406.552.717.931.932a2.41 2.41 0 001.207.322c.688 0 1.258-.236 1.711-.709.457-.473.686-1.115.686-1.928 0-.39-.065-.752-.194-1.084a2.379 2.379 0 00-.521-.837 2.322 2.322 0 00-.768-.528 2.262 2.262 0 00-1.839.006 2.649 2.649 0 00-.803.533 2.545 2.545 0 00-.557.844c-.14.336-.211.695-.211 1.078zm7.365 3.047v-6.117h.592v2.719h4.067v-2.719h.586V312h-.586v-2.865h-4.067V312h-.592zm7.477 0v-6.117h.592v2.349h1.822c.324 0 .625.036.902.106.278.07.524.178.739.322.218.141.388.328.509.563.126.234.188.504.188.808 0 .594-.203 1.071-.609 1.43-.407.359-.946.539-1.618.539h-2.525zm.592-.527h1.834c.519 0 .931-.125 1.236-.375.305-.25.457-.598.457-1.043 0-.41-.156-.729-.469-.955-.308-.227-.732-.34-1.271-.34h-1.787v2.713zm5.385.527v-6.117h.591V312h-.591zm2.824 0v-6.117h.592v5.338l4.148-5.338h.592V312h-.592v-5.338L402.391 312h-.592zm1.049-8.496l.492-.106c.156.582.531.873 1.125.873.597 0 .974-.291 1.131-.873l.492.106c-.074.398-.26.728-.557.99a1.556 1.556 0 01-1.066.393c-.414 0-.77-.131-1.067-.393a1.709 1.709 0 01-.55-.99zM412.955 312v-6.117h.592v5.59h3.908v-5.59h.592v5.59h.984l-.123 2.256h-.48V312h-5.473zm7.131-3.07c0-.438.074-.852.223-1.242.148-.395.349-.735.603-1.02.254-.285.561-.512.92-.68a2.716 2.716 0 011.154-.252c.559 0 1.053.143 1.483.428.433.281.763.664.99 1.148a3.796 3.796 0 01.328 1.87h-5.08c.051.734.307 1.32.768 1.757a2.315 2.315 0 001.634.651c.805 0 1.504-.319 2.098-.955l.41.357a3.928 3.928 0 01-1.113.856c-.395.199-.867.298-1.418.298-.398 0-.781-.078-1.148-.234a3.034 3.034 0 01-.956-.644 3.116 3.116 0 01-.656-1.02 3.565 3.565 0 01-.24-1.318zm.621-.276h4.453a3.135 3.135 0 00-.181-.89 2.667 2.667 0 00-.417-.756 1.799 1.799 0 00-.679-.533c-.274-.133-.58-.2-.92-.2-.602 0-1.115.227-1.541.68-.422.453-.66 1.02-.715 1.699zM427.51 312v-6.117h.592v2.719h4.066v-2.719h.586V312h-.586v-2.865h-4.066V312h-.592zm6.72-5.59v-.527h5.174v.527h-2.291V312h-.586v-5.59h-2.297zm6.651 7.512v-8.039h.592v1.365c.66-1.008 1.5-1.512 2.519-1.512.371 0 .733.075 1.084.223.356.148.674.355.955.621.281.266.508.604.68 1.014.172.41.258.859.258 1.347 0 .481-.086.926-.258 1.336-.172.411-.399.75-.68 1.02a3.253 3.253 0 01-.955.627 2.767 2.767 0 01-1.084.222c-1.039 0-1.879-.488-2.519-1.464v3.24h-.592zm.557-4.969c0 .504.119.961.357 1.371.242.406.553.717.932.932.378.215.781.322 1.207.322.687 0 1.257-.236 1.711-.709.457-.473.685-1.115.685-1.928 0-.39-.064-.752-.193-1.084a2.395 2.395 0 00-.522-.837 2.318 2.318 0 00-.767-.528 2.266 2.266 0 00-1.84.006 2.649 2.649 0 00-.803.533 2.56 2.56 0 00-.557.844c-.14.336-.21.695-.21 1.078zM211.986 133.799c0-.57.102-1.117.305-1.641a4.5 4.5 0 01.85-1.388 3.995 3.995 0 011.347-.956 4.207 4.207 0 011.729-.357c.621 0 1.197.119 1.728.357.532.235.977.551 1.336.95.36.394.641.855.844 1.382.203.524.305 1.075.305 1.653 0 .57-.104 1.119-.311 1.646a4.45 4.45 0 01-.849 1.389 4.007 4.007 0 01-1.348.955 4.204 4.204 0 01-1.729.357 4.237 4.237 0 01-1.728-.351 3.947 3.947 0 01-1.336-.955 4.574 4.574 0 01-1.143-3.041zm.645 0c0 .687.152 1.32.457 1.898a3.556 3.556 0 001.289 1.371c.551.34 1.164.51 1.84.51.676 0 1.287-.168 1.834-.504.551-.34.976-.797 1.277-1.371a3.994 3.994 0 00.457-1.904c0-.512-.092-1-.275-1.465a3.658 3.658 0 00-.744-1.201 3.41 3.41 0 00-1.143-.809 3.405 3.405 0 00-1.43-.304c-.675 0-1.287.169-1.834.509a3.492 3.492 0 00-1.277 1.366 4.037 4.037 0 00-.451 1.904zm9.51.984c0-.262.002-.486.005-.674.004-.187.014-.402.03-.644.015-.242.037-.451.064-.627.031-.176.074-.367.129-.574a2.855 2.855 0 01.469-.996 1.81 1.81 0 01.375-.399c.141-.113.305-.217.492-.31.188-.094.395-.17.621-.229l3.481-.873.17.527-3.364.885c-.644.172-1.107.44-1.388.803-.278.363-.446.904-.504 1.623.578-.961 1.461-1.441 2.648-1.441.527 0 1.018.142 1.471.427.453.285.81.668 1.072 1.149.266.48.399.996.399 1.547 0 .566-.133 1.091-.399 1.576-.262.48-.631.867-1.107 1.16a3.004 3.004 0 01-1.588.433c-.899 0-1.637-.308-2.215-.925-.574-.617-.861-1.43-.861-2.438zm1.33-1.617c-.461.5-.692 1.111-.692 1.834 0 .723.237 1.336.709 1.84.477.5 1.061.75 1.752.75.699 0 1.28-.25 1.74-.75.461-.504.692-1.117.692-1.84 0-.723-.236-1.334-.709-1.834a2.3 2.3 0 00-1.746-.756c-.699 0-1.281.252-1.746.756zm5.578 4.834l.111-.539c.192.055.346.082.463.082.133 0 .244-.01.334-.029a.826.826 0 00.299-.159.947.947 0 00.264-.345c.07-.149.138-.354.205-.615a6.28 6.28 0 00.164-.95c.043-.375.078-.834.105-1.377a42.83 42.83 0 00.047-1.863v-.322h4.166V138h-.592v-5.59h-3.011v.164c0 .715-.018 1.35-.053 1.905-.031.55-.074 1.019-.129 1.406a5.516 5.516 0 01-.211.99 3.57 3.57 0 01-.275.645 1.104 1.104 0 01-.352.369c-.141.086-.275.14-.404.164a2.542 2.542 0 01-1.131-.053zm7.887-1.799c0-.625.244-1.113.732-1.465.492-.351 1.141-.527 1.945-.527.699 0 1.375.088 2.028.264v-.264c0-.609-.178-1.074-.534-1.395-.351-.32-.845-.48-1.482-.48-.633 0-1.271.164-1.916.492l-.217-.515c.762-.352 1.485-.528 2.168-.528.84 0 1.485.225 1.934.674.418.418.627.994.627 1.729V138h-.58v-1.02a2.95 2.95 0 01-.95.838c-.39.219-.853.328-1.388.328-.43 0-.821-.07-1.172-.21a1.949 1.949 0 01-.861-.663 1.748 1.748 0 01-.334-1.072zm.638-.012c0 .438.16.782.481 1.032.32.246.748.369 1.283.369.637 0 1.182-.176 1.635-.528.453-.355.679-.806.679-1.353v-.697a8.167 8.167 0 00-2.074-.276c-.637 0-1.131.131-1.482.393a1.258 1.258 0 00-.522 1.06zM244.33 138v-6.117h.592v3.92l3.791-3.92h.779l-2.678 2.707 2.76 3.41h-.744l-2.42-2.988-1.488 1.5V138h-.592zm6.252-3.059c0-.425.08-.834.24-1.224a3.26 3.26 0 01.651-1.02 2.97 2.97 0 011.002-.697 3.053 3.053 0 011.259-.264c.59 0 1.125.147 1.606.44.484.289.859.679 1.125 1.172.269.488.404 1.019.404 1.593 0 .571-.135 1.1-.404 1.588-.27.489-.649.881-1.137 1.178a3.061 3.061 0 01-1.617.439c-.441 0-.857-.085-1.248-.257a3.03 3.03 0 01-.996-.692 3.285 3.285 0 01-.651-1.019 3.336 3.336 0 01-.234-1.237zm.633 0c0 .739.242 1.366.726 1.881a2.383 2.383 0 001.793.768c.446 0 .86-.117 1.243-.352.382-.238.687-.56.914-.967.226-.406.339-.849.339-1.33 0-.734-.246-1.359-.738-1.875-.492-.519-1.086-.779-1.781-.779-.453 0-.871.119-1.254.358a2.508 2.508 0 00-.908.966c-.223.407-.334.85-.334 1.33zm10.06 2.485h.903c.429-.602.76-1.432.99-2.49.234-1.059.352-2.245.352-3.557v-1.781h5.15v7.828h1.142l-.123 2.496h-.527V138h-7.236l-.117 1.922h-.534v-2.496zm1.623 0h5.151v-7.248h-3.914v1.652c0 1.141-.112 2.219-.334 3.234-.219 1.012-.52 1.799-.903 2.362zm7.881-1.225c0-.625.244-1.113.733-1.465.492-.351 1.14-.527 1.945-.527.699 0 1.375.088 2.027.264v-.264c0-.609-.177-1.074-.533-1.395-.351-.32-.846-.48-1.482-.48-.633 0-1.272.164-1.916.492l-.217-.515c.762-.352 1.484-.528 2.168-.528.84 0 1.484.225 1.934.674.417.418.626.994.626 1.729V138h-.58v-1.02a2.936 2.936 0 01-.949.838c-.39.219-.853.328-1.389.328-.429 0-.82-.07-1.171-.21a1.957 1.957 0 01-.862-.663 1.754 1.754 0 01-.334-1.072zm.639-.012c0 .438.16.782.48 1.032.321.246.748.369 1.284.369.636 0 1.181-.176 1.634-.528.454-.355.68-.806.68-1.353v-.697a8.167 8.167 0 00-2.074-.276c-.637 0-1.131.131-1.483.393a1.26 1.26 0 00-.521 1.06zm6.756 1.811v-6.117h.592v5.338l4.148-5.338h.592V138h-.592v-5.338L278.766 138h-.592zm7.271-3.826v-2.291h.592v2.303c0 .375.123.673.369.896.246.219.582.328 1.008.328.367 0 .758-.062 1.172-.187a3.656 3.656 0 001.049-.487v-2.853h.586V138h-.586v-2.678a5.36 5.36 0 01-1.037.434c-.41.129-.797.193-1.16.193-.618 0-1.104-.152-1.459-.457-.356-.304-.534-.744-.534-1.318zm7.002 3.826v-6.117h.592v5.338l4.149-5.338h.591V138h-.591v-5.338L293.039 138h-.592z" fill="#000" fill-opacity=".7"/><defs><linearGradient id="paint0_linear" x1="165.69" y1="28.14" x2="239.895" y2="167.362" gradientUnits="userSpaceOnUse"><stop stop-color="#00ADEB"/><stop offset="1" stop-color="#DF61FE"/></linearGradient><linearGradient id="paint1_linear" x1="335.764" y1="123.17" x2="413.067" y2="136.836" gradientUnits="userSpaceOnUse"><stop stop-color="#00B1E8"/><stop offset="1" stop-color="#05E9C3"/></linearGradient><linearGradient id="paint2_linear" x1="148.099" y1="101.648" x2="215.12" y2="205.285" gradientUnits="userSpaceOnUse"><stop stop-color="#00B1E8"/><stop offset="1" stop-color="#05E9C3"/></linearGradient></defs></svg>