<svg width="174" height="64" viewBox="0 0 174 64" fill="none" xmlns="http://www.w3.org/2000/svg"><rect width="174" height="64" rx="8" fill="#000"/><path d="M60.972 27.144c-1.344 0-2.512-.452-3.504-1.356l.564-.66c.848.8 1.832 1.2 2.952 1.2.536 0 .996-.148 1.38-.444.384-.304.576-.696.576-1.176 0-.52-.208-.908-.624-1.164-.416-.256-.964-.384-1.644-.384h-.924v-.78h.924c.608 0 1.1-.14 1.476-.42a1.38 1.38 0 00.576-1.164c0-.432-.18-.788-.54-1.068-.352-.288-.804-.432-1.356-.432-.944 0-1.768.316-2.472.948l-.552-.66c.44-.376.896-.656 1.368-.84.48-.184 1.04-.276 1.68-.276.832 0 1.512.212 2.04.636.528.424.792.96.792 1.608 0 .952-.512 1.612-1.536 1.98.536.16.964.412 1.284.756.32.344.48.78.48 1.308 0 .68-.276 1.248-.828 1.704-.544.456-1.248.684-2.112.684zm6.537-.012c-.632 0-1.176-.172-1.632-.516-.456-.344-.684-.824-.684-1.44 0-.648.24-1.148.72-1.5.48-.352 1.124-.528 1.932-.528.64 0 1.272.088 1.896.264v-.192c0-.544-.16-.96-.48-1.248-.32-.288-.772-.432-1.356-.432-.608 0-1.236.148-1.884.444l-.276-.756c.768-.352 1.52-.528 2.256-.528.88 0 1.548.228 2.004.684.432.432.648 1.04.648 1.824V27h-.912v-.924c-.552.704-1.296 1.056-2.232 1.056zm.18-.744c.576 0 1.064-.156 1.464-.468.4-.312.6-.712.6-1.2v-.576a6.492 6.492 0 00-1.812-.264c-.568 0-1.012.116-1.332.348-.32.224-.48.532-.48.924 0 .376.148.676.444.9.304.224.676.336 1.116.336zM72.61 27v-6.204h4.212v.816h-3.288V27h-.924zm5.555 1.92v-8.124h.924v1.248c.624-.92 1.416-1.38 2.376-1.38.792 0 1.484.296 2.076.888.592.584.888 1.368.888 2.352 0 .968-.296 1.748-.888 2.34-.592.592-1.284.888-2.076.888-.976 0-1.768-.44-2.376-1.32v3.108h-.924zm3.132-2.616c.624 0 1.144-.216 1.56-.648.416-.44.624-1.028.624-1.764 0-.712-.212-1.288-.636-1.728a2.051 2.051 0 00-1.548-.672c-.6 0-1.124.228-1.572.684-.448.456-.672 1.032-.672 1.728s.224 1.272.672 1.728c.448.448.972.672 1.572.672zm5.797 2.652c-.448 0-.888-.104-1.32-.312l.312-.732c.296.152.62.228.972.228.28 0 .516-.088.708-.264.192-.168.38-.468.564-.9l-2.82-6.18h1.02l2.256 5.172 1.992-5.172h.984l-2.604 6.408c-.264.632-.556 1.08-.876 1.344-.32.272-.716.408-1.188.408zm8.097-1.812c-.952 0-1.808-.308-2.568-.924l.468-.684c.632.536 1.324.804 2.076.804.424 0 .784-.096 1.08-.288.304-.2.456-.472.456-.816a.838.838 0 00-.408-.744c-.272-.184-.656-.276-1.152-.276h-.828v-.756h.84c.408 0 .74-.096.996-.288.256-.2.384-.46.384-.78 0-.28-.128-.504-.384-.672-.248-.168-.568-.252-.96-.252-.736 0-1.364.208-1.884.624l-.456-.648c.672-.52 1.472-.78 2.4-.78.688 0 1.232.156 1.632.468.408.304.612.7.612 1.188 0 .68-.332 1.156-.996 1.428.768.272 1.152.78 1.152 1.524 0 .52-.224.964-.672 1.332-.448.36-1.044.54-1.788.54zM99.364 27v-6.204h.924v4.908l3.684-4.908h.9V27h-.924v-4.908L100.252 27h-.888zm9.07 0v-5.388h-2.22v-.816h5.376v.816h-2.22V27h-.936zm4.5 0v-6.204h.924v2.328h1.656c.72 0 1.308.156 1.764.468.456.304.684.768.684 1.392 0 .616-.212 1.108-.636 1.476-.424.36-.992.54-1.704.54h-2.688zm.924-.816h1.68c.472 0 .836-.1 1.092-.3.264-.2.396-.492.396-.876 0-.352-.136-.62-.408-.804-.264-.192-.636-.288-1.116-.288h-1.644v2.268zm9.131.816v-6.204h3c.616 0 1.108.14 1.476.42.368.28.552.656.552 1.128 0 .664-.344 1.14-1.032 1.428.912.248 1.368.76 1.368 1.536 0 .52-.204.932-.612 1.236-.408.304-.956.456-1.644.456h-3.108zm.924-.792h2.064c.44 0 .788-.092 1.044-.276a.893.893 0 00.384-.768c0-.304-.136-.54-.408-.708-.264-.168-.644-.252-1.14-.252h-1.944v2.004zm0-2.748h1.908c.384 0 .688-.084.912-.252.232-.176.348-.424.348-.744a.753.753 0 00-.324-.636c-.216-.16-.52-.24-.912-.24h-1.932v1.872zM57.886 37.748c0-.727.134-1.42.403-2.08a5.57 5.57 0 011.113-1.735 5.077 5.077 0 011.721-1.172 5.43 5.43 0 012.176-.44c.879 0 1.628.117 2.248.352a5.87 5.87 0 011.788 1.07l-1.172 1.398a5.19 5.19 0 00-1.34-.85c-.44-.185-.972-.278-1.597-.278a3.16 3.16 0 00-1.736.506 3.53 3.53 0 00-1.23 1.362 4.032 4.032 0 00-.44 1.867c0 .718.146 1.36.44 1.927.292.566.71 1.013 1.252 1.34.547.322 1.172.483 1.875.483.99 0 1.838-.263 2.541-.79v-1.97H63.24v-1.605h4.468v4.41c-1.274 1.093-2.734 1.64-4.38 1.64-1.074 0-2.029-.237-2.864-.71a4.922 4.922 0 01-1.911-1.949c-.445-.825-.667-1.75-.667-2.776zm11.58 1.304c0-.747.18-1.435.542-2.065a4.036 4.036 0 011.523-1.509 4.275 4.275 0 012.168-.564c.796 0 1.516.186 2.16.557a3.945 3.945 0 011.51 1.501 4.11 4.11 0 01.542 2.08c0 .557-.108 1.09-.323 1.597a4.213 4.213 0 01-.878 1.318c-.372.371-.82.667-1.348.886-.527.22-1.091.33-1.692.33a4.237 4.237 0 01-2.153-.556 4.013 4.013 0 01-1.51-1.502 4.093 4.093 0 01-.541-2.073zm1.816 0c0 .703.23 1.306.689 1.81.459.497 1.035.746 1.728.746.718 0 1.297-.246 1.736-.74.44-.492.66-1.098.66-1.816 0-.708-.23-1.308-.69-1.801-.453-.499-1.032-.748-1.735-.748-.713 0-1.29.245-1.729.733-.439.488-.659 1.094-.659 1.816zm8.042 0c0-.747.18-1.435.542-2.065a4.036 4.036 0 011.524-1.509 4.275 4.275 0 012.168-.564c.795 0 1.516.186 2.16.557a3.945 3.945 0 011.51 1.501c.36.63.541 1.323.541 2.08 0 .557-.107 1.09-.322 1.597a4.213 4.213 0 01-.88 1.318 4.1 4.1 0 01-1.347.886c-.527.22-1.091.33-1.692.33a4.237 4.237 0 01-2.153-.556 4.013 4.013 0 01-1.509-1.502 4.093 4.093 0 01-.542-2.073zm1.817 0c0 .703.23 1.306.688 1.81.46.497 1.035.746 1.729.746.717 0 1.296-.246 1.735-.74.44-.492.66-1.098.66-1.816 0-.708-.23-1.308-.689-1.801-.454-.499-1.033-.748-1.736-.748-.713 0-1.289.245-1.728.733-.44.488-.66 1.094-.66 1.816zm8.07-.417c0-.567.101-1.087.301-1.56.205-.479.476-.872.813-1.18a3.67 3.67 0 012.49-.98c.616 0 1.143.121 1.582.365.445.24.843.567 1.194.982v-1.18h1.817v6.3c0 1.313-.337 2.306-1.011 2.98-.713.713-1.797 1.07-3.252 1.07-1.318 0-2.498-.315-3.538-.945l.674-1.37c.899.562 1.839.843 2.82.843.81 0 1.43-.208 1.86-.623.43-.415.645-1.018.645-1.81v-.614c-.361.468-.764.83-1.209 1.084-.439.249-.966.373-1.582.373-.468 0-.918-.085-1.347-.256a3.74 3.74 0 01-1.15-.718 3.358 3.358 0 01-.806-1.187 4.04 4.04 0 01-.3-1.574zm1.832.014c0 .64.215 1.165.644 1.575.435.41.97.615 1.605.615.644 0 1.193-.207 1.647-.622.455-.415.682-.943.682-1.582 0-.64-.227-1.165-.681-1.575-.455-.41-1.004-.615-1.648-.615-.64 0-1.175.205-1.605.615-.43.405-.644.935-.644 1.59zM99.773 43V32.05h1.817V43h-1.817zm3.75-3.962c0-.752.164-1.44.491-2.066.327-.63.789-1.13 1.384-1.501a3.708 3.708 0 012-.557c.493 0 .947.076 1.362.227.415.147.769.352 1.062.615.298.264.55.577.755.938.21.356.363.744.461 1.164.103.42.154.86.154 1.319 0 .22-.01.388-.029.505h-5.823c.098.635.351 1.13.762 1.487.415.352.92.527 1.516.527a2.78 2.78 0 001.15-.227c.336-.156.669-.395.996-.718l1.069.945c-.82.992-1.902 1.487-3.245 1.487-.761 0-1.45-.17-2.065-.513a3.772 3.772 0 01-1.465-1.464c-.356-.635-.535-1.358-.535-2.168zm1.802-.55h4.065c-.063-.615-.271-1.115-.622-1.501-.347-.39-.809-.586-1.385-.586-.547 0-1.006.193-1.377.578-.366.381-.593.884-.681 1.51zM117.718 43V32.497h4.145c1.221 0 2.19.322 2.908.967.718.64 1.077 1.499 1.077 2.578 0 .762-.193 1.418-.579 1.97a3.42 3.42 0 01-1.509 1.216c-.62.264-1.323.395-2.109.395h-2.088V43h-1.845zm1.845-5.04h2.146c.689 0 1.238-.172 1.648-.52.411-.35.616-.812.616-1.383 0-.606-.203-1.07-.608-1.392-.401-.322-.952-.483-1.656-.483h-2.146v3.779zm8.072 5.04V32.05h1.816V43h-1.816zm3.647-2.307c0-.85.293-1.494.879-1.934.591-.444 1.367-.666 2.329-.666.777 0 1.507.11 2.19.33v-.147c0-.552-.168-.972-.505-1.26-.332-.293-.813-.44-1.443-.44-.713 0-1.467.167-2.263.499l-.498-1.458c.488-.22.962-.383 1.421-.49a6.811 6.811 0 011.596-.169c1.153 0 2.019.29 2.6.872.586.576.879 1.401.879 2.475V43h-1.801v-.974c-.64.762-1.495 1.142-2.564 1.142-.513 0-.979-.09-1.399-.27a2.406 2.406 0 01-1.025-.85c-.264-.381-.396-.833-.396-1.355zm1.802-.066c0 .361.144.647.432.857.288.21.654.315 1.099.315.605 0 1.106-.154 1.501-.462.396-.312.593-.713.593-1.2v-.455c-.527-.21-1.132-.315-1.816-.315-.571 0-1.016.11-1.333.33-.317.22-.476.53-.476.93zm6.482-5.544h1.934l2.255 5.873 2.051-5.873h1.89l-3.15 8.144c-.317.81-.673 1.382-1.069 1.714-.391.337-.903.505-1.538.505a3.888 3.888 0 01-1.875-.483l.615-1.348c.362.2.716.3 1.062.3a1 1 0 00.645-.205c.176-.136.337-.373.483-.71l-3.303-7.917zM27.024 22.268a1.822 1.822 0 00-1.748-.084l9.428 9.448 3.083-3.097-10.763-6.267zm-2.614.79a1.92 1.92 0 00-.183.82v17.284c0 .29.064.566.184.812l9.425-9.47-9.426-9.446zm10.295 10.318l-9.413 9.458c.25.115.516.166.781.166.328 0 .655-.078.95-.256l10.766-6.277-3.084-3.091zm7.181-2.454a.236.236 0 00-.011-.007l-2.989-1.74-3.313 3.329 3.315 3.322 2.998-1.748c.556-.338.888-.928.888-1.578s-.332-1.24-.888-1.578z" fill="#fff"/></svg>