<svg width="104" height="40" viewBox="0 0 104 40" fill="none" xmlns="http://www.w3.org/2000/svg"><path d="M50.311 19.608v13.695h3.286V19.608h-3.286zm-5.915-5.22h-3.38c-.376 0-.313.338-.313.338.063.43.156 1.136.156 2.61 0 3.255-.406 7.922-4.037 12.374l-.25.307s-2.19-14.984-2.222-15.26c0 0 0-.338-.313-.338h-3.412c-.312 0-.312.338-.312.338-.094 1.72-1.064 16.15-11.8 18.484 2.285.246 5.04-.46 7.45-1.904 2.973-1.811 4.976-4.482 5.633-7.553 0 0 1.314 8.045 1.47 9.887v.123l-.093.061c-3.005 1.566-6.416 2.426-9.827 2.426-8.45 0-15.93-4.913-19.216-12.405 1.94 8.812 9.952 15.23 19.31 15.23 10.922 0 17.432-8.966 18.558-15.353 0 0 1.471 9.304 1.503 9.61h4.475c-.063-.398-3.036-18.268-3.067-18.545 0 0 0-.338-.313-.338v-.092zm-37.838 7.83c0-9.825 8.45-17.809 18.81-17.809 6.416 0 12.393 3.163 15.867 8.29C38.7 5.7 31.627.91 23.71.91 13.475.91 5.15 8.74 5.15 18.35c0 2.64.657 5.22 1.878 7.584-.282-1.197-.47-2.456-.47-3.684v-.03zm78.43-.645c-1.19-1.35-2.848-2.057-4.851-2.057-2.035 0-3.756.645-5.133 1.935-1.346 1.258-2.034 2.947-2.034 5.035 0 2.057.657 3.715 1.971 4.944 1.315 1.228 3.224 1.842 5.602 1.842 4.632 0 5.634-3.132 6.01-4.145l-1.19-.369c-1.064 1.904-3.442 2.027-4.85 1.935a5.249 5.249 0 01-2.63-.89c-.72-.523-1.22-1.26-1.44-2.396l-.062-.43h10.39c-.03-2.241-.625-4.053-1.783-5.373v-.03zm-8.357 3.47c-.156 0-.156-.154-.156-.215.125-.798.438-1.412 1.002-1.965.625-.645 1.596-1.013 2.628-1.013.94 0 1.69.276 2.348.798.532.46.907 1.105 1.126 1.996.032.092.094.368-.156.368H76.63v.03zm18.81-5.588c-3.944 0-5.352 2.364-5.79 3.47 0 .03-.157.398-.157.398l1.315.43s.845-2.395 4.194-2.241c3.38.123 2.973 2.855 2.973 3.285-1.878-.552-4.538-.491-6.29.277-2.192.982-2.536 2.947-2.442 4.39.094 2.15 2.034 3.654 4.538 3.777 2.253.123 3.255-.368 4.194-1.259l-.032 1.26h2.974v-9.427c.062-1.628-1.096-4.391-5.477-4.391v.03zm2.503 10.623c0 .215-.062.369-.25.461-.563.276-1.753.645-3.224.553-1.533-.123-2.128-1.198-2.222-1.658-.03-.184-.375-2.18 1.597-2.794 1.283-.4 2.91-.154 3.786.092.25.061.313.215.313.522v2.855-.03zm-44.566-15.69h-2.723c-.407 0-.344.4-.344.4v2.886h3.349v-2.917s.031-.338-.313-.338l.031-.03zm16.713 0h-2.786c-.282 0-.282.307-.282.307v5.62l-.406-.216a5.36 5.36 0 00-1.346-.46c-.47-.092-1.033-.123-1.659-.123-2.19 0-3.975.614-5.289 1.873-1.283 1.228-1.972 3.01-1.972 5.19 0 1.933.564 3.56 1.659 4.85 1.095 1.26 2.692 1.904 4.788 1.904 3.005 0 4.194-1.78 4.194-1.78v1.719h3.38V14.726s0-.338-.281-.338zm-3.255 15.168c-.313.277-.72.492-1.22.676-.533.215-1.159.307-1.847.307-1.127 0-2.035-.368-2.692-1.105s-.97-1.812-.97-3.255c0-1.412.313-2.456.907-3.101.626-.676 1.565-1.013 2.817-1.013.657 0 1.283.092 1.847.307.5.184.876.368 1.158.614a.636.636 0 01.187.46v5.62a.636.636 0 01-.187.46v.03z" fill="#fff"/></svg>