<svg xmlns="http://www.w3.org/2000/svg" xmlns:xlink="http://www.w3.org/1999/xlink"><defs>
<clipPath id="clip0">
<rect width="100" height="70" fill="#000000"/>
</clipPath>

<clipPath id="clip0">
<rect width="100" height="70" fill="white"/>
</clipPath>

<clipPath id="clip0">
<rect width="109" height="40" fill="white"/>
</clipPath>
</defs><symbol id="bosch" viewBox="0 0 103 40">
<path d="M10.9976 14C4.92956 14 0 18.9294 0 24.9972C0 31.0651 4.92956 35.9945 10.9976 35.9945C17.0657 35.9945 21.9953 31.0651 21.9953 24.9972C21.9953 18.9294 17.0657 14 10.9976 14ZM10.9976 34.8923C5.53516 34.8923 1.10219 30.4474 1.10219 24.9972C1.10219 19.5471 5.53516 15.1021 10.9976 15.1021C16.4601 15.1021 20.8931 19.5471 20.8931 24.9972C20.8931 30.4474 16.4601 34.8923 10.9976 34.8923Z" fill="white"/>
<path d="M14.9218 17.9472C14.8855 17.923 14.8371 17.9109 14.7886 17.9109C14.6433 17.9109 14.5343 18.0199 14.5343 18.1652V21.6049C14.5343 21.726 14.4374 21.8229 14.3162 21.8229H7.65467C7.53355 21.8229 7.44877 21.726 7.43666 21.6049V18.1652C7.43666 18.1168 7.42455 18.0804 7.40032 18.032C7.32765 17.9109 7.1702 17.8745 7.04908 17.9472C4.59035 19.4611 3.10059 22.0893 3.10059 24.9961C3.10059 27.9029 4.59035 30.5311 7.0733 32.045C7.10964 32.0692 7.15808 32.0813 7.20653 32.0813C7.35187 32.0813 7.46088 31.9723 7.46088 31.827V28.3873C7.46088 28.2662 7.55778 28.1814 7.6789 28.1693H14.3405C14.4616 28.1693 14.5585 28.2662 14.5585 28.3873V31.827C14.5585 31.8754 14.5706 31.9118 14.5948 31.9602C14.6675 32.0813 14.8249 32.1177 14.9461 32.045C17.429 30.5311 18.9188 27.9029 18.9188 24.9961C18.9188 22.0893 17.4048 19.4611 14.9218 17.9472ZM6.17702 29.3078L6.21335 29.7196L5.94689 29.3926C3.89997 26.8128 3.89997 23.1673 5.94689 20.5875L6.17702 20.2968L6.21335 20.2605L6.17702 20.6844C6.14068 21.0235 6.12857 21.3748 6.12857 21.726V28.2541C6.12857 28.6053 6.15279 28.9566 6.17702 29.3078ZM14.5343 26.6433C14.5343 26.7644 14.4374 26.8613 14.3162 26.8613H7.65467C7.53355 26.8613 7.44877 26.7644 7.43666 26.6433V23.3489C7.43666 23.2278 7.53355 23.1309 7.65467 23.1309H14.3162C14.4374 23.1309 14.5343 23.2278 14.5343 23.3489V26.6433ZM16.0361 29.3926L15.7697 29.7196L15.806 29.3078C15.8423 28.9687 15.8545 28.6174 15.8545 28.2662V21.726C15.8545 21.3748 15.8423 21.0235 15.806 20.6844L15.7939 20.5027L15.7818 20.3089V20.2605L16.0361 20.5875C17.0293 21.8229 17.5743 23.3974 17.5743 24.984C17.5743 26.5706 17.0293 28.1572 16.0361 29.3926Z" fill="white"/>
<path d="M38.5887 24.8023C38.5281 24.7781 38.4554 24.7539 38.4554 24.6812C38.4554 24.6327 38.4797 24.5964 38.5281 24.5722C38.6129 24.5359 40.7083 23.7849 40.7083 21.3142C40.7083 18.5649 38.8551 16.9298 35.7302 16.9298H28.1603V33.0866H36.4206C38.8309 33.0866 41.4229 31.3789 41.4229 28.6295C41.4229 26.0013 39.4365 25.0809 38.5887 24.8023ZM31.9755 20.2363C31.9755 20.1757 32.024 20.1273 32.0845 20.1273H35.0883C36.0815 20.1273 36.7598 20.7934 36.7598 21.7865C36.7598 22.5617 36.1542 23.3974 35.0156 23.3974H32.0845C32.024 23.3974 31.9755 23.3489 31.9755 23.2884V20.2363ZM35.0883 29.9012H32.0845C32.024 29.9012 31.9755 29.8528 31.9755 29.7922V26.5706C31.9755 26.51 32.024 26.4616 32.0845 26.4616H35.0156C36.457 26.4616 37.2806 27.0793 37.2806 28.1693C37.2806 29.2957 36.5175 29.9012 35.0883 29.9012ZM66.9912 23.361L66.4098 23.2399C65.1017 22.9614 63.83 22.6101 63.83 21.4838C63.83 20.3574 64.8837 19.8487 65.9253 19.8487C67.1486 19.8487 68.3598 20.3937 69.2803 21.3384L71.6785 18.9646C70.649 17.8261 68.8201 16.518 65.8648 16.518C62.3039 16.518 59.9057 18.5407 59.9057 21.5564C59.9057 24.7417 62.4129 25.9408 64.5203 26.3889L65.0896 26.51C67.1365 26.946 68.1055 27.2731 68.1055 28.4358C68.1055 29.4773 67.1729 30.1677 65.7921 30.1677C64.1691 30.1677 62.7278 29.4531 61.6377 28.1087L59.179 30.5189C60.4871 32.0692 62.2191 33.4741 65.8405 33.4741C68.9291 33.4741 72.0661 31.6816 72.0661 28.242C72.054 24.7175 69.6558 23.9182 66.9912 23.361ZM98.9062 16.9298V22.8402C98.9062 22.9008 98.8577 22.9492 98.7972 22.9492H93.8313C93.7707 22.9492 93.7222 22.9008 93.7222 22.8402V16.9298H89.6526V33.0866H93.7222V26.7401C93.7222 26.6796 93.7707 26.6311 93.8313 26.6311H98.7972C98.8577 26.6311 98.9062 26.6796 98.9062 26.7401V33.0866H103V16.9298H98.9062ZM81.465 29.7801C79.6361 29.7801 77.6618 28.2541 77.6618 24.8992C77.6618 21.835 79.5149 20.2363 81.3438 20.2363C82.6761 20.2363 83.6088 20.7934 84.3476 22.0288L87.4725 19.9577C85.8737 17.6081 83.9721 16.5423 81.3196 16.5423C76.1236 16.5423 73.7981 20.745 73.7981 24.8992C73.7981 29.9497 76.8745 33.4741 81.2712 33.4741C84.5414 33.4741 86.0312 32.2751 87.5936 30.0587L84.4445 27.9392C83.742 29.0777 82.9789 29.7801 81.465 29.7801ZM50.5674 16.518C46.1223 16.518 43.1428 19.9214 43.1428 24.9961C43.1428 30.0708 46.1223 33.4741 50.5674 33.4741C55.0125 33.4741 57.992 30.0708 57.992 24.9961C57.992 19.9214 55.0125 16.518 50.5674 16.518ZM50.5674 29.7801C48.3872 29.7801 46.9822 27.9029 46.9822 24.9961C46.9822 22.1014 48.3872 20.2363 50.5674 20.2363C52.7596 20.2363 54.1767 22.1014 54.1767 24.9961C54.1767 27.9029 52.7596 29.7801 50.5674 29.7801Z" fill="white"/>
</symbol><symbol id="cloud-logo-black" viewBox="0 0 100 70">
<g clip-path="url(#clip0)">
<path fill-rule="evenodd" clip-rule="evenodd" d="M82.8104 27.2856H82.8105H82.8251C86.7651 27.2652 90.5914 28.5994 93.6574 31.0628C96.7233 33.5262 98.841 36.9678 99.6524 40.8058C100.464 44.6439 99.9193 48.6431 98.1108 52.1277C96.3023 55.6122 93.3408 58.3685 89.7267 59.9306C88.1982 60.5048 86.5842 60.8216 84.9511 60.8679C84.2522 60.8679 83.7492 60.7631 83.641 60.5244C83.4802 60.178 84.0358 59.8432 84.5388 59.5958C88.156 57.8095 88.8737 57.325 89.9394 56.6056L89.9399 56.6054C90.194 56.4338 90.468 56.2489 90.8058 56.0297C94.5227 53.6834 97.0903 48.9383 97.0903 44.3242C97.0772 40.5665 95.5662 36.9676 92.8892 34.3182C90.2123 31.6687 86.5883 30.1853 82.8134 30.1938C82.0682 30.1943 81.3242 30.2517 80.5879 30.3656C80.3779 30.3982 80.1633 30.3848 79.959 30.3264C79.7547 30.268 79.5657 30.166 79.4051 30.0274C79.2444 29.8888 79.1161 29.7171 79.029 29.5241C78.9418 29.3311 78.898 29.1216 78.9005 28.91V28.7383C78.8858 26.2985 78.2319 23.9049 77.0034 21.7937C75.7749 19.6825 74.0144 17.927 71.8956 16.7005C69.7769 15.474 67.3734 14.8189 64.9226 14.8001C62.4717 14.7813 60.0583 15.3994 57.9209 16.5932C57.7302 16.7003 57.5178 16.7633 57.2994 16.7778C57.0809 16.7922 56.862 16.7576 56.6588 16.6766C56.4556 16.5956 56.2733 16.4702 56.1252 16.3096C55.9772 16.1491 55.8673 15.9575 55.8036 15.749C54.6479 12.0391 52.3327 8.79337 49.1951 6.48429C46.0575 4.17521 42.2614 2.92339 38.3595 2.9111C28.3259 2.9111 20.1376 11.0097 20.1376 20.9598C20.1401 21.6604 20.1831 22.3602 20.2662 23.0558C20.2893 23.2521 20.2719 23.451 20.2152 23.6404C20.1585 23.8298 20.0636 24.0058 19.9364 24.1575C19.8091 24.3092 19.6522 24.4335 19.4751 24.5229C19.298 24.6123 19.1045 24.6648 18.9064 24.6773C14.5868 24.9456 10.5315 26.8398 7.56346 29.9754C4.59541 33.1111 2.93692 37.2533 2.92453 41.5616C2.91068 44.2341 3.54468 46.8704 4.77275 49.2469C5.76412 51.043 7.73225 53.7416 11.4638 56.3616C13.3188 57.6036 15.2752 58.6884 17.3126 59.6045C18.0963 59.9626 18.3946 60.245 18.2747 60.5157C17.9764 61.194 14.4671 60.7369 12.4903 59.9335C8.79471 58.4754 5.62633 55.9426 3.39833 52.6654C1.17032 49.3882 -0.0138931 45.5187 0.000122993 41.5616C0.0186546 36.7723 1.77246 32.1504 4.9394 28.545C8.10634 24.9395 12.4738 22.5925 17.2395 21.9351C17.2132 21.6061 17.2132 21.2801 17.2132 20.9598C17.2132 9.40283 26.6999 1.64897e-05 38.3595 1.64897e-05C42.6006 -0.00526763 46.7452 1.25953 50.2546 3.63001C53.764 6.00049 56.4759 9.36703 58.0378 13.292C60.1819 12.3694 62.4925 11.8919 64.8283 11.8889C73.6191 11.8889 81.0295 18.6543 81.7665 27.3177C82.1144 27.2856 82.4653 27.2856 82.8104 27.2856ZM20.7068 68.326V66.0816H21.2449L22.9557 68.326H24.2716L22.1748 65.6798L24.1254 63.188H22.8094L21.3472 65.185H20.7068V63.188H19.5546V68.326H20.7068ZM26.9277 68.4513C25.6702 68.4513 24.3835 67.6187 24.3835 65.7673C24.3835 63.9158 25.6702 63.0716 26.9277 63.0716C28.1852 63.0716 29.4719 63.9129 29.4719 65.7673C29.4719 67.6217 28.1852 68.4513 26.9277 68.4513ZM28.2905 65.7673C28.2905 64.5825 27.6471 64.0003 26.9277 64.0003C26.2083 64.0003 25.5649 64.5825 25.5649 65.7673C25.5649 66.9521 26.2083 67.5139 26.9277 67.5139C27.6471 67.5139 28.2905 66.955 28.2905 65.7673ZM31.618 66.1398H33.9225V68.326H35.063V63.188H33.9225V65.2403H31.618V63.188H30.4746V68.326H31.618V66.1398ZM40.6505 69.5401V68.3262H36.878V69.5401H35.8428V67.4383H36.1352C36.7201 67.4383 37.0125 66.6931 37.0944 64.8183L37.1704 63.1852H40.9341V67.4354H41.7033V69.5372L40.6505 69.5401ZM38.1647 64.0847L38.1179 64.958C38.039 66.3146 37.8489 67.0482 37.4453 67.4412H39.7848V64.0847H38.1647ZM46.146 64.7628V68.326H47.2894V63.188H46.146L43.6895 66.7686V63.188H42.5461V68.326H43.6895L46.146 64.7628ZM53.7419 69.5399H52.7038V68.326H48.5774V63.188H49.715V67.4294H51.8264V63.188H52.9699V67.4294H53.739L53.7419 69.5399ZM58.1956 64.7628V68.326H59.3391V63.188H58.1956L55.7391 66.7686V63.188H54.5957V68.326H55.7391L58.1956 64.7628ZM62.7836 68.4513C61.5261 68.4513 60.2393 67.6187 60.2393 65.7673C60.2393 63.9158 61.5261 63.0716 62.7836 63.0716C64.0411 63.0716 65.3278 63.9129 65.3278 65.7673C65.3278 67.6217 64.044 68.4513 62.7836 68.4513ZM64.1463 65.7673C64.1463 64.5825 63.503 64.0003 62.7836 64.0003C62.0642 64.0003 61.4208 64.5825 61.4208 65.7673C61.4208 66.9521 62.0642 67.5139 62.7836 67.5139C63.503 67.5139 64.1463 66.955 64.1463 65.7673ZM67.4608 66.1398H69.7623V68.326H70.9057V63.188H69.7623V65.2403H67.4608V63.188H66.3173V68.326H67.4608V66.1398ZM74.4572 67.5052C75.0421 67.5052 75.5217 67.2665 75.7234 66.7891H76.8464C76.6978 67.2858 76.3871 67.7189 75.9633 68.02C75.5396 68.3211 75.0271 68.4729 74.5069 68.4513C72.8458 68.4513 71.8954 67.1908 71.8954 65.7178C71.8954 64.172 72.9628 63.0716 74.4309 63.0716C76.013 63.0716 77.0014 64.3525 76.9078 66.0817H73.0564C73.1324 67.0365 73.805 67.5052 74.4572 67.5052ZM75.7439 65.252C75.7435 65.0809 75.7091 64.9116 75.6426 64.7538C75.5761 64.596 75.4789 64.4529 75.3566 64.3327C75.2342 64.2125 75.0891 64.1177 74.9298 64.0536C74.7704 63.9896 74.5998 63.9576 74.4279 63.9595C74.0744 63.9517 73.732 64.083 73.4752 64.325C73.2184 64.567 73.0679 64.9002 73.0564 65.252H75.7439ZM79.6564 63.2646C79.3859 63.4059 79.1583 63.6167 78.9973 63.8751V63.1881H77.8568V70.0001H78.9973V67.6479C79.1583 67.9063 79.3859 68.1171 79.6564 68.2584C79.9269 68.3997 80.2305 68.4663 80.5356 68.4514C81.7931 68.4514 82.7523 67.3976 82.7523 65.7557C82.7523 64.1138 81.7931 63.0717 80.5356 63.0717C80.2305 63.0567 79.9269 63.1233 79.6564 63.2646ZM80.2841 64.009C81.0824 64.009 81.562 64.6786 81.562 65.7557C81.562 66.8474 81.0824 67.5373 80.2841 67.5256C79.5354 67.5256 78.9505 66.9201 78.9505 65.7557C78.9505 64.5913 79.5354 64.009 80.2841 64.009ZM21.0733 49.5293C23.0473 49.5293 24.7288 50.8247 24.7288 53.404C24.7288 55.9832 23.0473 57.267 21.0733 57.267C19.0993 57.267 17.4149 55.9832 17.4149 53.404C17.4149 50.8247 19.0964 49.5293 21.0733 49.5293ZM21.0733 55.235C21.7021 55.235 22.1846 54.7693 22.1846 53.404C22.1846 52.0387 21.7021 51.5612 21.0733 51.5612C20.4446 51.5612 19.962 52.0387 19.962 53.404C19.962 54.7693 20.4416 55.235 21.0733 55.235ZM25.3352 52.3996V52.6267C25.3352 55.8929 26.9056 57.267 28.7743 57.2553C30.5144 57.2553 32.3421 56.056 32.3421 53.6514C32.3421 51.4186 30.8858 50.2542 29.2686 50.2542C28.441 50.2542 27.5139 50.5249 27.0928 51.3604C27.1805 49.9805 27.9584 49.6108 28.9352 49.4886L31.5905 49.1974V46.9559L29.4294 47.1597C26.2126 47.4741 25.4083 49.7127 25.3352 52.3996ZM28.7539 52.094C29.3095 52.094 29.83 52.4491 29.83 53.663C29.83 54.81 29.3007 55.235 28.7802 55.235C28.2596 55.235 27.7683 54.7431 27.7683 53.663C27.7683 52.4637 28.1982 52.094 28.7539 52.094ZM32.7527 55.0982H32.975C33.4312 55.0982 33.8757 54.6324 33.9868 52.2046L34.1126 49.7476H40.0638V57.0894H37.5956V51.7388H36.3848L36.2737 53.4593C36.1363 55.5349 35.3584 57.0894 33.2206 57.0894H32.7527V55.0982ZM44.1935 51.3011C44.3246 51.2609 44.4625 51.2473 44.5989 51.2613C45.1311 51.2613 45.5873 51.4244 45.5902 52.2453V52.4491C42.7945 52.6412 41.2036 53.3631 41.2036 55.069C41.2036 56.379 42.2769 57.2669 43.5753 57.2669C44.5141 57.2669 45.3387 56.9409 45.833 56.1345V57.0893H48.1316C48.0337 56.1095 47.9927 55.1249 48.0087 54.1404V52.7343C48.0321 50.2774 46.6752 49.4856 44.7714 49.4856C42.5752 49.4856 41.461 50.8101 41.3499 52.2045H43.4759C43.485 52.0683 43.5216 51.9353 43.5835 51.8135C43.6454 51.6917 43.7313 51.5835 43.8361 51.4954C43.9409 51.4074 44.0625 51.3413 44.1935 51.3011ZM44.4878 55.4242C43.9128 55.4242 43.6752 55.074 43.6719 54.7613C43.6776 54.1267 44.3703 53.8809 45.6751 53.7852V54.0036C45.6751 55.1331 45.1311 55.4242 44.4878 55.4242ZM53.2238 54.6732C52.6816 54.8015 52.126 54.866 51.5686 54.8653C50.0859 54.8653 49.1852 54.0997 49.1852 52.4637V49.7476H51.6563V52.0386C51.6563 52.8712 51.9137 53.008 52.6185 53.008C52.8231 53.0099 53.027 52.9825 53.2238 52.9265V49.7476H55.6949V57.0894H53.2238V54.6732ZM59.6306 49.7476H57.1595L57.1624 57.0894H59.6336V54.3326H61.5724V57.0894H64.0436V49.7476H61.5695V52.3414H59.6306V49.7476ZM65.5244 49.7476H67.9926V51.8902H68.8699C70.9434 51.8902 71.8207 52.682 71.8207 54.4548C71.8207 56.4344 71.0428 57.0894 69.0191 57.0894H65.5244V49.7476ZM68.7968 55.2467C69.3028 55.2467 69.6245 55.0836 69.6245 54.4548C69.6245 53.8959 69.3028 53.7329 68.8085 53.7329H67.9926V55.2467H68.7968ZM72.6512 49.7476H75.1194V57.0894H72.6512V49.7476ZM78.8858 49.7475H76.6019V57.0892H78.8858L81.1727 53.0894V57.0892H83.4567V49.7475H81.1727L78.8858 53.823V49.7475ZM79.1022 47.1944H77.64C77.7131 48.2046 78.5056 48.9003 80.0234 48.9003C81.5412 48.9003 82.3191 48.2046 82.4185 47.1944H80.9563C80.9066 47.5205 80.5849 47.6864 80.0293 47.6864C79.4736 47.6864 79.1636 47.5205 79.1022 47.1944Z" fill="#000000"/>
</g>

</symbol><symbol id="cloud-logo" viewBox="0 0 100 70">
<g clip-path="url(#clip0)">
<path fill-rule="evenodd" clip-rule="evenodd" d="M82.8104 27.2856H82.8105H82.8251C86.7651 27.2652 90.5914 28.5994 93.6574 31.0628C96.7233 33.5262 98.841 36.9678 99.6524 40.8058C100.464 44.6439 99.9193 48.6431 98.1108 52.1277C96.3023 55.6122 93.3408 58.3685 89.7267 59.9306C88.1982 60.5048 86.5842 60.8216 84.9511 60.8679C84.2522 60.8679 83.7492 60.7631 83.641 60.5244C83.4802 60.178 84.0358 59.8432 84.5388 59.5958C88.156 57.8095 88.8737 57.325 89.9394 56.6056L89.9399 56.6054C90.194 56.4338 90.468 56.2489 90.8058 56.0297C94.5227 53.6834 97.0903 48.9383 97.0903 44.3242C97.0772 40.5665 95.5662 36.9676 92.8892 34.3182C90.2123 31.6687 86.5883 30.1853 82.8134 30.1938C82.0682 30.1943 81.3242 30.2517 80.5879 30.3656C80.3779 30.3982 80.1633 30.3848 79.959 30.3264C79.7547 30.268 79.5657 30.166 79.4051 30.0274C79.2444 29.8888 79.1161 29.7171 79.029 29.5241C78.9418 29.3311 78.898 29.1216 78.9005 28.91V28.7383C78.8858 26.2985 78.2319 23.9049 77.0034 21.7937C75.7749 19.6825 74.0144 17.927 71.8956 16.7005C69.7769 15.474 67.3734 14.8189 64.9226 14.8001C62.4717 14.7813 60.0583 15.3994 57.9209 16.5932C57.7302 16.7003 57.5178 16.7633 57.2994 16.7778C57.0809 16.7922 56.862 16.7576 56.6588 16.6766C56.4556 16.5956 56.2733 16.4702 56.1252 16.3096C55.9772 16.1491 55.8673 15.9575 55.8036 15.749C54.6479 12.0391 52.3327 8.79337 49.1951 6.48429C46.0575 4.17521 42.2614 2.92339 38.3595 2.9111C28.3259 2.9111 20.1376 11.0097 20.1376 20.9598C20.1401 21.6604 20.1831 22.3602 20.2662 23.0558C20.2893 23.2521 20.2719 23.451 20.2152 23.6404C20.1585 23.8298 20.0636 24.0058 19.9364 24.1575C19.8091 24.3092 19.6522 24.4335 19.4751 24.5229C19.298 24.6123 19.1045 24.6648 18.9064 24.6773C14.5868 24.9456 10.5315 26.8398 7.56346 29.9754C4.59541 33.1111 2.93692 37.2533 2.92453 41.5616C2.91068 44.2341 3.54468 46.8704 4.77275 49.2469C5.76412 51.043 7.73225 53.7416 11.4638 56.3616C13.3188 57.6036 15.2752 58.6884 17.3126 59.6045C18.0963 59.9626 18.3946 60.245 18.2747 60.5157C17.9764 61.194 14.4671 60.7369 12.4903 59.9335C8.79471 58.4754 5.62633 55.9426 3.39833 52.6654C1.17032 49.3882 -0.0138931 45.5187 0.000122993 41.5616C0.0186546 36.7723 1.77246 32.1504 4.9394 28.545C8.10634 24.9395 12.4738 22.5925 17.2395 21.9351C17.2132 21.6061 17.2132 21.2801 17.2132 20.9598C17.2132 9.40283 26.6999 1.64897e-05 38.3595 1.64897e-05C42.6006 -0.00526763 46.7452 1.25953 50.2546 3.63001C53.764 6.00049 56.4759 9.36703 58.0378 13.292C60.1819 12.3694 62.4925 11.8919 64.8283 11.8889C73.6191 11.8889 81.0295 18.6543 81.7665 27.3177C82.1144 27.2856 82.4653 27.2856 82.8104 27.2856ZM20.7068 68.326V66.0816H21.2449L22.9557 68.326H24.2716L22.1748 65.6798L24.1254 63.188H22.8094L21.3472 65.185H20.7068V63.188H19.5546V68.326H20.7068ZM26.9277 68.4513C25.6702 68.4513 24.3835 67.6187 24.3835 65.7673C24.3835 63.9158 25.6702 63.0716 26.9277 63.0716C28.1852 63.0716 29.4719 63.9129 29.4719 65.7673C29.4719 67.6217 28.1852 68.4513 26.9277 68.4513ZM28.2905 65.7673C28.2905 64.5825 27.6471 64.0003 26.9277 64.0003C26.2083 64.0003 25.5649 64.5825 25.5649 65.7673C25.5649 66.9521 26.2083 67.5139 26.9277 67.5139C27.6471 67.5139 28.2905 66.955 28.2905 65.7673ZM31.618 66.1398H33.9225V68.326H35.063V63.188H33.9225V65.2403H31.618V63.188H30.4746V68.326H31.618V66.1398ZM40.6505 69.5401V68.3262H36.878V69.5401H35.8428V67.4383H36.1352C36.7201 67.4383 37.0125 66.6931 37.0944 64.8183L37.1704 63.1852H40.9341V67.4354H41.7033V69.5372L40.6505 69.5401ZM38.1647 64.0847L38.1179 64.958C38.039 66.3146 37.8489 67.0482 37.4453 67.4412H39.7848V64.0847H38.1647ZM46.146 64.7628V68.326H47.2894V63.188H46.146L43.6895 66.7686V63.188H42.5461V68.326H43.6895L46.146 64.7628ZM53.7419 69.5399H52.7038V68.326H48.5774V63.188H49.715V67.4294H51.8264V63.188H52.9699V67.4294H53.739L53.7419 69.5399ZM58.1956 64.7628V68.326H59.3391V63.188H58.1956L55.7391 66.7686V63.188H54.5957V68.326H55.7391L58.1956 64.7628ZM62.7836 68.4513C61.5261 68.4513 60.2393 67.6187 60.2393 65.7673C60.2393 63.9158 61.5261 63.0716 62.7836 63.0716C64.0411 63.0716 65.3278 63.9129 65.3278 65.7673C65.3278 67.6217 64.044 68.4513 62.7836 68.4513ZM64.1463 65.7673C64.1463 64.5825 63.503 64.0003 62.7836 64.0003C62.0642 64.0003 61.4208 64.5825 61.4208 65.7673C61.4208 66.9521 62.0642 67.5139 62.7836 67.5139C63.503 67.5139 64.1463 66.955 64.1463 65.7673ZM67.4608 66.1398H69.7623V68.326H70.9057V63.188H69.7623V65.2403H67.4608V63.188H66.3173V68.326H67.4608V66.1398ZM74.4572 67.5052C75.0421 67.5052 75.5217 67.2665 75.7234 66.7891H76.8464C76.6978 67.2858 76.3871 67.7189 75.9633 68.02C75.5396 68.3211 75.0271 68.4729 74.5069 68.4513C72.8458 68.4513 71.8954 67.1908 71.8954 65.7178C71.8954 64.172 72.9628 63.0716 74.4309 63.0716C76.013 63.0716 77.0014 64.3525 76.9078 66.0817H73.0564C73.1324 67.0365 73.805 67.5052 74.4572 67.5052ZM75.7439 65.252C75.7435 65.0809 75.7091 64.9116 75.6426 64.7538C75.5761 64.596 75.4789 64.4529 75.3566 64.3327C75.2342 64.2125 75.0891 64.1177 74.9298 64.0536C74.7704 63.9896 74.5998 63.9576 74.4279 63.9595C74.0744 63.9517 73.732 64.083 73.4752 64.325C73.2184 64.567 73.0679 64.9002 73.0564 65.252H75.7439ZM79.6564 63.2646C79.3859 63.4059 79.1583 63.6167 78.9973 63.8751V63.1881H77.8568V70.0001H78.9973V67.6479C79.1583 67.9063 79.3859 68.1171 79.6564 68.2584C79.9269 68.3997 80.2305 68.4663 80.5356 68.4514C81.7931 68.4514 82.7523 67.3976 82.7523 65.7557C82.7523 64.1138 81.7931 63.0717 80.5356 63.0717C80.2305 63.0567 79.9269 63.1233 79.6564 63.2646ZM80.2841 64.009C81.0824 64.009 81.562 64.6786 81.562 65.7557C81.562 66.8474 81.0824 67.5373 80.2841 67.5256C79.5354 67.5256 78.9505 66.9201 78.9505 65.7557C78.9505 64.5913 79.5354 64.009 80.2841 64.009ZM21.0733 49.5293C23.0473 49.5293 24.7288 50.8247 24.7288 53.404C24.7288 55.9832 23.0473 57.267 21.0733 57.267C19.0993 57.267 17.4149 55.9832 17.4149 53.404C17.4149 50.8247 19.0964 49.5293 21.0733 49.5293ZM21.0733 55.235C21.7021 55.235 22.1846 54.7693 22.1846 53.404C22.1846 52.0387 21.7021 51.5612 21.0733 51.5612C20.4446 51.5612 19.962 52.0387 19.962 53.404C19.962 54.7693 20.4416 55.235 21.0733 55.235ZM25.3352 52.3996V52.6267C25.3352 55.8929 26.9056 57.267 28.7743 57.2553C30.5144 57.2553 32.3421 56.056 32.3421 53.6514C32.3421 51.4186 30.8858 50.2542 29.2686 50.2542C28.441 50.2542 27.5139 50.5249 27.0928 51.3604C27.1805 49.9805 27.9584 49.6108 28.9352 49.4886L31.5905 49.1974V46.9559L29.4294 47.1597C26.2126 47.4741 25.4083 49.7127 25.3352 52.3996ZM28.7539 52.094C29.3095 52.094 29.83 52.4491 29.83 53.663C29.83 54.81 29.3007 55.235 28.7802 55.235C28.2596 55.235 27.7683 54.7431 27.7683 53.663C27.7683 52.4637 28.1982 52.094 28.7539 52.094ZM32.7527 55.0982H32.975C33.4312 55.0982 33.8757 54.6324 33.9868 52.2046L34.1126 49.7476H40.0638V57.0894H37.5956V51.7388H36.3848L36.2737 53.4593C36.1363 55.5349 35.3584 57.0894 33.2206 57.0894H32.7527V55.0982ZM44.1935 51.3011C44.3246 51.2609 44.4625 51.2473 44.5989 51.2613C45.1311 51.2613 45.5873 51.4244 45.5902 52.2453V52.4491C42.7945 52.6412 41.2036 53.3631 41.2036 55.069C41.2036 56.379 42.2769 57.2669 43.5753 57.2669C44.5141 57.2669 45.3387 56.9409 45.833 56.1345V57.0893H48.1316C48.0337 56.1095 47.9927 55.1249 48.0087 54.1404V52.7343C48.0321 50.2774 46.6752 49.4856 44.7714 49.4856C42.5752 49.4856 41.461 50.8101 41.3499 52.2045H43.4759C43.485 52.0683 43.5216 51.9353 43.5835 51.8135C43.6454 51.6917 43.7313 51.5835 43.8361 51.4954C43.9409 51.4074 44.0625 51.3413 44.1935 51.3011ZM44.4878 55.4242C43.9128 55.4242 43.6752 55.074 43.6719 54.7613C43.6776 54.1267 44.3703 53.8809 45.6751 53.7852V54.0036C45.6751 55.1331 45.1311 55.4242 44.4878 55.4242ZM53.2238 54.6732C52.6816 54.8015 52.126 54.866 51.5686 54.8653C50.0859 54.8653 49.1852 54.0997 49.1852 52.4637V49.7476H51.6563V52.0386C51.6563 52.8712 51.9137 53.008 52.6185 53.008C52.8231 53.0099 53.027 52.9825 53.2238 52.9265V49.7476H55.6949V57.0894H53.2238V54.6732ZM59.6306 49.7476H57.1595L57.1624 57.0894H59.6336V54.3326H61.5724V57.0894H64.0436V49.7476H61.5695V52.3414H59.6306V49.7476ZM65.5244 49.7476H67.9926V51.8902H68.8699C70.9434 51.8902 71.8207 52.682 71.8207 54.4548C71.8207 56.4344 71.0428 57.0894 69.0191 57.0894H65.5244V49.7476ZM68.7968 55.2467C69.3028 55.2467 69.6245 55.0836 69.6245 54.4548C69.6245 53.8959 69.3028 53.7329 68.8085 53.7329H67.9926V55.2467H68.7968ZM72.6512 49.7476H75.1194V57.0894H72.6512V49.7476ZM78.8858 49.7475H76.6019V57.0892H78.8858L81.1727 53.0894V57.0892H83.4567V49.7475H81.1727L78.8858 53.823V49.7475ZM79.1022 47.1944H77.64C77.7131 48.2046 78.5056 48.9003 80.0234 48.9003C81.5412 48.9003 82.3191 48.2046 82.4185 47.1944H80.9563C80.9066 47.5205 80.5849 47.6864 80.0293 47.6864C79.4736 47.6864 79.1636 47.5205 79.1022 47.1944Z" fill="white"/>
</g>

</symbol><symbol id="daichi" viewBox="0 0 91 40">
<path d="M57.5427 17.2955C56.2313 17.6999 55.3837 18.2443 54.3601 19.2708C53.3206 20.344 52.7128 21.4949 52.377 22.9881C51.7053 26.0676 52.5369 29.0384 54.6 30.967C56.3432 32.6001 57.7826 33.0823 60.5974 32.9889C62.2766 32.9267 62.5645 32.8801 63.5401 32.4446C64.7556 31.8846 66.1949 30.6404 66.8027 29.6294C67.2025 28.9761 67.8102 27.2964 67.8102 26.8609C67.8102 26.6898 67.4584 26.6431 66.099 26.6431H64.3717L64.0678 27.3741C63.3642 29.0384 62.0847 29.816 60.0536 29.816C58.6302 29.816 58.0385 29.5983 57.1269 28.7584C56.3912 28.0896 56.0074 27.3275 55.7835 26.0365C55.3517 23.6102 56.3113 21.4483 58.2144 20.484C58.9341 20.1107 61.0772 20.0951 61.9088 20.4528C62.8204 20.8417 63.5881 21.6038 63.9879 22.5215L64.3717 23.3769H66.099C66.1978 23.3769 66.2914 23.3771 66.38 23.3773C67.2171 23.3791 67.6084 23.3799 67.7342 23.2026C67.8446 23.047 67.7506 22.7543 67.5741 22.2046C67.5527 22.1378 67.53 22.0672 67.5063 21.9926C67.0905 20.7017 66.5468 19.8618 65.5392 18.913C63.9879 17.4977 62.5645 17 60.0536 17.0155C58.9661 17.0155 58.1664 17.1088 57.5427 17.2955Z" fill="white"/>
<path fill-rule="evenodd" clip-rule="evenodd" d="M2.59086 17.4822C0.847627 18.322 0 19.7063 0 21.7438C0 23.2058 0.399824 24.2324 1.34341 25.1345C2.23902 26.021 3.10264 26.3787 4.49403 26.4565C6.23726 26.5498 7.18084 26.2232 8.33234 25.1034C9.37188 24.0924 9.75571 23.1747 9.75571 21.7438C9.75571 20.4373 9.38787 19.4886 8.50826 18.5398C7.46872 17.4044 6.50914 17 4.86186 17C3.74236 17 3.43849 17.0622 2.59086 17.4822ZM6.28524 20.5773C6.78102 21.1217 6.86099 21.8838 6.47715 22.5992C6.1413 23.2369 5.62953 23.5325 4.86186 23.5325C3.56643 23.5325 2.62285 22.2571 3.08664 21.1683C3.69438 19.7841 5.26169 19.4886 6.28524 20.5773Z" fill="white"/>
<path fill-rule="evenodd" clip-rule="evenodd" d="M12.6344 32.8956V17.1244L16.6807 17.1866C20.3271 17.2488 20.8068 17.2955 21.6705 17.6066C25.013 18.7886 27.0761 21.6038 27.0761 25.01C27.0761 28.4629 24.997 31.2625 21.5905 32.4135C20.6469 32.7401 20.1991 32.7712 16.6007 32.8334L12.6344 32.8956ZM23.3497 23.2991C22.8699 22.0393 21.6385 20.8572 20.455 20.5151C19.9112 20.3595 18.9836 20.2662 17.8801 20.2662H16.1529V29.7849L18.2 29.7227C20.0232 29.6761 20.3111 29.6294 21.0467 29.2561C23.2058 28.1674 24.2133 25.5544 23.3497 23.2991Z" fill="white"/>
<path fill-rule="evenodd" clip-rule="evenodd" d="M32.9615 17.4977C32.2738 19.3641 27.6679 32.5535 27.6679 32.6935C27.6679 32.8179 28.1477 32.8645 29.4591 32.8334L31.2343 32.7868L31.7941 31.1848L32.3378 29.5983H38.9589L40.0464 32.8645H41.8536C42.8452 32.8645 43.6608 32.8334 43.6608 32.8023C43.6608 32.7246 38.4791 17.8554 38.3032 17.4199C38.2072 17.1866 37.9194 17.1555 35.6484 17.1555C33.1535 17.1555 33.0895 17.1555 32.9615 17.4977ZM36.9118 23.4858L38.0313 26.7987H35.6324C33.7772 26.7987 33.2494 26.752 33.3134 26.5965L34.4809 23.1903C35.0886 21.4172 35.6164 20.0174 35.6803 20.0796C35.7443 20.1418 36.2881 21.6816 36.9118 23.4858Z" fill="white"/>
<path d="M46.0597 32.8645V17.1555H49.4183V32.8645H46.0597Z" fill="white"/>
<path d="M70.3691 32.8645H73.8875V26.3321H80.7645V32.8645H84.283V17.1555H80.7645V23.5325H73.8875V17.1555H70.3691V32.8645Z" fill="white"/>
<path d="M87.6415 32.8645V17.1555H91V32.8645H87.6415Z" fill="white"/>
</symbol><symbol id="daikin" viewBox="0 0 109 40">
<g clip-path="url(#clip0)">
<path fill-rule="evenodd" clip-rule="evenodd" d="M0.000366211 25.9459V37.5233L24.825 14.3586H12.4109L0.000366211 25.9459Z" fill="white"/>
<path d="M11 14.3586H0V24.4541L11 14.3586Z" fill="white"/>
<path d="M59.4911 19.3872L56.2507 32.4907H61.9757L65.2144 19.3872H59.4911ZM45.6001 19.3852L38.2365 32.4887H42.0233L43.2455 30.3043H48.5024L48.8939 32.4887H54.4829L52.1071 19.3852H45.6001ZM46.4145 26.9811H45.1015L47.2185 23.2015L47.9053 26.9811H46.4145ZM85.6379 19.3872L82.4064 32.4907H88.1301L91.3641 19.3872H85.6379ZM83.0796 19.3872H77.2128L72.3022 23.6736L73.3737 19.3872H67.8864L64.654 32.4907H70.1246L71.2419 27.9668L74.167 32.4907H80.7884L75.8842 25.6285L83.0796 19.3872ZM33.4531 19.3933L31.9726 19.3884H24.8087L21.5775 32.487H28.6904L31.5051 32.4907C35.4673 32.4907 39.367 29.5085 39.367 24.9391C39.3662 19.5622 33.4531 19.3933 33.4531 19.3933ZM33.7437 25.3419C33.7437 25.3419 33.3718 29.5984 29.7858 29.5984H27.7569L29.5439 22.5307H31.3851C32.044 22.5355 33.951 22.7076 33.7437 25.3419ZM105.036 19.3852L103.126 27.1013L100.583 19.3852H94.2162L90.9818 32.4907H94.9408L96.8686 24.7073L99.4205 32.4907H105.76L109 19.3852H105.036Z" fill="white"/>
</g>

</symbol><symbol id="midea" viewBox="0 0 104 40">
<path d="M50.3111 19.6082V33.3025H53.5972V19.6082H50.3111ZM44.396 14.3884H41.016C40.6404 14.3884 40.703 14.7262 40.703 14.7262C40.7656 15.156 40.8595 15.8622 40.8595 17.3361C40.8595 20.5907 40.4526 25.2579 36.8222 29.71L36.5719 30.0171C36.5719 30.0171 34.3811 15.0332 34.3498 14.7569C34.3498 14.7569 34.3498 14.4191 34.0368 14.4191H30.6255C30.3126 14.4191 30.3126 14.7569 30.3126 14.7569C30.2187 16.4763 29.2485 30.9075 18.5138 33.2411C20.7984 33.4867 23.5525 32.7805 25.9623 31.3374C28.9355 29.5258 30.9385 26.8545 31.5957 23.784C31.5957 23.784 32.9102 31.8286 33.0667 33.6709V33.7937L32.9728 33.8551C29.9683 35.4211 26.557 36.2808 23.1456 36.2808C14.6956 36.2808 7.2157 31.3681 3.92957 23.8761C5.86995 32.6884 13.8819 39.1056 23.2395 39.1056C34.162 39.1056 40.6717 30.1399 41.7984 23.7533C41.7984 23.7533 43.2693 33.0568 43.3006 33.3639H47.776C47.7134 32.9647 44.7403 15.0946 44.709 14.8183C44.709 14.8183 44.709 14.4805 44.396 14.4805V14.3884ZM6.55848 22.2181C6.55848 12.3926 15.0085 4.40941 25.3677 4.40941C31.7835 4.40941 37.7611 7.57199 41.2351 12.6997C38.7 5.69901 31.627 0.909088 23.709 0.909088C13.475 0.909088 5.15013 8.73877 5.15013 18.3493C5.15013 20.9899 5.80736 23.5691 7.02792 25.9334C6.74625 24.7359 6.55848 23.477 6.55848 22.2488V22.2181ZM84.9876 21.5733C83.7984 20.2223 82.1396 19.5161 80.1367 19.5161C78.1024 19.5161 76.3811 20.1609 75.004 21.4505C73.6583 22.7094 72.9697 24.3981 72.9697 26.486C72.9697 28.5432 73.627 30.2013 74.9414 31.4295C76.2559 32.6577 78.165 33.2718 80.5435 33.2718C85.1754 33.2718 86.1769 30.1399 86.5525 29.1266L85.3632 28.7582C84.2991 30.6619 81.9206 30.7847 80.5122 30.6926C79.5107 30.6312 78.6031 30.2934 77.8833 29.8021C77.1635 29.2802 76.6627 28.5432 76.4437 27.4072L76.3811 26.9773H86.7715C86.7402 24.7359 86.1456 22.9243 84.9876 21.604V21.5733ZM76.6314 25.0429C76.475 25.0429 76.475 24.8894 76.475 24.828C76.6002 24.0297 76.9131 23.4156 77.4765 22.8629C78.1024 22.2181 79.0726 21.8496 80.1054 21.8496C81.0443 21.8496 81.7954 22.126 82.4526 22.648C82.9846 23.1085 83.3602 23.7533 83.5793 24.6438C83.6106 24.7359 83.6732 25.0122 83.4228 25.0122H76.6314V25.0429ZM95.4407 19.4547C91.4973 19.4547 90.089 21.8189 89.6508 22.9243C89.6508 22.955 89.4943 23.3235 89.4943 23.3235L90.8088 23.7533C90.8088 23.7533 91.6538 21.3584 95.0025 21.5119C98.3825 21.6347 97.9757 24.3674 97.9757 24.7973C96.0979 24.2446 93.4377 24.306 91.6851 25.0736C89.4943 26.0562 89.1501 28.0213 89.244 29.4644C89.3378 31.6137 91.2782 33.1182 93.782 33.2411C96.0353 33.3639 97.0368 32.8726 97.9757 31.9822L97.9444 33.2411H100.918V23.8147C100.98 22.1874 99.8222 19.424 95.4407 19.424V19.4547ZM97.9444 30.0785C97.9444 30.2934 97.8818 30.4469 97.694 30.539C97.1307 30.8154 95.9414 31.1838 94.4705 31.0917C92.937 30.9689 92.3423 29.8942 92.2484 29.4337C92.2171 29.2495 91.8729 27.2537 93.8446 26.6396C95.1277 26.2404 96.7551 26.486 97.6314 26.7317C97.8818 26.7931 97.9444 26.9466 97.9444 27.2537V30.1092V30.0785ZM53.3781 14.3884H50.6553C50.2485 14.3884 50.3111 14.7876 50.3111 14.7876V17.6738H53.6598V14.7569C53.6598 14.7569 53.6911 14.4191 53.3468 14.4191L53.3781 14.3884ZM70.0905 14.3884H67.3051C67.0234 14.3884 67.0234 14.6955 67.0234 14.6955V20.3144L66.6166 20.0995C66.1784 19.8845 65.7402 19.731 65.2708 19.6389C64.8014 19.5468 64.238 19.5161 63.6121 19.5161C61.4213 19.5161 59.6374 20.1302 58.323 21.3891C57.0398 22.6173 56.3513 24.3981 56.3513 26.5782C56.3513 28.5125 56.9146 30.1399 58.01 31.4295C59.1054 32.6884 60.7015 33.3332 62.7984 33.3332C65.8028 33.3332 66.9921 31.5523 66.9921 31.5523V33.2718H70.3721V30.0478V14.7262C70.3721 14.7262 70.3721 14.3884 70.0905 14.3884ZM66.8356 29.5565C66.5227 29.8328 66.1158 30.0478 65.6151 30.232C65.083 30.4469 64.4571 30.539 63.7686 30.539C62.6419 30.539 61.7343 30.1706 61.0771 29.4337C60.4198 28.6968 60.1069 27.6221 60.1069 26.179C60.1069 24.7666 60.4198 23.7226 61.0145 23.0778C61.6404 22.4023 62.5793 22.0646 63.8312 22.0646C64.4884 22.0646 65.1143 22.1567 65.6777 22.3716C66.1784 22.5558 66.554 22.7401 66.8356 22.9857C66.9295 23.0778 67.0234 23.2313 67.0234 23.4463V29.0652C67.0234 29.2802 66.9295 29.4337 66.8356 29.5258V29.5565Z" fill="white"/>
</symbol></svg>