<svg xmlns="http://www.w3.org/2000/svg" width="285" height="56" viewBox="0 0 285 56" fill="none"><path d="M277 0H8a8 8 0 00-8 8v40a8 8 0 008 8h269a8 8 0 008-8V8a8 8 0 00-8-8z" fill="#fff"/><path d="M277 0H8a8 8 0 00-8 8v40a8 8 0 008 8h269a8 8 0 008-8V8a8 8 0 00-8-8z" fill="url(#paint0_linear)"/><path d="M14.305 18.395h3.718L22.7 32.928l4.813-14.588h2.912l4.826 14.588 4.676-14.533h3.61L36.7 38.137h-2.967L28.92 24.055l-4.813 14.082h-2.98l-6.822-19.742zm31.992 2.556v-3.226h3.637v3.226h-3.637zM46.434 38V23.22h3.39V38h-3.39zm7.26-6.918v-3.336h8.284v3.336h-8.285zM66.065 38V18.395h14.588v3.144H69.512v5.346h9.885v3.13h-9.885V38h-3.446zm18.047-17.049v-3.226h3.637v3.226h-3.637zM84.25 38V23.22h3.39V38h-3.39zm14.807-14.78h3.609l4.211 10.965 3.828-10.964h3.527l-5.878 15.203c-.593 1.513-1.258 2.58-1.997 3.199-.729.629-1.686.943-2.871.943a7.25 7.25 0 01-3.5-.902l1.149-2.516c.674.374 1.335.561 1.982.561.483 0 .884-.128 1.203-.383.328-.255.629-.697.903-1.326l-6.166-14.78zM117.145 38V23.22h13.179V38h-3.39V26.133h-6.413V38h-3.376zm17.445 4.484V23.221h3.377v2.46c1.312-1.85 2.985-2.775 5.017-2.775a6.51 6.51 0 012.557.52c.82.346 1.554.838 2.201 1.476s1.162 1.454 1.545 2.448c.392.993.588 2.087.588 3.28 0 1.186-.196 2.27-.588 3.255-.383.984-.898 1.795-1.545 2.433a6.82 6.82 0 01-2.187 1.477 6.545 6.545 0 01-2.571.52c-2.023 0-3.696-.871-5.017-2.612v6.781h-3.377zm3.295-11.853c0 1.385.424 2.52 1.271 3.404.848.884 1.864 1.326 3.049 1.326 1.194 0 2.197-.433 3.008-1.298.811-.876 1.217-2.038 1.217-3.487 0-1.394-.41-2.53-1.231-3.404-.82-.884-1.818-1.326-2.994-1.326-1.185 0-2.201.446-3.049 1.34-.847.893-1.271 2.041-1.271 3.445zm14.451 3.062c0-1.586.547-2.789 1.641-3.609 1.102-.83 2.552-1.244 4.347-1.244 1.449 0 2.812.205 4.088.615v-.273c0-1.03-.314-1.814-.943-2.352-.62-.547-1.518-.82-2.694-.82-1.33 0-2.739.31-4.224.93l-.93-2.721a14.61 14.61 0 012.652-.916c.866-.21 1.86-.315 2.981-.315 2.151 0 3.769.543 4.853 1.627 1.094 1.076 1.641 2.616 1.641 4.621V38h-3.363v-1.818c-1.194 1.421-2.789 2.133-4.785 2.133-.957 0-1.828-.17-2.612-.506a4.498 4.498 0 01-1.914-1.586c-.492-.711-.738-1.554-.738-2.53zm3.363-.123c0 .675.269 1.208.807 1.6.538.392 1.221.588 2.051.588 1.13 0 2.064-.287 2.802-.861.739-.584 1.108-1.331 1.108-2.243v-.847c-.985-.392-2.115-.588-3.391-.588-1.066 0-1.896.205-2.488.615-.593.41-.889.989-.889 1.736zM169.781 38V23.22h7.588c1.477 0 2.657.333 3.541.999.884.665 1.326 1.563 1.326 2.693 0 1.55-.793 2.68-2.379 3.39 2.033.575 3.049 1.805 3.049 3.692 0 1.24-.487 2.22-1.463 2.94-.975.71-2.306 1.066-3.992 1.066h-7.67zm3.323-2.693h3.841c.812 0 1.431-.169 1.86-.506.437-.347.656-.811.656-1.395 0-.556-.228-.993-.684-1.312-.446-.32-1.112-.479-1.996-.479h-3.677v3.692zm0-5.989h3.472c.693 0 1.235-.164 1.627-.492.392-.337.588-.78.588-1.326 0-.51-.178-.916-.533-1.217-.356-.31-.898-.465-1.627-.465h-3.527v3.5zm11.087 8.655l.247-2.776c.291.073.619.11.984.11.328 0 .597-.037.807-.11.218-.082.446-.25.683-.506.246-.264.442-.665.588-1.203.155-.547.296-1.253.424-2.119.137-.875.232-1.991.287-3.35.064-1.357.096-2.957.096-4.798h11.17V38h-3.391V26.133h-4.607c0 1.513-.046 2.862-.137 4.047a30.817 30.817 0 01-.342 3.035c-.146.838-.342 1.558-.588 2.16-.246.592-.506 1.071-.779 1.435a2.947 2.947 0 01-.985.848c-.382.2-.765.333-1.148.397-.374.073-.816.11-1.326.11-.538 0-1.199-.065-1.983-.192zm18.731-7.37c0-1.403.305-2.688.916-3.855a7.093 7.093 0 012.584-2.803c1.112-.692 2.356-1.039 3.732-1.039.921 0 1.769.142 2.543.424.775.274 1.436.656 1.983 1.149a6.798 6.798 0 011.408 1.75c.392.665.679 1.39.861 2.173.192.784.287 1.604.287 2.461 0 .41-.018.725-.054.944h-10.87c.183 1.185.657 2.11 1.422 2.775.775.656 1.718.984 2.83.984.803 0 1.518-.14 2.147-.423.629-.292 1.249-.739 1.859-1.34l1.996 1.763c-1.531 1.85-3.55 2.776-6.056 2.776-1.422 0-2.707-.32-3.856-.957-1.148-.638-2.06-1.55-2.734-2.735-.665-1.184-.998-2.533-.998-4.046zm3.363-1.025h7.588c-.118-1.148-.506-2.083-1.162-2.803-.647-.729-1.509-1.093-2.584-1.093-1.021 0-1.878.36-2.57 1.08-.684.71-1.108 1.65-1.272 2.816zM220.641 38V23.22h3.377v5.989h6.535v-5.988h3.377V38h-3.377v-5.96h-6.535V38h-3.377zm17.554 0V23.22h3.295v9.913c2.552-3.628 4.886-6.932 7-9.912h3.199V38h-3.281v-9.857L241.381 38h-3.186zm16.926-7.396c0-1.404.305-2.69.916-3.856a7.093 7.093 0 012.584-2.803c1.112-.692 2.356-1.039 3.733-1.039.92 0 1.768.142 2.542.424.775.274 1.436.656 1.983 1.149a6.798 6.798 0 011.408 1.75c.392.665.679 1.39.861 2.173.192.784.288 1.604.288 2.461 0 .41-.019.725-.055.944h-10.869c.182 1.185.656 2.11 1.422 2.775.774.656 1.718.984 2.83.984.802 0 1.517-.14 2.146-.423.629-.292 1.249-.739 1.86-1.34l1.996 1.763c-1.532 1.85-3.551 2.776-6.057 2.776-1.422 0-2.707-.32-3.855-.957-1.149-.638-2.06-1.55-2.735-2.735-.665-1.184-.998-2.533-.998-4.046zm3.363-1.026h7.588c-.118-1.148-.506-2.083-1.162-2.803-.647-.729-1.508-1.093-2.584-1.093-1.021 0-1.877.36-2.57 1.08-.684.71-1.108 1.65-1.272 2.816z" fill="#fff"/><defs><linearGradient id="paint0_linear" x1="5.938" y1="-24.8" x2="377.564" y2="134.993" gradientUnits="userSpaceOnUse"><stop stop-color="#D5D3FF"/><stop offset="1" stop-color="#5EA9FF"/></linearGradient></defs></svg>