<svg xmlns="http://www.w3.org/2000/svg" width="300" height="80" viewBox="0 0 300 80" fill="none"><rect width="300" height="80" rx="5" fill="#F7F7F7"/><path d="M26.08 58h13.968c7.104 0 13.008-2.832 13.008-10.32 0-4.608-2.352-6.864-5.232-8.16 2.064-1.296 3.888-4.176 3.888-7.44 0-7.152-6.192-8.88-12.528-8.88H26.08V58zm6.096-15.6h7.776c4.656 0 6.816 1.68 6.816 5.28 0 3.456-2.112 5.424-6.48 5.424h-8.112V42.4zm0-14.304h7.584c3.456 0 5.76 1.584 5.76 4.656 0 3.456-2.16 4.992-5.76 4.992h-7.584v-9.648zm42.212 19.728c0 4.416-2.497 6.528-6.72 6.528-2.88 0-4.753-1.344-4.753-3.6 0-2.928 3.313-4.128 11.473-4.896v1.968zm-7.969 10.8c3.84 0 6.817-1.296 8.496-4.128.144 1.776.288 2.4.48 3.504h5.233c-.528-2.16-.769-5.568-.769-8.832 0-2.352.097-5.424.097-6.672.144-8.256-4.705-11.088-10.897-11.088-6.24 0-10.607 3.648-10.991 8.88h5.616c.144-3.12 2.303-4.656 5.184-4.656 2.88 0 5.376 1.344 5.376 5.76v.48c-9.409 1.008-17.377 2.544-17.377 9.024 0 4.704 3.937 7.728 9.553 7.728zm53.777-26.448h-5.712v21.312h-8.544V32.176h-5.712v21.312h-8.544V32.176h-5.712V58h34.224V32.176zm30.02 14.544c.528-8.64-4.464-15.12-12.384-15.12-7.344 0-12.672 5.52-12.672 13.296 0 7.44 4.752 13.728 13.056 13.728 6.624 0 10.56-4.224 11.712-8.352h-5.616c-1.008 2.448-3.312 3.6-6.336 3.6-3.264 0-6.624-2.352-7.008-7.152h19.248zm-12.384-10.656c3.36 0 6.432 2.448 6.576 6.48h-13.44c.528-4.848 4.176-6.48 6.864-6.48zM193.917 58V23.2h-22.896l-.24 9.552c-.24 11.28-1.633 20.16-6 20.16h-.672V58h1.44c7.44 0 10.608-8.448 11.136-22.224l.288-7.488h10.848V58h6.096zm11.491-12.864c0-5.952 3.168-8.88 6.816-8.88 3.648 0 6.816 2.928 6.816 8.88 0 5.952-3.168 8.832-6.816 8.832-3.648 0-6.816-2.88-6.816-8.832zm6.816-13.536c-6.288 0-12.72 4.224-12.72 13.536 0 9.36 6.432 13.488 12.72 13.488s12.72-4.128 12.72-13.488c0-9.312-6.432-13.536-12.72-13.536zm35.174 5.088v-4.512h-17.52V58h5.712V36.688h11.808zm7.65 8.448c0-5.952 3.168-8.88 6.816-8.88 3.648 0 6.816 2.928 6.816 8.88 0 5.952-3.168 8.832-6.816 8.832-3.648 0-6.816-2.88-6.816-8.832zm6.816-13.536c-6.288 0-12.72 4.224-12.72 13.536 0 9.36 6.432 13.488 12.72 13.488s12.72-4.128 12.72-13.488c0-9.312-6.432-13.536-12.72-13.536z" fill="#CBCBCB"/></svg>