<svg width="15" height="15" viewBox="0 0 15 15" fill="none" xmlns="http://www.w3.org/2000/svg">
<path fill-rule="evenodd" clip-rule="evenodd" d="M7.49999 1.05127C3.93846 1.05127 1.05127 3.93846 1.05127 7.49999C1.05127 11.0615 3.93846 13.9487 7.49999 13.9487C11.0615 13.9487 13.9487 11.0615 13.9487 7.49999C13.9487 3.93846 11.0615 1.05127 7.49999 1.05127ZM0.0512695 7.49999C0.0512695 3.38618 3.38618 0.0512695 7.49999 0.0512695C11.6138 0.0512695 14.9487 3.38618 14.9487 7.49999C14.9487 11.6138 11.6138 14.9487 7.49999 14.9487C3.38618 14.9487 0.0512695 11.6138 0.0512695 7.49999ZM8.27218 4.41146C8.27218 4.83787 7.9265 5.18354 7.5001 5.18354C7.07369 5.18354 6.72801 4.83787 6.72801 4.41146C6.72801 3.98505 7.07369 3.63938 7.5001 3.63938C7.9265 3.63938 8.27218 3.98505 8.27218 4.41146ZM8.00005 7.49983C8.00005 7.22369 7.77619 6.99983 7.50005 6.99983C7.22391 6.99983 7.00005 7.22369 7.00005 7.49983L7.00005 10.4998C7.00005 10.776 7.22391 10.9998 7.50005 10.9998C7.77619 10.9998 8.00005 10.776 8.00005 10.4998L8.00005 7.49983Z" fill="#888888"/>
</svg>
