<svg width="82" height="32" viewBox="0 0 82 32" fill="none" xmlns="http://www.w3.org/2000/svg">
<g clip-path="url(#clip0)">
<path d="M8.75541 8C3.92451 8 0 11.9435 0 16.7978C0 21.6521 3.92451 25.5956 8.75541 25.5956C13.5863 25.5956 17.5108 21.6521 17.5108 16.7978C17.5108 11.9435 13.5863 8 8.75541 8ZM8.75541 24.7139C4.40663 24.7139 0.87747 21.1579 0.87747 16.7978C0.87747 12.4377 4.40663 8.88172 8.75541 8.88172C13.1042 8.88172 16.6334 12.4377 16.6334 16.7978C16.6334 21.1579 13.1042 24.7139 8.75541 24.7139Z" fill="black"/>
<path d="M11.8795 11.1578C11.8505 11.1384 11.812 11.1287 11.7734 11.1287C11.6577 11.1287 11.5709 11.2159 11.5709 11.3322V14.0839C11.5709 14.1808 11.4938 14.2583 11.3973 14.2583H6.09397C5.99754 14.2583 5.93005 14.1808 5.9204 14.0839V11.3322C5.9204 11.2934 5.91076 11.2643 5.89147 11.2256C5.83362 11.1287 5.70827 11.0996 5.61184 11.1578C3.65441 12.3689 2.46838 14.4715 2.46838 16.7969C2.46838 19.1223 3.65441 21.2249 5.63113 22.436C5.66005 22.4554 5.69862 22.4651 5.73719 22.4651C5.85291 22.4651 5.93969 22.3779 5.93969 22.2616V19.5099C5.93969 19.413 6.01683 19.3451 6.11325 19.3355H11.4166C11.5131 19.3355 11.5902 19.413 11.5902 19.5099V22.2616C11.5902 22.3004 11.5998 22.3294 11.6191 22.3682C11.677 22.4651 11.8023 22.4941 11.8988 22.436C13.8755 21.2249 15.0615 19.1223 15.0615 16.7969C15.0615 14.4715 13.8562 12.3689 11.8795 11.1578ZM4.91758 20.2462L4.94651 20.5757L4.73437 20.3141C3.10479 18.2503 3.10479 15.3338 4.73437 13.27L4.91758 13.0375L4.94651 13.0084L4.91758 13.3475C4.88865 13.6188 4.87901 13.8998 4.87901 14.1808V19.4033C4.87901 19.6843 4.8983 19.9653 4.91758 20.2462ZM11.5709 18.1146C11.5709 18.2115 11.4938 18.289 11.3973 18.289H6.09397C5.99754 18.289 5.93005 18.2115 5.9204 18.1146V15.4791C5.9204 15.3823 5.99754 15.3047 6.09397 15.3047H11.3973C11.4938 15.3047 11.5709 15.3823 11.5709 15.4791V18.1146ZM12.7666 20.3141L12.5544 20.5757L12.5834 20.2462C12.6123 19.9749 12.6219 19.694 12.6219 19.413V14.1808C12.6219 13.8998 12.6123 13.6188 12.5834 13.3475L12.5737 13.2022L12.5641 13.0472V13.0084L12.7666 13.27C13.5573 14.2583 13.9912 15.5179 13.9912 16.7872C13.9912 18.0565 13.5573 19.3258 12.7666 20.3141Z" fill="black"/>
<path d="M30.7212 16.6421C30.6729 16.6227 30.6151 16.6033 30.6151 16.5452C30.6151 16.5064 30.6344 16.4773 30.6729 16.458C30.7404 16.4289 32.4086 15.8282 32.4086 13.8516C32.4086 11.6521 30.9333 10.3441 28.4455 10.3441H22.4189V23.2695H28.9951C30.914 23.2695 32.9775 21.9033 32.9775 19.7039C32.9775 17.6013 31.3961 16.8649 30.7212 16.6421ZM25.4563 12.9892C25.4563 12.9408 25.4949 12.902 25.5431 12.902H27.9345C28.7252 12.902 29.2651 13.4349 29.2651 14.2295C29.2651 14.8496 28.783 15.5181 27.8766 15.5181H25.5431C25.4949 15.5181 25.4563 15.4794 25.4563 15.4309V12.9892ZM27.9345 20.7212H25.5431C25.4949 20.7212 25.4563 20.6825 25.4563 20.634V18.0567C25.4563 18.0082 25.4949 17.9695 25.5431 17.9695H27.8766C29.0241 17.9695 29.6798 18.4636 29.6798 19.3357C29.6798 20.2368 29.0723 20.7212 27.9345 20.7212ZM53.3329 15.489L52.87 15.3922C51.8286 15.1693 50.8162 14.8883 50.8162 13.9872C50.8162 13.0861 51.6551 12.6792 52.4843 12.6792C53.4582 12.6792 54.4225 13.1152 55.1553 13.871L57.0645 11.9719C56.2449 11.0611 54.7889 10.0146 52.4361 10.0146C49.6012 10.0146 47.692 11.6327 47.692 14.0454C47.692 16.5936 49.688 17.5528 51.3658 17.9113L51.819 18.0082C53.4486 18.3571 54.22 18.6187 54.22 19.5488C54.22 20.3821 53.4775 20.9344 52.3783 20.9344C51.0862 20.9344 49.9387 20.3627 49.0709 19.2872L47.1134 21.2154C48.1548 22.4556 49.5337 23.5795 52.4168 23.5795C54.8757 23.5795 57.3731 22.1455 57.3731 19.3938C57.3634 16.5742 55.4542 15.9348 53.3329 15.489ZM78.7409 10.3441V15.0724C78.7409 15.1209 78.7023 15.1596 78.6541 15.1596H74.7007C74.6525 15.1596 74.6139 15.1209 74.6139 15.0724V10.3441H71.374V23.2695H74.6139V18.1923C74.6139 18.1439 74.6525 18.1051 74.7007 18.1051H78.6541C78.7023 18.1051 78.7409 18.1439 78.7409 18.1923V23.2695H82.0001V10.3441H78.7409ZM64.8557 20.6243C63.3997 20.6243 61.8279 19.4035 61.8279 16.7196C61.8279 14.2682 63.3032 12.9892 64.7593 12.9892C65.8199 12.9892 66.5624 13.4349 67.1506 14.4232L69.6384 12.7664C68.3656 10.8867 66.8517 10.034 64.74 10.034C60.6033 10.034 58.752 13.3962 58.752 16.7196C58.752 20.76 61.2012 23.5795 64.7014 23.5795C67.3049 23.5795 68.4909 22.6203 69.7348 20.8472L67.2277 19.1516C66.6685 20.0624 66.061 20.6243 64.8557 20.6243ZM40.2576 10.0146C36.7188 10.0146 34.3467 12.7373 34.3467 16.7971C34.3467 20.8569 36.7188 23.5795 40.2576 23.5795C43.7964 23.5795 46.1685 20.8569 46.1685 16.7971C46.1685 12.7373 43.7964 10.0146 40.2576 10.0146ZM40.2576 20.6243C38.522 20.6243 37.4034 19.1225 37.4034 16.7971C37.4034 14.4814 38.522 12.9892 40.2576 12.9892C42.0029 12.9892 43.1311 14.4814 43.1311 16.7971C43.1311 19.1225 42.0029 20.6243 40.2576 20.6243Z" fill="#FD3C2F"/>
</g>
<defs>
<clipPath id="clip0">
<rect width="82" height="32" fill="white"/>
</clipPath>
</defs>
</svg>
