<svg width="72" height="32" viewBox="0 0 72 32" fill="none" xmlns="http://www.w3.org/2000/svg">
<path d="M45.5283 10.6363C44.4907 10.9598 43.82 11.3953 43.0102 12.2165C42.1877 13.0751 41.7069 13.9958 41.4411 15.1904C40.9097 17.654 41.5677 20.0306 43.2 21.5735C44.5793 22.88 45.7181 23.2657 47.9452 23.1911C49.2738 23.1413 49.5016 23.104 50.2735 22.7556C51.2352 22.3076 52.374 21.3122 52.8548 20.5034C53.1712 19.9808 53.652 18.637 53.652 18.2886C53.652 18.1517 53.3736 18.1144 52.2981 18.1144H50.9315L50.691 18.6992C50.1343 20.0306 49.122 20.6527 47.5149 20.6527C46.3888 20.6527 45.9206 20.4785 45.1993 19.8066C44.6172 19.2716 44.3135 18.6619 44.1364 17.6291C43.7947 15.6881 44.554 13.9585 46.0598 13.1871C46.6292 12.8884 48.3248 12.876 48.9828 13.1622C49.704 13.4732 50.3114 14.0829 50.6278 14.8171L50.9315 15.5014H52.2981C52.3763 15.5014 52.4503 15.5016 52.5204 15.5017C53.1828 15.5032 53.4924 15.5038 53.5919 15.362C53.6792 15.2375 53.6049 15.0033 53.4652 14.5636C53.4483 14.5102 53.4303 14.4537 53.4116 14.394C53.0826 13.3613 52.6524 12.6894 51.8552 11.9303C50.6278 10.798 49.5016 10.3999 47.5149 10.4123C46.6545 10.4123 46.0218 10.487 45.5283 10.6363Z" fill="black"/>
<path fill-rule="evenodd" clip-rule="evenodd" d="M2.04991 10.7856C0.67065 11.4575 0 12.5649 0 14.1949C0 15.3646 0.316344 16.1858 1.06292 16.9075C1.77153 17.6167 2.45483 17.9029 3.55571 17.9651C4.93497 18.0398 5.68155 17.7785 6.59262 16.8826C7.41511 16.0738 7.71881 15.3397 7.71881 14.1949C7.71881 13.1498 7.42777 12.3907 6.73181 11.6317C5.90932 10.7234 5.15009 10.3999 3.84675 10.3999C2.96098 10.3999 2.72056 10.4497 2.04991 10.7856ZM4.97294 13.2617C5.3652 13.6972 5.42847 14.3069 5.12478 14.8793C4.85905 15.3895 4.45413 15.6259 3.84675 15.6259C2.82179 15.6259 2.07522 14.6056 2.44218 13.7346C2.92302 12.6272 4.16309 12.3907 4.97294 13.2617Z" fill="black"/>
<path fill-rule="evenodd" clip-rule="evenodd" d="M9.99648 23.1164V10.4994L13.1979 10.5492C16.0829 10.599 16.4626 10.6363 17.1459 10.8852C19.7905 11.8308 21.4228 14.0829 21.4228 16.8079C21.4228 19.5702 19.7779 21.8099 17.0826 22.7307C16.336 22.992 15.9817 23.0169 13.1346 23.0666L9.99648 23.1164ZM18.4745 15.4392C18.0949 14.4313 17.1206 13.4857 16.1842 13.212C15.7539 13.0875 15.02 13.0129 14.1469 13.0129H12.7803V20.6278L14.4 20.5781C15.8425 20.5407 16.0703 20.5034 16.6524 20.2048C18.3606 19.3338 19.1578 17.2434 18.4745 15.4392Z" fill="black"/>
<path fill-rule="evenodd" clip-rule="evenodd" d="M26.0795 10.7981C25.5353 12.2912 21.8911 22.8427 21.8911 22.9547C21.8911 23.0542 22.2707 23.0915 23.3083 23.0667L24.7129 23.0293L25.1557 21.7477L25.586 20.4786H30.8246L31.6851 23.0915H33.115C33.8995 23.0915 34.5448 23.0667 34.5448 23.0418C34.5448 22.9796 30.445 11.0843 30.3058 10.7359C30.2299 10.5492 30.0021 10.5243 28.2053 10.5243C26.2313 10.5243 26.1807 10.5243 26.0795 10.7981ZM29.2049 15.5885L30.0907 18.2389H28.1926C26.7248 18.2389 26.3072 18.2015 26.3578 18.0771L27.2816 15.3521C27.7624 13.9337 28.18 12.8138 28.2306 12.8636C28.2812 12.9133 28.7114 14.1452 29.2049 15.5885Z" fill="black"/>
<path d="M36.4429 23.0915V10.5243H39.1002V23.0915H36.4429Z" fill="black"/>
<path d="M55.6766 23.0915H58.4605V17.8656H63.9016V23.0915H66.6854V10.5243H63.9016V15.6259H58.4605V10.5243H55.6766V23.0915Z" fill="black"/>
<path d="M69.3427 23.0915V10.5243H72V23.0915H69.3427Z" fill="black"/>
</svg>
