<svg width="88" height="32" viewBox="0 0 88 32" fill="none" xmlns="http://www.w3.org/2000/svg">
<path d="M20.0421 7.48682H0.000244141V26.0185L20.0421 7.48682Z" fill="#44C8F5"/>
<path d="M10.0198 7.48682H0V16.7569L10.0198 7.48682Z" fill="black"/>
<path d="M48.0295 11.5099L45.4134 21.9927H50.0354L52.6502 11.5099H48.0295ZM36.8147 11.5083L30.8698 21.991H33.9271L34.9138 20.2436H39.1579L39.4739 21.991H43.9862L42.0681 11.5083H36.8147ZM37.4722 17.585H36.4122L38.1213 14.5613L38.6758 17.585H37.4722ZM69.1389 11.5099L66.5299 21.9927H71.1509L73.7618 11.5099H69.1389ZM67.0734 11.5099H62.3369L58.3724 14.939L59.2375 11.5099H54.8073L52.1977 21.9927H56.6143L57.5164 18.3736L59.8779 21.9927H65.2236L61.2643 16.5029L67.0734 11.5099ZM27.008 11.5148L25.8127 11.5109H20.029L17.4203 21.9898H23.1629L25.4352 21.9927C28.6341 21.9927 31.7825 19.6069 31.7825 15.9514C31.7818 11.6499 27.008 11.5148 27.008 11.5148ZM27.2426 16.2736C27.2426 16.2736 26.9423 19.6789 24.0472 19.6789H22.4092L23.8519 14.0246H25.3384C25.8703 14.0285 27.4099 14.1662 27.2426 16.2736ZM84.7998 11.5083L83.258 17.6811L81.2045 11.5083H76.0644L73.4532 21.9927H76.6495L78.2058 15.766L80.2661 21.9927H85.3839L88 11.5083H84.7998Z" fill="#00A0E0"/>
</svg>
