<svg width="480" height="320" viewBox="0 0 480 320" fill="none" xmlns="http://www.w3.org/2000/svg">
<path fill-rule="evenodd" clip-rule="evenodd" d="M180 216H24C20.6863 216 18 218.686 18 222V276C18 279.314 20.6863 282 24 282H180C183.314 282 186 279.314 186 276V222C186 218.686 183.314 216 180 216ZM24 214C19.5817 214 16 217.582 16 222V276C16 280.418 19.5817 284 24 284H180C184.418 284 188 280.418 188 276V222C188 217.582 184.418 214 180 214H24ZM29 270C29 269.448 29.4477 269 30 269L159 269C159.552 269 160 269.448 160 270C160 270.552 159.552 271 159 271L30 271C29.4477 271 29 270.552 29 270ZM168 269C167.448 269 167 269.448 167 270C167 270.552 167.448 271 168 271H174C174.552 271 175 270.552 175 270C175 269.448 174.552 269 174 269H168Z" fill="black"/>
<mask id="path-2-inside-1" fill="white">
<path fill-rule="evenodd" clip-rule="evenodd" d="M261.042 18C278.129 18 292.331 30.3431 295.207 46.5935C297.086 46.0366 299.076 45.7377 301.136 45.7377C312.633 45.7377 321.953 55.0516 321.953 66.5409C321.953 67.3377 321.909 68.124 321.821 68.8975C333.087 69.6234 342 78.9845 342 90.4259C342 102.341 332.334 112 320.411 112C319.888 112 319.37 111.981 318.857 111.945L318.869 112H209.383V111.991C209.127 111.997 208.87 112 208.612 112C191.153 112 177 97.8567 177 80.4099C177 65.2731 187.654 52.6228 201.877 49.5384C203.412 37.8278 213.437 28.7867 225.575 28.7867C228.69 28.7867 231.666 29.3822 234.395 30.4656C240.759 22.8472 250.334 18 261.042 18Z"/>
</mask>
<path d="M295.207 46.5935L293.238 46.942C293.337 47.503 293.671 47.995 294.155 48.2946C294.64 48.5942 295.229 48.6729 295.775 48.5111L295.207 46.5935ZM321.821 68.8975L319.834 68.6733C319.773 69.2169 319.937 69.762 320.288 70.1814C320.639 70.6009 321.147 70.8582 321.693 70.8934L321.821 68.8975ZM318.857 111.945L318.999 109.95C318.369 109.905 317.754 110.16 317.342 110.639C316.93 111.117 316.767 111.762 316.904 112.379L318.857 111.945ZM318.869 112V114C319.476 114 320.05 113.725 320.429 113.251C320.809 112.778 320.953 112.158 320.821 111.566L318.869 112ZM209.383 112H207.383C207.383 113.105 208.278 114 209.383 114V112ZM209.383 111.991H211.383C211.383 111.452 211.166 110.936 210.78 110.56C210.395 110.183 209.874 109.979 209.335 109.991L209.383 111.991ZM201.877 49.5384L202.301 51.493C203.126 51.314 203.75 50.6358 203.86 49.7984L201.877 49.5384ZM234.395 30.4656L233.657 32.3245C234.46 32.6431 235.376 32.4106 235.93 31.7478L234.395 30.4656ZM297.176 46.245C294.134 29.0549 279.115 16 261.042 16V20C277.143 20 290.528 31.6312 293.238 46.942L297.176 46.245ZM301.136 43.7377C298.881 43.7377 296.7 44.065 294.639 44.6759L295.775 48.5111C297.472 48.0083 299.27 47.7377 301.136 47.7377V43.7377ZM323.953 66.5409C323.953 53.9457 313.736 43.7377 301.136 43.7377V47.7377C311.53 47.7377 319.953 56.1575 319.953 66.5409H323.953ZM323.809 69.1217C323.904 68.274 323.953 67.4128 323.953 66.5409H319.953C319.953 67.2626 319.913 67.9741 319.834 68.6733L323.809 69.1217ZM321.693 70.8934C331.914 71.5519 340 80.0472 340 90.4259H344C344 77.9219 334.26 67.6948 321.95 66.9016L321.693 70.8934ZM340 90.4259C340 101.235 331.231 110 320.411 110V114C333.438 114 344 103.447 344 90.4259H340ZM320.411 110C319.936 110 319.465 109.983 318.999 109.95L318.715 113.94C319.275 113.979 319.841 114 320.411 114V110ZM320.821 111.566L320.809 111.51L316.904 112.379L316.917 112.434L320.821 111.566ZM209.383 114H318.869V110H209.383V114ZM207.383 111.991V112H211.383V111.991H207.383ZM208.612 114C208.886 114 209.159 113.997 209.431 113.99L209.335 109.991C209.095 109.997 208.854 110 208.612 110V114ZM175 80.4099C175 98.9625 190.05 114 208.612 114V110C192.256 110 179 96.7508 179 80.4099H175ZM201.453 47.5838C186.33 50.8633 175 64.3113 175 80.4099H179C179 66.2349 188.977 54.3822 202.301 51.493L201.453 47.5838ZM225.575 26.7867C212.421 26.7867 201.558 36.5842 199.894 49.2784L203.86 49.7984C205.266 39.0714 214.453 30.7867 225.575 30.7867V26.7867ZM235.133 28.6067C232.173 27.4317 228.947 26.7867 225.575 26.7867V30.7867C228.433 30.7867 231.159 31.3328 233.657 32.3245L235.133 28.6067ZM261.042 16C249.717 16 239.588 21.1293 232.86 29.1833L235.93 31.7478C241.93 24.565 250.952 20 261.042 20V16Z" fill="url(#paint0_linear)" mask="url(#path-2-inside-1)"/>
<path d="M309 285H319M455 285H440M319 285V271M319 285L337 285M319 271C315.204 271 309 269.651 309 257C309 243.084 315.204 237.265 319 236C322.796 237.265 329 243.717 329 257C329 269.651 322.796 271 319 271ZM337 285V189H359M337 285H346M359 189V180H418V189M359 189H418M418 189H440V285M440 285L431 285M346 285V271M346 285H363M431 285V271M431 285L414 285M346 213V198H363M346 213H431M346 213V227M431 213V198H414M431 213V227M346 227H431M346 227V241M431 227V241M346 241H431M346 241V256M431 241V256M346 256H431M346 256V271M431 256V271M346 271H431M363 198V285M363 198H380M363 285L380 285M380 198V285M380 198H397M380 285L397 285M397 198V285M397 198H414M397 285L414 285M414 198V285" stroke="black" stroke-width="2" stroke-linecap="round" stroke-linejoin="round"/>
<path fill-rule="evenodd" clip-rule="evenodd" d="M387.903 162.295C386.146 128.486 360.495 92 315 92V91C361.161 91 387.139 128.05 388.904 162.283C390.787 162.507 392.246 164.109 392.246 166.052C392.246 168.149 390.547 169.848 388.45 169.848C386.354 169.848 384.654 168.149 384.654 166.052C384.654 164.141 386.066 162.56 387.903 162.295Z" fill="url(#paint1_linear)"/>
<path fill-rule="evenodd" clip-rule="evenodd" d="M207.028 95.1896C209.125 95.1896 210.825 93.49 210.825 91.3934C210.825 89.2968 209.125 87.5972 207.028 87.5972C205.085 87.5972 203.482 89.058 203.259 90.9417C165.66 91.9134 140.528 107.431 124.708 128.332C108.381 149.904 102 177.169 102 200H103C103 177.331 109.34 150.293 125.505 128.936C141.135 108.286 165.977 92.9089 203.272 91.9417C203.537 93.7785 205.118 95.1896 207.028 95.1896Z" fill="url(#paint2_linear)"/>
<path d="M28.3047 307.799C28.3047 307.229 28.4062 306.682 28.6094 306.158C28.8164 305.631 29.0996 305.168 29.459 304.77C29.8223 304.371 30.2715 304.053 30.8066 303.814C31.3418 303.576 31.918 303.457 32.5352 303.457C33.1562 303.457 33.7324 303.576 34.2637 303.814C34.7949 304.049 35.2402 304.365 35.5996 304.764C35.959 305.158 36.2402 305.619 36.4434 306.146C36.6465 306.67 36.748 307.221 36.748 307.799C36.748 308.369 36.6445 308.918 36.4375 309.445C36.2344 309.969 35.9512 310.432 35.5879 310.834C35.2246 311.232 34.7754 311.551 34.2402 311.789C33.7051 312.027 33.1289 312.146 32.5117 312.146C31.8906 312.146 31.3145 312.029 30.7832 311.795C30.252 311.557 29.8066 311.238 29.4473 310.84C29.0918 310.441 28.8125 309.98 28.6094 309.457C28.4062 308.93 28.3047 308.377 28.3047 307.799ZM28.9492 307.799C28.9492 308.486 29.1016 309.119 29.4062 309.697C29.7148 310.271 30.1445 310.729 30.6953 311.068C31.2461 311.408 31.8594 311.578 32.5352 311.578C33.2109 311.578 33.8223 311.41 34.3691 311.074C34.9199 310.734 35.3457 310.277 35.6465 309.703C35.9512 309.129 36.1035 308.494 36.1035 307.799C36.1035 307.287 36.0117 306.799 35.8281 306.334C35.6484 305.869 35.4004 305.469 35.084 305.133C34.7715 304.793 34.3906 304.523 33.9414 304.324C33.4961 304.121 33.0195 304.02 32.5117 304.02C31.8359 304.02 31.2246 304.189 30.6777 304.529C30.1309 304.865 29.7051 305.32 29.4004 305.895C29.0996 306.469 28.9492 307.104 28.9492 307.799ZM38.459 308.783C38.459 308.521 38.4609 308.297 38.4648 308.109C38.4688 307.922 38.4785 307.707 38.4941 307.465C38.5098 307.223 38.5312 307.014 38.5586 306.838C38.5898 306.662 38.6328 306.471 38.6875 306.264C38.7422 306.057 38.8066 305.879 38.8809 305.73C38.9551 305.578 39.0469 305.424 39.1562 305.268C39.2656 305.111 39.3906 304.979 39.5312 304.869C39.6719 304.756 39.8359 304.652 40.0234 304.559C40.2109 304.465 40.418 304.389 40.6445 304.33L44.125 303.457L44.2949 303.984L40.9316 304.869C40.2871 305.041 39.8242 305.309 39.543 305.672C39.2656 306.035 39.0977 306.576 39.0391 307.295C39.6172 306.334 40.5 305.854 41.6875 305.854C42.2148 305.854 42.7051 305.996 43.1582 306.281C43.6113 306.566 43.9688 306.949 44.2305 307.43C44.4961 307.91 44.6289 308.426 44.6289 308.977C44.6289 309.543 44.4961 310.068 44.2305 310.553C43.9688 311.033 43.5996 311.42 43.123 311.713C42.6465 312.002 42.1172 312.146 41.5352 312.146C40.6367 312.146 39.8984 311.838 39.3203 311.221C38.7461 310.604 38.459 309.791 38.459 308.783ZM39.7891 307.166C39.3281 307.666 39.0977 308.277 39.0977 309C39.0977 309.723 39.334 310.336 39.8066 310.84C40.2832 311.34 40.8672 311.59 41.5586 311.59C42.2578 311.59 42.8379 311.34 43.2988 310.84C43.7598 310.336 43.9902 309.723 43.9902 309C43.9902 308.277 43.7539 307.666 43.2812 307.166C42.8086 306.662 42.2266 306.41 41.5352 306.41C40.8359 306.41 40.2539 306.662 39.7891 307.166ZM45.3672 312L45.4785 311.461C45.6699 311.516 45.8242 311.543 45.9414 311.543C46.0742 311.543 46.1855 311.533 46.2754 311.514C46.3691 311.49 46.4688 311.438 46.5742 311.355C46.6797 311.273 46.7676 311.158 46.8379 311.01C46.9082 310.861 46.9766 310.656 47.043 310.395C47.1133 310.133 47.168 309.816 47.207 309.445C47.25 309.07 47.2852 308.611 47.3125 308.068C47.3398 307.525 47.3555 306.904 47.3594 306.205V305.883H51.5254V312H50.9336V306.41H47.9219V306.574C47.9219 307.289 47.9043 307.924 47.8691 308.479C47.8379 309.029 47.7949 309.498 47.7402 309.885C47.6895 310.271 47.6191 310.602 47.5293 310.875C47.4395 311.145 47.3477 311.359 47.2539 311.52C47.1602 311.676 47.043 311.799 46.9023 311.889C46.7617 311.975 46.627 312.029 46.498 312.053C46.373 312.08 46.2207 312.094 46.041 312.094C45.8184 312.094 45.5938 312.062 45.3672 312ZM53.2539 310.201C53.2539 309.576 53.498 309.088 53.9863 308.736C54.4785 308.385 55.127 308.209 55.9316 308.209C56.6309 308.209 57.3066 308.297 57.959 308.473V308.209C57.959 307.6 57.7812 307.135 57.4258 306.814C57.0742 306.494 56.5801 306.334 55.9434 306.334C55.3105 306.334 54.6719 306.498 54.0273 306.826L53.8105 306.311C54.5723 305.959 55.2949 305.783 55.9785 305.783C56.8184 305.783 57.4629 306.008 57.9121 306.457C58.3301 306.875 58.5391 307.451 58.5391 308.186V312H57.959V310.98C57.7168 311.316 57.4004 311.596 57.0098 311.818C56.6191 312.037 56.1562 312.146 55.6211 312.146C55.1914 312.146 54.8008 312.076 54.4492 311.936C54.0977 311.795 53.8105 311.574 53.5879 311.273C53.3652 310.973 53.2539 310.615 53.2539 310.201ZM53.8926 310.189C53.8926 310.627 54.0527 310.971 54.373 311.221C54.6934 311.467 55.1211 311.59 55.6562 311.59C56.293 311.59 56.8379 311.414 57.291 311.062C57.7441 310.707 57.9707 310.256 57.9707 309.709V309.012C57.2676 308.828 56.5762 308.736 55.8965 308.736C55.2598 308.736 54.7656 308.867 54.4141 309.129C54.0664 309.391 53.8926 309.744 53.8926 310.189ZM60.3613 308.174V305.883H60.9531V308.186C60.9531 308.561 61.0762 308.859 61.3223 309.082C61.5684 309.301 61.9043 309.41 62.3301 309.41C62.6973 309.41 63.0879 309.348 63.502 309.223C63.916 309.098 64.2656 308.936 64.5508 308.736V305.883H65.1367V312H64.5508V309.322C64.2695 309.482 63.9238 309.627 63.5137 309.756C63.1035 309.885 62.7168 309.949 62.3535 309.949C61.7363 309.949 61.25 309.797 60.8945 309.492C60.5391 309.188 60.3613 308.748 60.3613 308.174ZM67.3633 312V305.883H67.9551V308.602H72.0215V305.883H72.6074V312H72.0215V309.135H67.9551V312H67.3633ZM74.8398 312V305.883H75.4316V308.232H77.2539C77.5781 308.232 77.8789 308.268 78.1562 308.338C78.4336 308.408 78.6797 308.516 78.8945 308.66C79.1133 308.801 79.2832 308.988 79.4043 309.223C79.5293 309.457 79.5918 309.727 79.5918 310.031C79.5918 310.625 79.3887 311.102 78.9824 311.461C78.5762 311.82 78.0371 312 77.3652 312H74.8398ZM75.4316 311.473H77.2656C77.7852 311.473 78.1973 311.348 78.502 311.098C78.8066 310.848 78.959 310.5 78.959 310.055C78.959 309.645 78.8027 309.326 78.4902 309.1C78.1816 308.873 77.7578 308.76 77.2188 308.76H75.4316V311.473ZM80.8164 312V305.883H81.4082V312H80.8164ZM83.6406 312V305.883H84.2324V311.221L88.3809 305.883H88.9727V312H88.3809V306.662L84.2324 312H83.6406ZM84.6895 303.504L85.1816 303.398C85.3379 303.98 85.7129 304.271 86.3066 304.271C86.9043 304.271 87.2812 303.98 87.4375 303.398L87.9297 303.504C87.8555 303.902 87.6699 304.232 87.373 304.494C87.0762 304.756 86.7207 304.887 86.3066 304.887C85.8926 304.887 85.5371 304.756 85.2402 304.494C84.9473 304.232 84.7637 303.902 84.6895 303.504ZM94.7969 312V305.883H95.3887V309.803L99.1797 305.883H99.959L97.2812 308.59L100.041 312H99.2969L96.877 309.012L95.3887 310.512V312H94.7969ZM101.049 308.941C101.049 308.516 101.129 308.107 101.289 307.717C101.449 307.326 101.666 306.986 101.939 306.697C102.213 306.404 102.547 306.172 102.941 306C103.336 305.824 103.756 305.736 104.201 305.736C104.791 305.736 105.326 305.883 105.807 306.176C106.291 306.465 106.666 306.855 106.932 307.348C107.201 307.836 107.336 308.367 107.336 308.941C107.336 309.512 107.201 310.041 106.932 310.529C106.662 311.018 106.283 311.41 105.795 311.707C105.311 312 104.771 312.146 104.178 312.146C103.736 312.146 103.32 312.061 102.93 311.889C102.539 311.717 102.207 311.486 101.934 311.197C101.66 310.908 101.443 310.568 101.283 310.178C101.127 309.783 101.049 309.371 101.049 308.941ZM101.682 308.941C101.682 309.68 101.924 310.307 102.408 310.822C102.896 311.334 103.494 311.59 104.201 311.59C104.646 311.59 105.061 311.473 105.443 311.238C105.826 311 106.131 310.678 106.357 310.271C106.584 309.865 106.697 309.422 106.697 308.941C106.697 308.207 106.451 307.582 105.959 307.066C105.467 306.547 104.873 306.287 104.178 306.287C103.725 306.287 103.307 306.406 102.924 306.645C102.541 306.879 102.238 307.201 102.016 307.611C101.793 308.018 101.682 308.461 101.682 308.941ZM109.141 312V305.883H109.732V308.602H113.799V305.883H114.385V312H113.799V309.135H109.732V312H109.141ZM115.674 311.473H116.477C117.074 310.484 117.373 309.053 117.373 307.178V305.883H121.48V311.473H122.465L122.342 313.729H121.861V312H116.283L116.166 313.729H115.674V311.473ZM117.121 311.473H120.895V306.41H117.941V307.512C117.941 308.312 117.865 309.07 117.713 309.785C117.564 310.496 117.367 311.059 117.121 311.473ZM123.941 312V305.883H124.533V311.221L128.682 305.883H129.273V312H128.682V306.662L124.533 312H123.941ZM131.5 312V305.883H132.092V311.473H136V305.883H136.592V311.473H137.576L137.453 313.729H136.973V312H131.5ZM139.047 312V305.883H139.639V311.221L143.787 305.883H144.379V312H143.787V306.662L139.639 312H139.047ZM146.189 308.941C146.189 308.516 146.27 308.107 146.43 307.717C146.59 307.326 146.807 306.986 147.08 306.697C147.354 306.404 147.688 306.172 148.082 306C148.477 305.824 148.896 305.736 149.342 305.736C149.932 305.736 150.467 305.883 150.947 306.176C151.432 306.465 151.807 306.855 152.072 307.348C152.342 307.836 152.477 308.367 152.477 308.941C152.477 309.512 152.342 310.041 152.072 310.529C151.803 311.018 151.424 311.41 150.936 311.707C150.451 312 149.912 312.146 149.318 312.146C148.877 312.146 148.461 312.061 148.07 311.889C147.68 311.717 147.348 311.486 147.074 311.197C146.801 310.908 146.584 310.568 146.424 310.178C146.268 309.783 146.189 309.371 146.189 308.941ZM146.822 308.941C146.822 309.68 147.064 310.307 147.549 310.822C148.037 311.334 148.635 311.59 149.342 311.59C149.787 311.59 150.201 311.473 150.584 311.238C150.967 311 151.271 310.678 151.498 310.271C151.725 309.865 151.838 309.422 151.838 308.941C151.838 308.207 151.592 307.582 151.1 307.066C150.607 306.547 150.014 306.287 149.318 306.287C148.865 306.287 148.447 306.406 148.064 306.645C147.682 306.879 147.379 307.201 147.156 307.611C146.934 308.018 146.822 308.461 146.822 308.941ZM154.281 312V305.883H154.873V308.602H158.939V305.883H159.525V312H158.939V309.135H154.873V312H154.281ZM161.342 308.93C161.342 308.492 161.416 308.078 161.564 307.688C161.713 307.293 161.914 306.953 162.168 306.668C162.422 306.383 162.729 306.156 163.088 305.988C163.451 305.82 163.836 305.736 164.242 305.736C164.801 305.736 165.295 305.879 165.725 306.164C166.158 306.445 166.488 306.828 166.715 307.312C166.941 307.797 167.055 308.34 167.055 308.941C167.055 309.039 167.051 309.119 167.043 309.182H161.963C162.014 309.916 162.27 310.502 162.73 310.939C163.195 311.373 163.74 311.59 164.365 311.59C165.17 311.59 165.869 311.271 166.463 310.635L166.873 310.992C166.529 311.363 166.158 311.648 165.76 311.848C165.365 312.047 164.893 312.146 164.342 312.146C163.943 312.146 163.561 312.068 163.193 311.912C162.83 311.756 162.512 311.541 162.238 311.268C161.965 310.99 161.746 310.65 161.582 310.248C161.422 309.842 161.342 309.402 161.342 308.93ZM161.963 308.654H166.416C166.396 308.338 166.336 308.041 166.234 307.764C166.133 307.482 165.994 307.23 165.818 307.008C165.643 306.781 165.416 306.604 165.139 306.475C164.865 306.342 164.559 306.275 164.219 306.275C163.617 306.275 163.104 306.502 162.678 306.955C162.256 307.408 162.018 307.975 161.963 308.654ZM168.766 313.922V305.883H169.357V307.248C170.018 306.24 170.857 305.736 171.877 305.736C172.248 305.736 172.609 305.811 172.961 305.959C173.316 306.107 173.635 306.314 173.916 306.58C174.197 306.846 174.424 307.184 174.596 307.594C174.768 308.004 174.854 308.453 174.854 308.941C174.854 309.422 174.768 309.867 174.596 310.277C174.424 310.688 174.197 311.027 173.916 311.297C173.635 311.562 173.316 311.771 172.961 311.924C172.609 312.072 172.248 312.146 171.877 312.146C170.838 312.146 169.998 311.658 169.357 310.682V313.922H168.766ZM169.322 308.953C169.322 309.457 169.441 309.914 169.68 310.324C169.922 310.73 170.232 311.041 170.611 311.256C170.99 311.471 171.393 311.578 171.818 311.578C172.506 311.578 173.076 311.342 173.529 310.869C173.986 310.396 174.215 309.754 174.215 308.941C174.215 308.551 174.15 308.189 174.021 307.857C173.893 307.521 173.719 307.242 173.5 307.02C173.281 306.793 173.025 306.617 172.732 306.492C172.443 306.363 172.139 306.299 171.818 306.299C171.502 306.299 171.193 306.365 170.893 306.498C170.592 306.627 170.324 306.805 170.09 307.031C169.859 307.258 169.674 307.539 169.533 307.875C169.393 308.211 169.322 308.57 169.322 308.953Z" fill="black" fill-opacity="0.7"/>
<path d="M329.559 312V303.598H330.18V311.098L335.641 303.598H336.256V312H335.629V304.5L330.18 312H329.559ZM338.611 312V305.883H339.203V308.602H343.27V305.883H343.855V312H343.27V309.135H339.203V312H338.611ZM345.285 312L347.881 308.531L345.443 305.883H346.188L349.691 309.779V305.883H350.277V309.779L353.781 305.883H354.525L352.076 308.531L354.684 312H353.963L351.707 308.953L350.277 310.5V312H349.691V310.5L348.262 308.941L346.006 312H345.285ZM355.691 308.93C355.691 308.492 355.766 308.078 355.914 307.688C356.062 307.293 356.264 306.953 356.518 306.668C356.771 306.383 357.078 306.156 357.438 305.988C357.801 305.82 358.186 305.736 358.592 305.736C359.15 305.736 359.645 305.879 360.074 306.164C360.508 306.445 360.838 306.828 361.064 307.312C361.291 307.797 361.404 308.34 361.404 308.941C361.404 309.039 361.4 309.119 361.393 309.182H356.312C356.363 309.916 356.619 310.502 357.08 310.939C357.545 311.373 358.09 311.59 358.715 311.59C359.52 311.59 360.219 311.271 360.812 310.635L361.223 310.992C360.879 311.363 360.508 311.648 360.109 311.848C359.715 312.047 359.242 312.146 358.691 312.146C358.293 312.146 357.91 312.068 357.543 311.912C357.18 311.756 356.861 311.541 356.588 311.268C356.314 310.99 356.096 310.65 355.932 310.248C355.771 309.842 355.691 309.402 355.691 308.93ZM356.312 308.654H360.766C360.746 308.338 360.686 308.041 360.584 307.764C360.482 307.482 360.344 307.23 360.168 307.008C359.992 306.781 359.766 306.604 359.488 306.475C359.215 306.342 358.908 306.275 358.568 306.275C357.967 306.275 357.453 306.502 357.027 306.955C356.605 307.408 356.367 307.975 356.312 308.654ZM363.115 312V305.883H363.707V308.602H367.773V305.883H368.359V312H367.773V309.135H363.707V312H363.115ZM370.176 308.93C370.176 308.492 370.25 308.078 370.398 307.688C370.547 307.293 370.748 306.953 371.002 306.668C371.256 306.383 371.562 306.156 371.922 305.988C372.285 305.82 372.67 305.736 373.076 305.736C373.635 305.736 374.129 305.879 374.559 306.164C374.992 306.445 375.322 306.828 375.549 307.312C375.775 307.797 375.889 308.34 375.889 308.941C375.889 309.039 375.885 309.119 375.877 309.182H370.797C370.848 309.916 371.104 310.502 371.564 310.939C372.029 311.373 372.574 311.59 373.199 311.59C374.004 311.59 374.703 311.271 375.297 310.635L375.707 310.992C375.363 311.363 374.992 311.648 374.594 311.848C374.199 312.047 373.727 312.146 373.176 312.146C372.777 312.146 372.395 312.068 372.027 311.912C371.664 311.756 371.346 311.541 371.072 311.268C370.799 310.99 370.58 310.65 370.416 310.248C370.256 309.842 370.176 309.402 370.176 308.93ZM370.797 308.654H375.25C375.23 308.338 375.17 308.041 375.068 307.764C374.967 307.482 374.828 307.23 374.652 307.008C374.477 306.781 374.25 306.604 373.973 306.475C373.699 306.342 373.393 306.275 373.053 306.275C372.451 306.275 371.938 306.502 371.512 306.955C371.09 307.408 370.852 307.975 370.797 308.654ZM377.6 313.922V305.883H378.191V307.248C378.852 306.24 379.691 305.736 380.711 305.736C381.082 305.736 381.443 305.811 381.795 305.959C382.15 306.107 382.469 306.314 382.75 306.58C383.031 306.846 383.258 307.184 383.43 307.594C383.602 308.004 383.688 308.453 383.688 308.941C383.688 309.422 383.602 309.867 383.43 310.277C383.258 310.688 383.031 311.027 382.75 311.297C382.469 311.562 382.15 311.771 381.795 311.924C381.443 312.072 381.082 312.146 380.711 312.146C379.672 312.146 378.832 311.658 378.191 310.682V313.922H377.6ZM378.156 308.953C378.156 309.457 378.275 309.914 378.514 310.324C378.756 310.73 379.066 311.041 379.445 311.256C379.824 311.471 380.227 311.578 380.652 311.578C381.34 311.578 381.91 311.342 382.363 310.869C382.82 310.396 383.049 309.754 383.049 308.941C383.049 308.551 382.984 308.189 382.855 307.857C382.727 307.521 382.553 307.242 382.334 307.02C382.115 306.793 381.859 306.617 381.566 306.492C381.277 306.363 380.973 306.299 380.652 306.299C380.336 306.299 380.027 306.365 379.727 306.498C379.426 306.627 379.158 306.805 378.924 307.031C378.693 307.258 378.508 307.539 378.367 307.875C378.227 308.211 378.156 308.57 378.156 308.953ZM385.521 312V305.883H386.113V308.602H390.18V305.883H390.766V312H390.18V309.135H386.113V312H385.521ZM392.998 312V305.883H393.59V308.232H395.412C395.736 308.232 396.037 308.268 396.314 308.338C396.592 308.408 396.838 308.516 397.053 308.66C397.271 308.801 397.441 308.988 397.562 309.223C397.688 309.457 397.75 309.727 397.75 310.031C397.75 310.625 397.547 311.102 397.141 311.461C396.734 311.82 396.195 312 395.523 312H392.998ZM393.59 311.473H395.424C395.943 311.473 396.355 311.348 396.66 311.098C396.965 310.848 397.117 310.5 397.117 310.055C397.117 309.645 396.961 309.326 396.648 309.1C396.34 308.873 395.916 308.76 395.377 308.76H393.59V311.473ZM398.975 312V305.883H399.566V312H398.975ZM401.799 312V305.883H402.391V311.221L406.539 305.883H407.131V312H406.539V306.662L402.391 312H401.799ZM402.848 303.504L403.34 303.398C403.496 303.98 403.871 304.271 404.465 304.271C405.062 304.271 405.439 303.98 405.596 303.398L406.088 303.504C406.014 303.902 405.828 304.232 405.531 304.494C405.234 304.756 404.879 304.887 404.465 304.887C404.051 304.887 403.695 304.756 403.398 304.494C403.105 304.232 402.922 303.902 402.848 303.504ZM412.955 312V305.883H413.547V311.473H417.455V305.883H418.047V311.473H419.031L418.908 313.729H418.428V312H412.955ZM420.086 308.93C420.086 308.492 420.16 308.078 420.309 307.688C420.457 307.293 420.658 306.953 420.912 306.668C421.166 306.383 421.473 306.156 421.832 305.988C422.195 305.82 422.58 305.736 422.986 305.736C423.545 305.736 424.039 305.879 424.469 306.164C424.902 306.445 425.232 306.828 425.459 307.312C425.686 307.797 425.799 308.34 425.799 308.941C425.799 309.039 425.795 309.119 425.787 309.182H420.707C420.758 309.916 421.014 310.502 421.475 310.939C421.939 311.373 422.484 311.59 423.109 311.59C423.914 311.59 424.613 311.271 425.207 310.635L425.617 310.992C425.273 311.363 424.902 311.648 424.504 311.848C424.109 312.047 423.637 312.146 423.086 312.146C422.688 312.146 422.305 312.068 421.938 311.912C421.574 311.756 421.256 311.541 420.982 311.268C420.709 310.99 420.49 310.65 420.326 310.248C420.166 309.842 420.086 309.402 420.086 308.93ZM420.707 308.654H425.16C425.141 308.338 425.08 308.041 424.979 307.764C424.877 307.482 424.738 307.23 424.562 307.008C424.387 306.781 424.16 306.604 423.883 306.475C423.609 306.342 423.303 306.275 422.963 306.275C422.361 306.275 421.848 306.502 421.422 306.955C421 307.408 420.762 307.975 420.707 308.654ZM427.51 312V305.883H428.102V308.602H432.168V305.883H432.754V312H432.168V309.135H428.102V312H427.51ZM434.23 306.41V305.883H439.404V306.41H437.113V312H436.527V306.41H434.23ZM440.881 313.922V305.883H441.473V307.248C442.133 306.24 442.973 305.736 443.992 305.736C444.363 305.736 444.725 305.811 445.076 305.959C445.432 306.107 445.75 306.314 446.031 306.58C446.312 306.846 446.539 307.184 446.711 307.594C446.883 308.004 446.969 308.453 446.969 308.941C446.969 309.422 446.883 309.867 446.711 310.277C446.539 310.688 446.312 311.027 446.031 311.297C445.75 311.562 445.432 311.771 445.076 311.924C444.725 312.072 444.363 312.146 443.992 312.146C442.953 312.146 442.113 311.658 441.473 310.682V313.922H440.881ZM441.438 308.953C441.438 309.457 441.557 309.914 441.795 310.324C442.037 310.73 442.348 311.041 442.727 311.256C443.105 311.471 443.508 311.578 443.934 311.578C444.621 311.578 445.191 311.342 445.645 310.869C446.102 310.396 446.33 309.754 446.33 308.941C446.33 308.551 446.266 308.189 446.137 307.857C446.008 307.521 445.834 307.242 445.615 307.02C445.396 306.793 445.141 306.617 444.848 306.492C444.559 306.363 444.254 306.299 443.934 306.299C443.617 306.299 443.309 306.365 443.008 306.498C442.707 306.627 442.439 306.805 442.205 307.031C441.975 307.258 441.789 307.539 441.648 307.875C441.508 308.211 441.438 308.57 441.438 308.953Z" fill="black" fill-opacity="0.7"/>
<path d="M211.986 133.799C211.986 133.229 212.088 132.682 212.291 132.158C212.498 131.631 212.781 131.168 213.141 130.77C213.504 130.371 213.953 130.053 214.488 129.814C215.023 129.576 215.6 129.457 216.217 129.457C216.838 129.457 217.414 129.576 217.945 129.814C218.477 130.049 218.922 130.365 219.281 130.764C219.641 131.158 219.922 131.619 220.125 132.146C220.328 132.67 220.43 133.221 220.43 133.799C220.43 134.369 220.326 134.918 220.119 135.445C219.916 135.969 219.633 136.432 219.27 136.834C218.906 137.232 218.457 137.551 217.922 137.789C217.387 138.027 216.811 138.146 216.193 138.146C215.572 138.146 214.996 138.029 214.465 137.795C213.934 137.557 213.488 137.238 213.129 136.84C212.773 136.441 212.494 135.98 212.291 135.457C212.088 134.93 211.986 134.377 211.986 133.799ZM212.631 133.799C212.631 134.486 212.783 135.119 213.088 135.697C213.396 136.271 213.826 136.729 214.377 137.068C214.928 137.408 215.541 137.578 216.217 137.578C216.893 137.578 217.504 137.41 218.051 137.074C218.602 136.734 219.027 136.277 219.328 135.703C219.633 135.129 219.785 134.494 219.785 133.799C219.785 133.287 219.693 132.799 219.51 132.334C219.33 131.869 219.082 131.469 218.766 131.133C218.453 130.793 218.072 130.523 217.623 130.324C217.178 130.121 216.701 130.02 216.193 130.02C215.518 130.02 214.906 130.189 214.359 130.529C213.812 130.865 213.387 131.32 213.082 131.895C212.781 132.469 212.631 133.104 212.631 133.799ZM222.141 134.783C222.141 134.521 222.143 134.297 222.146 134.109C222.15 133.922 222.16 133.707 222.176 133.465C222.191 133.223 222.213 133.014 222.24 132.838C222.271 132.662 222.314 132.471 222.369 132.264C222.424 132.057 222.488 131.879 222.562 131.73C222.637 131.578 222.729 131.424 222.838 131.268C222.947 131.111 223.072 130.979 223.213 130.869C223.354 130.756 223.518 130.652 223.705 130.559C223.893 130.465 224.1 130.389 224.326 130.33L227.807 129.457L227.977 129.984L224.613 130.869C223.969 131.041 223.506 131.309 223.225 131.672C222.947 132.035 222.779 132.576 222.721 133.295C223.299 132.334 224.182 131.854 225.369 131.854C225.896 131.854 226.387 131.996 226.84 132.281C227.293 132.566 227.65 132.949 227.912 133.43C228.178 133.91 228.311 134.426 228.311 134.977C228.311 135.543 228.178 136.068 227.912 136.553C227.65 137.033 227.281 137.42 226.805 137.713C226.328 138.002 225.799 138.146 225.217 138.146C224.318 138.146 223.58 137.838 223.002 137.221C222.428 136.604 222.141 135.791 222.141 134.783ZM223.471 133.166C223.01 133.666 222.779 134.277 222.779 135C222.779 135.723 223.016 136.336 223.488 136.84C223.965 137.34 224.549 137.59 225.24 137.59C225.939 137.59 226.52 137.34 226.98 136.84C227.441 136.336 227.672 135.723 227.672 135C227.672 134.277 227.436 133.666 226.963 133.166C226.49 132.662 225.908 132.41 225.217 132.41C224.518 132.41 223.936 132.662 223.471 133.166ZM229.049 138L229.16 137.461C229.352 137.516 229.506 137.543 229.623 137.543C229.756 137.543 229.867 137.533 229.957 137.514C230.051 137.49 230.15 137.438 230.256 137.355C230.361 137.273 230.449 137.158 230.52 137.01C230.59 136.861 230.658 136.656 230.725 136.395C230.795 136.133 230.85 135.816 230.889 135.445C230.932 135.07 230.967 134.611 230.994 134.068C231.021 133.525 231.037 132.904 231.041 132.205V131.883H235.207V138H234.615V132.41H231.604V132.574C231.604 133.289 231.586 133.924 231.551 134.479C231.52 135.029 231.477 135.498 231.422 135.885C231.371 136.271 231.301 136.602 231.211 136.875C231.121 137.145 231.029 137.359 230.936 137.52C230.842 137.676 230.725 137.799 230.584 137.889C230.443 137.975 230.309 138.029 230.18 138.053C230.055 138.08 229.902 138.094 229.723 138.094C229.5 138.094 229.275 138.062 229.049 138ZM236.936 136.201C236.936 135.576 237.18 135.088 237.668 134.736C238.16 134.385 238.809 134.209 239.613 134.209C240.312 134.209 240.988 134.297 241.641 134.473V134.209C241.641 133.6 241.463 133.135 241.107 132.814C240.756 132.494 240.262 132.334 239.625 132.334C238.992 132.334 238.354 132.498 237.709 132.826L237.492 132.311C238.254 131.959 238.977 131.783 239.66 131.783C240.5 131.783 241.145 132.008 241.594 132.457C242.012 132.875 242.221 133.451 242.221 134.186V138H241.641V136.98C241.398 137.316 241.082 137.596 240.691 137.818C240.301 138.037 239.838 138.146 239.303 138.146C238.873 138.146 238.482 138.076 238.131 137.936C237.779 137.795 237.492 137.574 237.27 137.273C237.047 136.973 236.936 136.615 236.936 136.201ZM237.574 136.189C237.574 136.627 237.734 136.971 238.055 137.221C238.375 137.467 238.803 137.59 239.338 137.59C239.975 137.59 240.52 137.414 240.973 137.062C241.426 136.707 241.652 136.256 241.652 135.709V135.012C240.949 134.828 240.258 134.736 239.578 134.736C238.941 134.736 238.447 134.867 238.096 135.129C237.748 135.391 237.574 135.744 237.574 136.189ZM244.33 138V131.883H244.922V135.803L248.713 131.883H249.492L246.814 134.59L249.574 138H248.83L246.41 135.012L244.922 136.512V138H244.33ZM250.582 134.941C250.582 134.516 250.662 134.107 250.822 133.717C250.982 133.326 251.199 132.986 251.473 132.697C251.746 132.404 252.08 132.172 252.475 132C252.869 131.824 253.289 131.736 253.734 131.736C254.324 131.736 254.859 131.883 255.34 132.176C255.824 132.465 256.199 132.855 256.465 133.348C256.734 133.836 256.869 134.367 256.869 134.941C256.869 135.512 256.734 136.041 256.465 136.529C256.195 137.018 255.816 137.41 255.328 137.707C254.844 138 254.305 138.146 253.711 138.146C253.27 138.146 252.854 138.061 252.463 137.889C252.072 137.717 251.74 137.486 251.467 137.197C251.193 136.908 250.977 136.568 250.816 136.178C250.66 135.783 250.582 135.371 250.582 134.941ZM251.215 134.941C251.215 135.68 251.457 136.307 251.941 136.822C252.43 137.334 253.027 137.59 253.734 137.59C254.18 137.59 254.594 137.473 254.977 137.238C255.359 137 255.664 136.678 255.891 136.271C256.117 135.865 256.23 135.422 256.23 134.941C256.23 134.207 255.984 133.582 255.492 133.066C255 132.547 254.406 132.287 253.711 132.287C253.258 132.287 252.84 132.406 252.457 132.645C252.074 132.879 251.771 133.201 251.549 133.611C251.326 134.018 251.215 134.461 251.215 134.941ZM261.275 137.426H262.178C262.607 136.824 262.938 135.994 263.168 134.936C263.402 133.877 263.52 132.691 263.52 131.379V129.598H268.67V137.426H269.812L269.689 139.922H269.162V138H261.926L261.809 139.922H261.275V137.426ZM262.898 137.426H268.049V130.178H264.135V131.83C264.135 132.971 264.023 134.049 263.801 135.064C263.582 136.076 263.281 136.863 262.898 137.426ZM270.779 136.201C270.779 135.576 271.023 135.088 271.512 134.736C272.004 134.385 272.652 134.209 273.457 134.209C274.156 134.209 274.832 134.297 275.484 134.473V134.209C275.484 133.6 275.307 133.135 274.951 132.814C274.6 132.494 274.105 132.334 273.469 132.334C272.836 132.334 272.197 132.498 271.553 132.826L271.336 132.311C272.098 131.959 272.82 131.783 273.504 131.783C274.344 131.783 274.988 132.008 275.438 132.457C275.855 132.875 276.064 133.451 276.064 134.186V138H275.484V136.98C275.242 137.316 274.926 137.596 274.535 137.818C274.145 138.037 273.682 138.146 273.146 138.146C272.717 138.146 272.326 138.076 271.975 137.936C271.623 137.795 271.336 137.574 271.113 137.273C270.891 136.973 270.779 136.615 270.779 136.201ZM271.418 136.189C271.418 136.627 271.578 136.971 271.898 137.221C272.219 137.467 272.646 137.59 273.182 137.59C273.818 137.59 274.363 137.414 274.816 137.062C275.27 136.707 275.496 136.256 275.496 135.709V135.012C274.793 134.828 274.102 134.736 273.422 134.736C272.785 134.736 272.291 134.867 271.939 135.129C271.592 135.391 271.418 135.744 271.418 136.189ZM278.174 138V131.883H278.766V137.221L282.914 131.883H283.506V138H282.914V132.662L278.766 138H278.174ZM285.445 134.174V131.883H286.037V134.186C286.037 134.561 286.16 134.859 286.406 135.082C286.652 135.301 286.988 135.41 287.414 135.41C287.781 135.41 288.172 135.348 288.586 135.223C289 135.098 289.35 134.936 289.635 134.736V131.883H290.221V138H289.635V135.322C289.354 135.482 289.008 135.627 288.598 135.756C288.188 135.885 287.801 135.949 287.438 135.949C286.82 135.949 286.334 135.797 285.979 135.492C285.623 135.188 285.445 134.748 285.445 134.174ZM292.447 138V131.883H293.039V137.221L297.188 131.883H297.779V138H297.188V132.662L293.039 138H292.447Z" fill="black" fill-opacity="0.7"/>
<defs>
<linearGradient id="paint0_linear" x1="165.69" y1="28.1396" x2="239.895" y2="167.362" gradientUnits="userSpaceOnUse">
<stop stop-color="#00ADEB"/>
<stop offset="1" stop-color="#DF61FE"/>
</linearGradient>
<linearGradient id="paint1_linear" x1="335.764" y1="123.17" x2="413.067" y2="136.836" gradientUnits="userSpaceOnUse">
<stop stop-color="#00B1E8"/>
<stop offset="1" stop-color="#05E9C3"/>
</linearGradient>
<linearGradient id="paint2_linear" x1="148.099" y1="101.648" x2="215.12" y2="205.285" gradientUnits="userSpaceOnUse">
<stop stop-color="#00B1E8"/>
<stop offset="1" stop-color="#05E9C3"/>
</linearGradient>
</defs>
</svg>
